%FSTAX23Y23*%
%MOIN*%
%SFA1B1*%

%IPPOS*%
%AMD30*
4,1,8,-0.023100,-0.015600,0.023100,-0.015600,0.030000,-0.008700,0.030000,0.008700,0.023100,0.015600,-0.023100,0.015600,-0.030000,0.008700,-0.030000,-0.008700,-0.023100,-0.015600,0.0*
1,1,0.013800,-0.023100,-0.008700*
1,1,0.013800,0.023100,-0.008700*
1,1,0.013800,0.023100,0.008700*
1,1,0.013800,-0.023100,0.008700*
%
%ADD16R,0.132090X0.051350*%
%ADD18R,0.126310X0.045470*%
%ADD22R,0.118110X0.078740*%
%ADD24R,0.051350X0.132090*%
%ADD27R,0.051310X0.074930*%
%ADD28R,0.052490X0.077690*%
%ADD29R,0.074930X0.051310*%
G04~CAMADD=30~8~0.0~0.0~599.7~312.3~69.0~0.0~15~0.0~0.0~0.0~0.0~0~0.0~0.0~0.0~0.0~0~0.0~0.0~0.0~180.0~600.0~312.0*
%ADD30D30*%
%ADD31R,0.078870X0.059180*%
%ADD32R,0.090680X0.173350*%
%ADD33R,0.078870X0.057210*%
%ADD34C,0.055240*%
%ADD35O,0.059500X0.110990*%
%ADD36O,0.110990X0.059500*%
%ADD37C,0.059500*%
%ADD38C,0.096580*%
%ADD39C,0.061810*%
%ADD40R,0.061810X0.061810*%
%ADD41R,0.061810X0.061810*%
%ADD42C,0.128000*%
%ADD43C,0.058000*%
%LNpcb1-1*%
%LPD*%
G54D16*
X04965Y03106D03*
Y03323D03*
X04313Y03281D03*
Y03498D03*
X04625Y02036D03*
Y02253D03*
X04425Y02586D03*
Y02803D03*
X04065Y03498D03*
Y03281D03*
G54D18*
X0456Y03278D03*
Y03501D03*
X04615Y02583D03*
Y02806D03*
G54D22*
X04415Y02113D03*
Y01876D03*
G54D24*
X04411Y02995D03*
X04628D03*
G54D27*
X04383Y03635D03*
X04486D03*
G54D28*
X04221Y02255D03*
X04108D03*
G54D29*
X0462Y02348D03*
Y02451D03*
G54D30*
X04459Y02347D03*
Y02422D03*
X0438Y02385D03*
G54D31*
X04245Y01918D03*
Y02041D03*
G54D32*
X047Y0395D03*
Y04239D03*
G54D33*
X04245Y02384D03*
Y02505D03*
X04085Y02384D03*
Y02505D03*
G54D34*
X03973Y04126D03*
Y04225D03*
X0417Y0393D03*
X04366Y04126D03*
Y04225D03*
G54D35*
X04366Y0393D03*
X03973D03*
G54D36*
X0417Y04126D03*
G54D37*
X0354Y0327D03*
Y03191D03*
Y03348D03*
G54D38*
X0354Y03079D03*
Y0346D03*
G54D39*
X04685Y0156D03*
X04585D03*
X04485D03*
X04385D03*
X04285D03*
X04185D03*
X04085D03*
X03815Y03555D03*
Y03455D03*
Y03355D03*
Y03255D03*
Y03155D03*
Y03055D03*
Y02955D03*
Y02855D03*
Y02755D03*
Y02655D03*
Y02555D03*
Y02455D03*
Y02355D03*
Y02255D03*
Y02155D03*
Y02055D03*
Y01955D03*
Y01855D03*
Y01755D03*
X04815Y03557D03*
Y03457D03*
Y03357D03*
Y03257D03*
Y03157D03*
Y03057D03*
Y02957D03*
Y02857D03*
Y02757D03*
Y02657D03*
Y02557D03*
Y02457D03*
Y02357D03*
Y02257D03*
Y02157D03*
Y02057D03*
Y01957D03*
Y01857D03*
Y01757D03*
X0497Y02685D03*
X0496Y03455D03*
G54D40*
X03985Y0156D03*
G54D41*
X03815Y03655D03*
X04815Y03657D03*
X0497Y02585D03*
X0496Y03555D03*
G54D42*
X03815Y04285D03*
X05035D03*
Y01235D03*
X03815D03*
G54D43*
X04475Y02485D03*
X0446Y0224D03*
X04595Y01855D03*
X03935Y02615D03*
X0432Y0317D03*
M02*