%FSTAX23Y23*%
%MOIN*%
%SFA1B1*%

%IPPOS*%
%ADD34C,0.055240*%
%ADD35O,0.059500X0.110990*%
%ADD36O,0.110990X0.059500*%
%ADD37C,0.059500*%
%ADD38C,0.096580*%
%ADD39C,0.061810*%
%ADD40R,0.061810X0.061810*%
%ADD41R,0.061810X0.061810*%
%ADD42C,0.128000*%
%ADD43C,0.058000*%
%ADD54R,0.043430X0.070990*%
%ADD55R,0.039500X0.027690*%
%ADD56R,0.070990X0.043430*%
%LNpcb1-1*%
%LPD*%
G54D34*
X03973Y04126D03*
Y04225D03*
X0417Y0393D03*
X04366Y04126D03*
Y04225D03*
G54D35*
X04366Y0393D03*
X03973D03*
G54D36*
X0417Y04126D03*
G54D37*
X0354Y0327D03*
Y03191D03*
Y03348D03*
G54D38*
X0354Y03079D03*
Y0346D03*
G54D39*
X04685Y0156D03*
X04585D03*
X04485D03*
X04385D03*
X04285D03*
X04185D03*
X04085D03*
X03815Y03555D03*
Y03455D03*
Y03355D03*
Y03255D03*
Y03155D03*
Y03055D03*
Y02955D03*
Y02855D03*
Y02755D03*
Y02655D03*
Y02555D03*
Y02455D03*
Y02355D03*
Y02255D03*
Y02155D03*
Y02055D03*
Y01955D03*
Y01855D03*
Y01755D03*
X04815Y03557D03*
Y03457D03*
Y03357D03*
Y03257D03*
Y03157D03*
Y03057D03*
Y02957D03*
Y02857D03*
Y02757D03*
Y02657D03*
Y02557D03*
Y02457D03*
Y02357D03*
Y02257D03*
Y02157D03*
Y02057D03*
Y01957D03*
Y01857D03*
Y01757D03*
X0497Y02685D03*
X0496Y03455D03*
G54D40*
X03985Y0156D03*
G54D41*
X03815Y03655D03*
X04815Y03657D03*
X0497Y02585D03*
X0496Y03555D03*
G54D42*
X03815Y04285D03*
X05035D03*
Y01235D03*
X03815D03*
G54D43*
X04475Y02485D03*
X0446Y0224D03*
X04595Y01855D03*
X03935Y02615D03*
X0432Y0317D03*
G54D54*
X03921Y02715D03*
X04028D03*
X04033Y03145D03*
X03926D03*
G54D55*
X04009Y02865D03*
X0393D03*
Y03D03*
X04009D03*
G54D56*
X04125Y03013D03*
Y02906D03*
M02*