%FSTAX23Y23*%
%MOIN*%
%SFA1B1*%

%IPPOS*%
%AMD21*
4,1,8,-0.023100,-0.011600,0.023100,-0.011600,0.026000,-0.008700,0.026000,0.008700,0.023100,0.011600,-0.023100,0.011600,-0.026000,0.008700,-0.026000,-0.008700,-0.023100,-0.011600,0.0*
1,1,0.005800,-0.023100,-0.008700*
1,1,0.005800,0.023100,-0.008700*
1,1,0.005800,0.023100,0.008700*
1,1,0.005800,-0.023100,0.008700*
%
%ADD14C,0.010000*%
%ADD16R,0.132090X0.051350*%
%ADD17R,0.043310X0.066930*%
%ADD18R,0.126310X0.045470*%
%ADD19R,0.044490X0.069690*%
%ADD20R,0.066930X0.043310*%
G04~CAMADD=21~8~0.0~0.0~519.7~232.3~29.0~0.0~15~0.0~0.0~0.0~0.0~0~0.0~0.0~0.0~0.0~0~0.0~0.0~0.0~180.0~520.0~232.0*
%ADD21D21*%
%ADD22R,0.118110X0.078740*%
%ADD23R,0.070870X0.051180*%
%ADD24R,0.051350X0.132090*%
%ADD25R,0.082680X0.165350*%
%ADD26R,0.070870X0.049210*%
%ADD39C,0.061810*%
%ADD40R,0.061810X0.061810*%
%ADD41R,0.061810X0.061810*%
%ADD44C,0.047240*%
%ADD45O,0.051500X0.102990*%
%ADD46O,0.102990X0.051500*%
%ADD47C,0.051500*%
%ADD48C,0.088580*%
%ADD49C,0.120000*%
%ADD50C,0.050000*%
%LNpcb1-1*%
%LPD*%
G36*
X05063Y04411D02*
X0509Y04399D01*
X05114Y04385*
X05136Y04366*
X05155Y04344*
X05171Y04317*
X05182Y04288*
X0519Y0426*
X05195Y03055*
X0519Y01642*
Y0128*
X05188Y01256*
X05187Y01252*
X05175Y01211*
X05158Y01185*
X05139Y01161*
X05114Y01139*
X05085Y01122*
X05054Y01111*
X05024Y01105*
X0381*
X03773Y01113*
X0374Y01126*
X03711Y01146*
X03688Y01169*
X0367Y01194*
X03656Y01222*
X03648Y01253*
X03645Y01285*
X03643Y02371*
X03644Y02884*
X03641Y02898*
X03636Y02912*
X03628Y02925*
X03618Y02938*
X03607Y02948*
X03594Y02956*
X03579Y02961*
X03564Y02965*
X03494Y02965*
X03478Y02969*
X03462Y02975*
X03447Y02985*
X03435Y02997*
X03426Y0301*
X0342Y03024*
X03417Y03031*
X03415Y03047*
Y03055*
X03415Y03489*
X03418Y03506*
X03425Y03521*
X03429Y03528*
X03433Y03534*
X03438Y0354*
X03443Y03545*
X03449Y0355*
X03456Y03555*
X03469Y03562*
X03476Y03565*
X03484Y03567*
X0349Y03568*
X03497Y03569*
X03555Y0357*
X03571Y03571*
X03587Y03575*
X03601Y03583*
X03615Y03593*
X03627Y03607*
X03637Y03623*
X03643Y03641*
X03644Y0365*
X03645Y0366*
Y04265*
X03655Y04297*
X03667Y04326*
X03686Y04353*
X03708Y04376*
X03734Y04394*
X03764Y04408*
X03794Y04417*
X03824Y0442*
X05035*
X05063Y04411*
G37*
%LNpcb1-2*%
%LPC*%
G36*
X05041Y04355D02*
X05028D01*
X05014Y04352*
X05001Y04347*
X0499Y04339*
X0498Y04329*
X04972Y04318*
X04967Y04305*
X04965Y04291*
Y04278*
X04967Y04264*
X04972Y04251*
X0498Y0424*
X0499Y0423*
X05001Y04222*
X05014Y04217*
X05028Y04215*
X05041*
X05055Y04217*
X05068Y04222*
X05079Y0423*
X05089Y0424*
X05097Y04251*
X05102Y04264*
X05105Y04278*
Y04291*
X05102Y04305*
X05097Y04318*
X05089Y04329*
X05079Y04339*
X05068Y04347*
X05055Y04352*
X05041Y04355*
G37*
G36*
X03821D02*
X03808D01*
X03794Y04352*
X03781Y04347*
X0377Y04339*
X0376Y04329*
X03752Y04318*
X03747Y04305*
X03745Y04291*
Y04278*
X03747Y04264*
X03752Y04251*
X0376Y0424*
X0377Y0423*
X03781Y04222*
X03794Y04217*
X03808Y04215*
X03821*
X03835Y04217*
X03848Y04222*
X03859Y0423*
X03869Y0424*
X03877Y04251*
X03882Y04264*
X03885Y04278*
Y04291*
X03882Y04305*
X03877Y04318*
X03869Y04329*
X03859Y04339*
X03848Y04347*
X03835Y04352*
X03821Y04355*
G37*
G36*
X04371Y04258D02*
X04362D01*
X04353Y04256*
X04346Y04252*
X04339Y04245*
X04335Y04238*
X04333Y04229*
Y0422*
X04335Y04212*
X04339Y04204*
X04346Y04198*
X04353Y04193*
X04362Y04191*
X04371*
X04379Y04193*
X04387Y04198*
X04393Y04204*
X04398Y04212*
X044Y0422*
Y04229*
X04398Y04238*
X04393Y04245*
X04387Y04252*
X04379Y04256*
X04371Y04258*
G37*
G36*
X03977D02*
X03968D01*
X0396Y04256*
X03952Y04252*
X03946Y04245*
X03941Y04238*
X03939Y04229*
Y0422*
X03941Y04212*
X03946Y04204*
X03952Y04198*
X0396Y04193*
X03968Y04191*
X03977*
X03986Y04193*
X03993Y04198*
X04Y04204*
X04004Y04212*
X04006Y0422*
Y04229*
X04004Y04238*
X04Y04245*
X03993Y04252*
X03986Y04256*
X03977Y04258*
G37*
G36*
X04751Y04332D02*
X04648D01*
Y04244*
X04643Y04243*
X04638Y0424*
X04468Y0407*
X04196*
X04185Y04081*
Y0409*
X04195*
X04205Y04092*
X04213Y04095*
X04221Y04101*
X04226Y04108*
X0423Y04117*
X04231Y04126*
X0423Y04136*
X04226Y04144*
X04221Y04152*
X04213Y04158*
X04205Y04161*
X04195Y04162*
X04144*
X04134Y04161*
X04126Y04158*
X04118Y04152*
X04113Y04144*
X04109Y04136*
X04108Y04126*
X04109Y04117*
X04113Y04108*
X04118Y04101*
X04126Y04095*
X04134Y04092*
X04144Y0409*
X04154*
Y04075*
X04155Y04069*
X04159Y04064*
X04179Y04044*
X04184Y0404*
X0419Y04039*
X04475*
X0448Y0404*
X04485Y04044*
X04644Y04202*
X04648Y042*
Y04147*
X04751*
Y04332*
G37*
G36*
X04371Y0416D02*
X04362D01*
X04353Y04158*
X04346Y04153*
X04339Y04147*
X04335Y04139*
X04333Y04131*
Y04122*
X04335Y04113*
X04339Y04106*
X04346Y04099*
X04353Y04095*
X04362Y04093*
X04371*
X04379Y04095*
X04387Y04099*
X04393Y04106*
X04398Y04113*
X044Y04122*
Y04131*
X04398Y04139*
X04393Y04147*
X04387Y04153*
X04379Y04158*
X04371Y0416*
G37*
G36*
X03977D02*
X03968D01*
X0396Y04158*
X03952Y04153*
X03946Y04147*
X03941Y04139*
X03939Y04131*
Y04122*
X03941Y04113*
X03946Y04106*
X03952Y04099*
X0396Y04095*
X03968Y04093*
X03977*
X03986Y04095*
X03993Y04099*
X04Y04106*
X04004Y04113*
X04006Y04122*
Y04131*
X04004Y04139*
X04Y04147*
X03993Y04153*
X03986Y04158*
X03977Y0416*
G37*
G36*
X04751Y04042D02*
X04705D01*
Y03955*
X04751*
Y04042*
G37*
G36*
X04695D02*
X04648D01*
Y03955*
X04695*
Y04042*
G37*
G36*
X04174Y03963D02*
X04165D01*
X04157Y03961*
X04149Y03956*
X04143Y0395*
X04138Y03942*
X04136Y03934*
Y03925*
X04138Y03917*
X04143Y03909*
X04149Y03903*
X04157Y03898*
X04165Y03896*
X04174*
X04182Y03898*
X0419Y03903*
X04196Y03909*
X04201Y03917*
X04203Y03925*
Y03934*
X04201Y03942*
X04196Y0395*
X0419Y03956*
X04182Y03961*
X04174Y03963*
G37*
G36*
X03973Y03991D02*
X03963Y0399D01*
X03955Y03986*
X03947Y03981*
X03941Y03973*
X03938Y03965*
X03937Y03955*
Y03904*
X03938Y03894*
X03941Y03886*
X03947Y03878*
X03955Y03873*
X03963Y03869*
X03973Y03868*
X03982Y03869*
X03991Y03873*
X03998Y03878*
X04004Y03886*
X04007Y03894*
X04009Y03904*
Y03955*
X04007Y03965*
X04004Y03973*
X03998Y03981*
X03991Y03986*
X03982Y0399*
X03973Y03991*
G37*
G36*
X04751Y03945D02*
X04705D01*
Y03857*
X04751*
Y03945*
G37*
G36*
X04695D02*
X04648D01*
Y03857*
X04695*
Y03945*
G37*
G36*
X03855Y03695D02*
X0382D01*
Y0366*
X03855*
Y03695*
G37*
G36*
X0381D02*
X03774D01*
Y0366*
X0381*
Y03695*
G37*
G36*
X04855Y03698D02*
X04774D01*
Y03617*
X04855*
Y03698*
G37*
G36*
X03855Y0365D02*
X0382D01*
Y03614*
X03855*
Y0365*
G37*
G36*
X0381D02*
X03774D01*
Y03614*
X0381*
Y0365*
G37*
G36*
X04415Y03678D02*
X04352D01*
Y03616*
X04352Y03615*
X04352Y03615*
Y03613*
X0435Y03611*
X04303Y03564*
X04299Y03559*
X04298Y03553*
Y03533*
X04237*
Y03513*
X04141*
Y03533*
X03988*
Y03513*
X03923*
X03917Y03512*
X03912Y03509*
X0386Y03457*
X03855Y03459*
Y0346*
X03853Y0347*
X03847Y0348*
X0384Y03487*
X0383Y03493*
X0382Y03495*
X03809*
X03799Y03493*
X03789Y03487*
X03782Y0348*
X03776Y0347*
X03774Y0346*
Y03449*
X03776Y03439*
X03782Y03429*
X03783Y03429*
X03781Y03424*
X036*
X03594Y03423*
X03589Y03419*
X0356Y0339*
X0356Y0339*
X03558Y03389*
X03556Y03388*
X03555Y03387*
X03553Y03386*
X0355Y03385*
X03548Y03385*
X03546Y03384*
X03543Y03384*
X0354Y03384*
X03539Y03384*
X03535*
X03526Y03382*
X03518Y03377*
X03511Y0337*
X03506Y03362*
X03504Y03353*
Y03344*
X03506Y03334*
X03511Y03326*
X03518Y0332*
X03526Y03315*
X03535Y03312*
X03544*
X03553Y03315*
X03561Y0332*
X03568Y03326*
X03573Y03334*
X03575Y03344*
Y03347*
X03575Y03348*
X03576Y03352*
X03576Y03354*
X03576Y03357*
X03577Y03359*
X03577Y03361*
X03578Y03363*
X03579Y03365*
X0358Y03367*
X03581Y03368*
X03581Y03368*
X03606Y03393*
X0379*
X03791Y03388*
X03789Y03387*
X03782Y0338*
X03776Y0337*
X03774Y0336*
Y03349*
X03776Y03339*
X03782Y03329*
X03789Y03322*
X03799Y03316*
X03809Y03314*
X0382*
X0383Y03316*
X0384Y03322*
X03847Y03329*
X03853Y03339*
X03855Y03349*
Y0336*
X03853Y0337*
X03847Y0338*
X0384Y03387*
X03837Y03389*
X03838Y03394*
X03839Y03394*
X03844Y03398*
X03929Y03483*
X03988*
Y03462*
X04141*
Y03483*
X04237*
Y03462*
X0439*
Y03533*
X04329*
Y03547*
X04371Y03589*
X04372Y0359*
X04374Y03591*
X04374Y03591*
X04376*
X04376Y03591*
X04376Y03591*
X04415*
Y03678*
G37*
G36*
X05Y03595D02*
X04965D01*
Y0356*
X05*
Y03595*
G37*
G36*
X04955D02*
X04919D01*
Y0356*
X04955*
Y03595*
G37*
G36*
X0482Y03598D02*
X04809D01*
X04799Y03596*
X04789Y0359*
X04782Y03583*
X04776Y03573*
X04774Y03563*
Y03552*
X04776Y03542*
X04782Y03532*
X04789Y03525*
X04799Y03519*
X04809Y03517*
X0482*
X0483Y03519*
X0484Y03525*
X04847Y03532*
X04853Y03542*
X04855Y03552*
Y03563*
X04853Y03573*
X04847Y03583*
X0484Y0359*
X0483Y03596*
X0482Y03598*
G37*
G36*
X05Y0355D02*
X04965D01*
Y03514*
X05*
Y0355*
G37*
G36*
X04955D02*
X04919D01*
Y03514*
X04955*
Y0355*
G37*
G36*
X0382Y03595D02*
X03809D01*
X03799Y03593*
X03789Y03587*
X03782Y0358*
X03776Y0357*
X03774Y0356*
Y03549*
X03776Y03539*
X03782Y03529*
X03789Y03522*
X03799Y03516*
X03809Y03514*
X0382*
X0383Y03516*
X0384Y03522*
X03847Y03529*
X03853Y03539*
X03855Y03549*
Y0356*
X03853Y0357*
X03847Y0358*
X0384Y03587*
X0383Y03593*
X0382Y03595*
G37*
G36*
X04366Y03991D02*
X04357Y0399D01*
X04348Y03986*
X04341Y03981*
X04335Y03973*
X04332Y03965*
X0433Y03955*
Y03904*
X04332Y03894*
X04335Y03886*
X04341Y03878*
X04348Y03873*
X04348Y03872*
Y03851*
X04349Y03845*
X04352Y0384*
X04474Y03719*
X04474Y03718*
Y03678*
X04454*
Y03591*
X04495*
X04498Y03589*
X04544Y03543*
Y03533*
X04486*
Y03468*
X04633*
Y03533*
X04575*
Y03549*
X04574Y03555*
X0457Y0356*
X0452Y0361*
X04518Y03612*
X04517Y03613*
Y03678*
X04505*
Y0373*
X04504Y03735*
X045Y0374*
X04495Y03744*
X04491Y03744*
X04378Y03857*
Y0387*
X04384Y03873*
X04392Y03878*
X04398Y03886*
X04401Y03894*
X04402Y03904*
Y03955*
X04401Y03965*
X04398Y03973*
X04392Y03981*
X04384Y03986*
X04376Y0399*
X04366Y03991*
G37*
G36*
X03547Y03515D02*
X03532D01*
X03519Y03511*
X03506Y03504*
X03496Y03494*
X03489Y03481*
X03485Y03468*
Y03453*
X03489Y03439*
X03496Y03427*
X03506Y03417*
X03519Y0341*
X03532Y03406*
X03547*
X0356Y0341*
X03573Y03417*
X03583Y03427*
X0359Y03439*
X03594Y03453*
Y03468*
X0359Y03481*
X03583Y03494*
X03573Y03504*
X0356Y03511*
X03547Y03515*
G37*
G36*
X0482Y03398D02*
X04809D01*
X04799Y03396*
X04789Y0339*
X04782Y03383*
X04776Y03373*
X04774Y03363*
Y03352*
X04776Y03342*
X04782Y03332*
X04789Y03325*
X04799Y03319*
X04809Y03317*
X0482*
X0483Y03319*
X0484Y03325*
X04847Y03332*
X04853Y03342*
X04855Y03352*
Y03363*
X04853Y03373*
X04847Y03383*
X0484Y0339*
X0483Y03396*
X0482Y03398*
G37*
G36*
Y03498D02*
X04809D01*
X04799Y03496*
X04789Y0349*
X04782Y03483*
X04776Y03473*
X04774Y03463*
Y03452*
X04776Y03442*
X04782Y03432*
X04789Y03425*
X04799Y03419*
X04809Y03417*
X0482*
X0483Y03419*
X0484Y03425*
X04842Y03427*
X04842Y03427*
X04846Y0343*
X04849Y03432*
X04852Y03435*
X04854Y03436*
X04857Y03438*
X0486Y03439*
X04862Y0344*
X04865Y0344*
X04867Y03441*
X04868Y03441*
X04906*
X04906Y03441*
X04909Y0344*
X04911Y0344*
X04914Y03439*
X04916Y03438*
X04918Y03436*
X04921Y03434*
X04924Y03432*
X04926Y0343*
X04929Y03427*
X0493Y03426*
X0493Y03426*
X04931Y03425*
X04934Y03422*
X04936Y03419*
X04938Y03417*
X0494Y03414*
X04941Y03411*
X04942Y03409*
X04943Y03406*
X04944Y03404*
X04944Y03402*
X04944Y03401*
Y03358*
X04888*
Y03287*
X05041*
Y03358*
X04975*
Y03401*
X04975Y03402*
X04975Y03404*
X04976Y03406*
X04977Y03409*
X04978Y03411*
X04979Y03414*
X04981Y03417*
X04983Y03419*
X04986Y03422*
X04988Y03425*
X04989Y03426*
X04992Y03429*
X04998Y03439*
X05Y03449*
Y0346*
X04998Y0347*
X04992Y0348*
X04985Y03487*
X04975Y03493*
X04965Y03495*
X04954*
X04944Y03493*
X04934Y03487*
X04932Y03485*
X04932Y03485*
X04928Y03482*
X04925Y0348*
X04922Y03477*
X0492Y03476*
X04917Y03474*
X04914Y03473*
X04912Y03472*
X04909Y03472*
X04907Y03471*
X04906Y03471*
X04868*
X04868Y03471*
X04865Y03472*
X04863Y03472*
X0486Y03473*
X04858Y03474*
X04856Y03476*
X04853Y03477*
X0485Y0348*
X04848Y03482*
X04845Y03485*
X04844Y03485*
X0484Y0349*
X0483Y03496*
X0482Y03498*
G37*
G36*
X04141Y03317D02*
X0407D01*
Y03286*
X04141*
Y03317*
G37*
G36*
X0406D02*
X03988D01*
Y03286*
X0406*
Y03317*
G37*
G36*
X04141Y03276D02*
X0407D01*
Y03246*
X04141*
Y03276*
G37*
G36*
X0406D02*
X03988D01*
Y03246*
X0406*
Y03276*
G37*
G36*
X0439Y03317D02*
X04237D01*
Y03246*
X04304*
Y03212*
X04304Y0321*
X04304Y03208*
X04303Y03206*
X04302Y03204*
X04301Y03203*
X043Y03201*
X04298Y03199*
X04297Y03197*
X04295Y03194*
X04294Y03194*
X04291Y03191*
X04287Y03183*
X04285Y03174*
Y03165*
X04287Y03156*
X04291Y03148*
X04298Y03141*
X04306Y03137*
X04315Y03135*
X04324*
X04333Y03137*
X04341Y03141*
X04344Y03144*
X04344Y03145*
X04347Y03147*
X04349Y03148*
X04351Y0315*
X04353Y03151*
X04354Y03152*
X04356Y03153*
X04358Y03154*
X0436Y03154*
X04362Y03154*
X0441*
X04416Y03155*
X04421Y03159*
X04505Y03243*
X04507Y03245*
X04508Y03245*
X04508Y03246*
X0451*
X04511Y03245*
X04511Y03246*
X04633*
Y03311*
X04486*
Y0327*
X04486Y0327*
X04486Y03269*
Y03268*
X04484Y03265*
X04404Y03185*
X04362*
X0436Y03185*
X04358Y03185*
X04356Y03186*
X04354Y03187*
X04353Y03188*
X04351Y03189*
X04349Y03191*
X04347Y03192*
X04344Y03194*
X04344Y03194*
X04344Y03194*
X04342Y03197*
X04341Y03199*
X04339Y03201*
X04338Y03203*
X04337Y03204*
X04336Y03206*
X04335Y03208*
X04335Y0321*
X04335Y03212*
Y03246*
X0439*
Y03317*
G37*
G36*
X03544Y03305D02*
X03535D01*
X03526Y03303*
X03518Y03298*
X03511Y03291*
X03506Y03283*
X03504Y03274*
Y03265*
X03506Y03256*
X03511Y03248*
X03518Y03241*
X03526Y03236*
X03535Y03234*
X03544*
X03553Y03236*
X03561Y03241*
X03568Y03248*
X03573Y03256*
X03575Y03265*
Y03274*
X03573Y03283*
X03568Y03291*
X03561Y03298*
X03553Y03303*
X03544Y03305*
G37*
G36*
X0482Y03298D02*
X04809D01*
X04799Y03296*
X04789Y0329*
X04782Y03283*
X04776Y03273*
X04774Y03263*
Y03252*
X04776Y03242*
X04782Y03232*
X04789Y03225*
X04799Y03219*
X04809Y03217*
X0482*
X0483Y03219*
X0484Y03225*
X04847Y03232*
X04853Y03242*
X04855Y03252*
Y03263*
X04853Y03273*
X04847Y03283*
X0484Y0329*
X0483Y03296*
X0482Y03298*
G37*
G36*
X0382Y03295D02*
X03809D01*
X03799Y03293*
X03789Y03287*
X03782Y0328*
X03776Y0327*
X03774Y0326*
Y03249*
X03776Y03239*
X03782Y03229*
X03789Y03222*
X03799Y03216*
X03809Y03214*
X0382*
X0383Y03216*
X0384Y03222*
X03847Y03229*
X03853Y03239*
X03855Y03249*
Y0326*
X03853Y0327*
X03847Y0328*
X0384Y03287*
X0383Y03293*
X0382Y03295*
G37*
G36*
X0482Y03198D02*
X04809D01*
X04799Y03196*
X04789Y0319*
X04782Y03183*
X04776Y03173*
X04774Y03163*
Y03152*
X04776Y03142*
X04782Y03132*
X04789Y03125*
X04799Y03119*
X04809Y03117*
X0482*
X0483Y03119*
X0484Y03125*
X04847Y03132*
X04853Y03142*
X04855Y03152*
Y03163*
X04853Y03173*
X04847Y03183*
X0484Y0319*
X0483Y03196*
X0482Y03198*
G37*
G36*
X0382Y03195D02*
X03809D01*
X03799Y03193*
X03789Y03187*
X03782Y0318*
X03776Y0317*
X03774Y0316*
Y03149*
X03776Y03139*
X03782Y03129*
X03789Y03122*
X03799Y03116*
X03809Y03114*
X0382*
X0383Y03116*
X0384Y03122*
X03847Y03129*
X03853Y03139*
X03855Y03149*
Y0316*
X03853Y0317*
X03847Y0318*
X0384Y03187*
X0383Y03193*
X0382Y03195*
G37*
G36*
X03547Y03133D02*
X03532D01*
X03519Y03129*
X03506Y03122*
X03496Y03112*
X03489Y031*
X03485Y03086*
Y03071*
X03489Y03058*
X03496Y03045*
X03506Y03035*
X03519Y03028*
X03532Y03024*
X03547*
X0356Y03028*
X03573Y03035*
X03583Y03045*
X0359Y03058*
X03594Y03071*
Y03086*
X0359Y031*
X03583Y03112*
X03573Y03122*
X0356Y03129*
X03547Y03133*
G37*
G36*
X0482Y03098D02*
X04809D01*
X04799Y03096*
X04789Y0309*
X04782Y03083*
X04776Y03073*
X04774Y03063*
Y03052*
X04776Y03042*
X04782Y03032*
X04789Y03025*
X04799Y03019*
X04809Y03017*
X0482*
X0483Y03019*
X0484Y03025*
X04847Y03032*
X04853Y03042*
X04855Y03052*
Y03063*
X04853Y03073*
X04847Y03083*
X0484Y0309*
X0483Y03096*
X0482Y03098*
G37*
G36*
X0382Y03095D02*
X03809D01*
X03799Y03093*
X03789Y03087*
X03782Y0308*
X03776Y0307*
X03774Y0306*
Y03049*
X03776Y03039*
X03782Y03029*
X03789Y03022*
X03799Y03016*
X03809Y03014*
X0382*
X0383Y03016*
X0384Y03022*
X03847Y03029*
X03853Y03039*
X03855Y03049*
Y0306*
X03853Y0307*
X03847Y0308*
X0384Y03087*
X0383Y03093*
X0382Y03095*
G37*
G36*
X04663Y03071D02*
X04633D01*
Y03*
X04663*
Y03071*
G37*
G36*
X04623D02*
X04592D01*
Y03*
X04623*
Y03071*
G37*
G36*
X04663Y0299D02*
X04633D01*
Y02918*
X04663*
Y0299*
G37*
G36*
X04623D02*
X04592D01*
Y02918*
X04623*
Y0299*
G37*
G36*
X0482Y02998D02*
X04809D01*
X04799Y02996*
X04789Y0299*
X04782Y02983*
X04776Y02973*
X04774Y02963*
Y02952*
X04776Y02942*
X04782Y02932*
X04789Y02925*
X04799Y02919*
X04809Y02917*
X0482*
X0483Y02919*
X0484Y02925*
X04847Y02932*
X04853Y02942*
X04855Y02952*
Y02963*
X04853Y02973*
X04847Y02983*
X0484Y0299*
X0483Y02996*
X0482Y02998*
G37*
G36*
X0382Y02995D02*
X03809D01*
X03799Y02993*
X03789Y02987*
X03782Y0298*
X03776Y0297*
X03774Y0296*
Y02949*
X03776Y02939*
X03782Y02929*
X03789Y02922*
X03799Y02916*
X03809Y02914*
X0382*
X0383Y02916*
X0384Y02922*
X03847Y02929*
X03853Y02939*
X03855Y02949*
Y0296*
X03853Y0297*
X03847Y0298*
X0384Y02987*
X0383Y02993*
X0382Y02995*
G37*
G36*
X0482Y02898D02*
X04809D01*
X04799Y02896*
X04789Y0289*
X04782Y02883*
X04776Y02873*
X04774Y02863*
Y02852*
X04776Y02842*
X04782Y02832*
X04789Y02825*
X04799Y02819*
X04809Y02817*
X0482*
X0483Y02819*
X0484Y02825*
X04847Y02832*
X04853Y02842*
X04855Y02852*
Y02863*
X04853Y02873*
X04847Y02883*
X0484Y0289*
X0483Y02896*
X0482Y02898*
G37*
G36*
X0382Y02895D02*
X03809D01*
X03799Y02893*
X03789Y02887*
X03782Y0288*
X03776Y0287*
X03774Y0286*
Y02849*
X03776Y02839*
X03782Y02829*
X03789Y02822*
X03799Y02816*
X03809Y02814*
X0382*
X0383Y02816*
X0384Y02822*
X03847Y02829*
X03853Y02839*
X03855Y02849*
Y0286*
X03853Y0287*
X03847Y0288*
X0384Y02887*
X0383Y02893*
X0382Y02895*
G37*
G36*
X04688Y02838D02*
X0462D01*
Y02811*
X04688*
Y02838*
G37*
G36*
X0461D02*
X04541D01*
Y02811*
X0461*
Y02838*
G37*
G36*
X04688Y02801D02*
X0462D01*
Y02773*
X04688*
Y02801*
G37*
G36*
X0461D02*
X04541D01*
Y02773*
X0461*
Y02801*
G37*
G36*
X04447Y03071D02*
X04376D01*
Y02918*
X04409*
Y02838*
X04348*
Y02767*
X04501*
Y02838*
X0444*
Y02918*
X04447*
Y03071*
G37*
G36*
X0482Y02798D02*
X04809D01*
X04799Y02796*
X04789Y0279*
X04782Y02783*
X04776Y02773*
X04774Y02763*
Y02752*
X04776Y02742*
X04782Y02732*
X04789Y02725*
X04799Y02719*
X04809Y02717*
X0482*
X0483Y02719*
X0484Y02725*
X04847Y02732*
X04853Y02742*
X04855Y02752*
Y02763*
X04853Y02773*
X04847Y02783*
X0484Y0279*
X0483Y02796*
X0482Y02798*
G37*
G36*
X0382Y02795D02*
X03809D01*
X03799Y02793*
X03789Y02787*
X03782Y0278*
X03776Y0277*
X03774Y0276*
Y02749*
X03776Y02739*
X03782Y02729*
X03789Y02722*
X03799Y02716*
X03809Y02714*
X0382*
X0383Y02716*
X0384Y02722*
X03847Y02729*
X03853Y02739*
X03855Y02749*
Y0276*
X03853Y0277*
X03847Y0278*
X0384Y02787*
X0383Y02793*
X0382Y02795*
G37*
G36*
X05041Y03142D02*
X04888D01*
Y03071*
X04954*
Y02738*
X04954Y02737*
X04954Y02735*
X04953Y02733*
X04952Y0273*
X04951Y02728*
X0495Y02725*
X04948Y02722*
X04946Y0272*
X04944Y02717*
X04941Y02714*
X0494Y02713*
X04937Y0271*
X04931Y027*
X04929Y0269*
Y02679*
X04931Y02669*
X04937Y02659*
X04944Y02652*
X04954Y02646*
X04964Y02644*
X04975*
X04985Y02646*
X04995Y02652*
X05002Y02659*
X05008Y02669*
X0501Y02679*
Y0269*
X05008Y027*
X05002Y0271*
X04999Y02713*
X04998Y02714*
X04996Y02717*
X04993Y0272*
X04991Y02722*
X04989Y02725*
X04988Y02728*
X04987Y0273*
X04986Y02733*
X04985Y02735*
X04985Y02737*
X04985Y02738*
Y03071*
X05041*
Y03142*
G37*
G36*
X0394Y02649D02*
Y0262D01*
X03969*
X03967Y02628*
X03963Y02636*
X03956Y02643*
X03948Y02647*
X0394Y02649*
G37*
G36*
X0393D02*
X03921Y02647D01*
X03913Y02643*
X03906Y02636*
X03902Y02628*
X039Y0262*
X0393*
Y02649*
G37*
G36*
X0382Y02695D02*
X03809D01*
X03799Y02693*
X03789Y02687*
X03782Y0268*
X03776Y0267*
X03774Y0266*
Y02649*
X03776Y02639*
X03782Y02629*
X03789Y02622*
X03799Y02616*
X03809Y02614*
X0382*
X0383Y02616*
X0384Y02622*
X03847Y02629*
X03853Y02639*
X03855Y02649*
Y0266*
X03853Y0267*
X03847Y0268*
X0384Y02687*
X0383Y02693*
X0382Y02695*
G37*
G36*
X0482Y02698D02*
X04809D01*
X04799Y02696*
X04789Y0269*
X04782Y02683*
X04776Y02673*
X04774Y02663*
Y02652*
X04776Y02642*
X04782Y02632*
X04786Y02628*
X04784Y02623*
X04781*
X04775Y02622*
X0477Y02619*
X0475Y02599*
X04688*
Y02616*
X04541*
Y02551*
X04599*
Y02482*
X04577*
X04574Y02485*
X04573Y02486*
X0457Y0249*
X04501Y0256*
Y0256*
X04501Y02561*
X04501Y02561*
Y02561*
X04501Y02561*
X04501Y02562*
Y02622*
X04348*
Y02551*
X0447*
X04471Y02548*
X04474Y02543*
X04544Y02473*
Y02457*
Y0239*
X04545Y02384*
X04549Y02379*
X0456Y02367*
X04558Y02362*
X04494*
X04492Y02365*
X04488Y02368*
X04483Y02369*
X04436*
X04431Y02368*
X04427Y02365*
X04424Y02361*
X04423Y02356*
Y02338*
X04424Y02333*
X04427Y02329*
X04431Y02326*
X04436Y02325*
X04483*
X04488Y02326*
X04492Y02329*
X04494Y02332*
X04576*
Y02317*
X04609*
Y02288*
X04548*
Y02217*
X04701*
Y02288*
X0464*
Y02317*
X04663*
Y0238*
X04593*
X04591Y0238*
X0459*
X04575Y02396*
Y02415*
X04576Y02419*
X0458*
X04663*
Y02482*
X0463*
Y02551*
X04688*
Y02568*
X04756*
X04762Y02569*
X04767Y02572*
X04775Y02581*
X04779Y02577*
X04776Y02573*
X04774Y02563*
Y02552*
X04776Y02542*
X04782Y02532*
X04789Y02525*
X04799Y02519*
X04809Y02517*
X0482*
X0483Y02519*
X0484Y02525*
X04847Y02532*
X04853Y02542*
X04855Y02552*
Y02563*
X04853Y02573*
X04847Y02583*
X04842Y02588*
X04844Y02593*
X0486*
X04879Y02574*
X04884Y0257*
X0489Y02569*
X04929*
Y02544*
X0501*
Y02625*
X04929*
Y026*
X04896*
X04878Y02619*
X04873Y02622*
X04867Y02623*
X04845*
X04843Y02628*
X04847Y02632*
X04853Y02642*
X04855Y02652*
Y02663*
X04853Y02673*
X04847Y02683*
X0484Y0269*
X0483Y02696*
X0482Y02698*
G37*
G36*
X03969Y0261D02*
X0394D01*
Y0258*
X03948Y02582*
X03956Y02586*
X03963Y02593*
X03967Y02601*
X03969Y0261*
G37*
G36*
X0393D02*
X039D01*
X03902Y02601*
X03906Y02593*
X03913Y02586*
X03921Y02582*
X0393Y0258*
Y0261*
G37*
G36*
X0429Y02539D02*
X0425D01*
Y0251*
X0429*
Y02539*
G37*
G36*
X0413D02*
X0409D01*
Y0251*
X0413*
Y02539*
G37*
G36*
X0424D02*
X04199D01*
Y0251*
X0424*
Y02539*
G37*
G36*
X0408D02*
X04039D01*
Y0251*
X0408*
Y02539*
G37*
G36*
X0429Y025D02*
X0425D01*
Y0247*
X0429*
Y025*
G37*
G36*
X0424D02*
X04199D01*
Y0247*
X0424*
Y025*
G37*
G36*
X0413D02*
X0409D01*
Y0247*
X0413*
Y025*
G37*
G36*
X0408D02*
X04039D01*
Y0247*
X0408*
Y025*
G37*
G36*
X0482Y02498D02*
X04809D01*
X04799Y02496*
X04789Y0249*
X04782Y02483*
X04776Y02473*
X04774Y02463*
Y02452*
X04776Y02442*
X04782Y02432*
X04789Y02425*
X04799Y02419*
X04809Y02417*
X0482*
X0483Y02419*
X0484Y02425*
X04847Y02432*
X04853Y02442*
X04855Y02452*
Y02463*
X04853Y02473*
X04847Y02483*
X0484Y0249*
X0483Y02496*
X0482Y02498*
G37*
G36*
X04479Y0252D02*
X0447D01*
X04461Y02517*
X04453Y02513*
X04446Y02506*
X04442Y02498*
X0444Y02489*
Y0248*
X04442Y02471*
X04446Y02463*
X04449Y0246*
X0445Y0246*
X04452Y02457*
X04453Y02455*
X04455Y02453*
X04456Y02451*
X04457Y0245*
X04457Y02449*
X04456Y02446*
X04454Y02444*
X04454Y02444*
X04436*
X04431Y02443*
X04427Y0244*
X04424Y02436*
X04423Y02431*
Y02413*
X04424Y02408*
X04427Y02404*
X04431Y02401*
X04436Y024*
X04483*
X04488Y02401*
X04492Y02404*
X04495Y02408*
X04496Y02413*
Y02431*
X04495Y02436*
X04492Y0244*
X0449Y02441*
Y02442*
X0449Y02444*
X0449Y02446*
X04491Y02448*
X04492Y0245*
X04493Y02451*
X04494Y02453*
X04496Y02455*
X04497Y02457*
X04499Y0246*
X045Y0246*
X04503Y02463*
X04507Y02471*
X0451Y0248*
Y02489*
X04507Y02498*
X04503Y02506*
X04496Y02513*
X04488Y02517*
X04479Y0252*
G37*
G36*
X0429Y02419D02*
X04199D01*
Y024*
X0413*
Y02419*
X04039*
Y0235*
X0413*
Y02369*
X04199*
Y0235*
X04249*
Y02317*
X04235Y02302*
X04233Y023*
X04232Y02299*
X04232Y02299*
X0423*
X04229Y02299*
X04229Y02299*
X04189*
Y0221*
X04254*
Y02275*
X04254Y02275*
X04254Y02275*
Y02277*
X04256Y0228*
X04275Y02299*
X04279Y02304*
X0428Y0231*
Y0235*
X0429*
Y02369*
X04345*
X04347Y02366*
X04351Y02364*
X04356Y02363*
X04403*
X04408Y02364*
X04412Y02366*
X04415Y02371*
X04416Y02376*
Y02393*
X04415Y02398*
X04412Y02403*
X04408Y02405*
X04403Y02406*
X04356*
X04351Y02405*
X04347Y02403*
X04345Y024*
X0429*
Y02419*
G37*
G36*
X0482Y02398D02*
X04809D01*
X04799Y02396*
X04789Y0239*
X04782Y02383*
X04776Y02373*
X04774Y02363*
Y02352*
X04776Y02342*
X04782Y02332*
X04789Y02325*
X04799Y02319*
X04809Y02317*
X0482*
X0483Y02319*
X0484Y02325*
X04847Y02332*
X04853Y02342*
X04855Y02352*
Y02363*
X04853Y02373*
X04847Y02383*
X0484Y0239*
X0483Y02396*
X0482Y02398*
G37*
G36*
X0382Y02395D02*
X03809D01*
X03799Y02393*
X03789Y02387*
X03782Y0238*
X03776Y0237*
X03774Y0236*
Y02349*
X03776Y02339*
X03782Y02329*
X03789Y02322*
X03799Y02316*
X03809Y02314*
X0382*
X0383Y02316*
X0384Y02322*
X03847Y02329*
X03853Y02339*
X03855Y02349*
Y0236*
X03853Y0237*
X03847Y0238*
X0384Y02387*
X0383Y02393*
X0382Y02395*
G37*
G36*
X0482Y02298D02*
X04809D01*
X04799Y02296*
X04789Y0229*
X04782Y02283*
X04776Y02273*
X04774Y02263*
Y02252*
X04776Y02242*
X04782Y02232*
X04789Y02225*
X04799Y02219*
X04809Y02217*
X0482*
X0483Y02219*
X0484Y02225*
X04847Y02232*
X04853Y02242*
X04855Y02252*
Y02263*
X04853Y02273*
X04847Y02283*
X0484Y0229*
X0483Y02296*
X0482Y02298*
G37*
G36*
X0382Y02295D02*
X03809D01*
X03799Y02293*
X03789Y02287*
X03782Y0228*
X03776Y0227*
X03774Y0226*
Y02249*
X03776Y02239*
X03782Y02229*
X03789Y02222*
X03799Y02216*
X03809Y02214*
X0382*
X0383Y02216*
X0384Y02222*
X03847Y02229*
X03853Y02239*
X03855Y02249*
Y0226*
X03853Y0227*
X03847Y0228*
X0384Y02287*
X0383Y02293*
X0382Y02295*
G37*
G36*
X03544Y03227D02*
X03535D01*
X03526Y03224*
X03518Y03219*
X03511Y03213*
X03506Y03205*
X03504Y03195*
Y03186*
X03506Y03177*
X03511Y03169*
X03518Y03162*
X03526Y03157*
X03535Y03155*
X03544*
X03553Y03157*
X03561Y03162*
X03564Y03165*
X03565Y03165*
X03567Y03168*
X03569Y03169*
X03571Y03171*
X03574Y03172*
X03576Y03173*
X03577Y03174*
X03579Y03175*
X03581Y03175*
X03583Y03175*
X03583Y03175*
X03617*
X03719Y03073*
Y02545*
X0372Y02539*
X03724Y02534*
X03764Y02494*
X03769Y0249*
X03775Y02489*
X03784*
X03786Y02484*
X03782Y0248*
X03776Y0247*
X03774Y0246*
Y02449*
X03776Y02439*
X03782Y02429*
X03789Y02422*
X03799Y02416*
X03809Y02414*
X0382*
X0383Y02416*
X0384Y02422*
X03847Y02429*
X03853Y02439*
X03855Y02449*
Y0246*
X03853Y0247*
X03849Y02476*
X03853Y02479*
X03864Y02468*
Y0241*
X03865Y02404*
X03869Y02399*
X04024Y02244*
X04029Y0224*
X04035Y02239*
X04075*
Y0221*
X0414*
Y02299*
X04075*
Y0227*
X04041*
X03895Y02416*
Y02475*
X03894Y0248*
X0389Y02485*
X0386Y02515*
X03855Y02519*
X0385Y0252*
X03845*
X03843Y02525*
X03847Y02529*
X03853Y02539*
X03855Y02549*
Y0256*
X03853Y0257*
X03847Y0258*
X0384Y02587*
X0383Y02593*
X0382Y02595*
X03809*
X03799Y02593*
X03789Y02587*
X03782Y0258*
X03776Y0257*
X03774Y0256*
Y02549*
X03776Y02539*
X03782Y02529*
X03785Y02527*
X03783Y02521*
X0378Y02521*
X0375Y02551*
Y0308*
X03749Y03085*
X03745Y0309*
X03634Y03202*
X03629Y03205*
X03623Y03206*
X03583*
X03583*
X03581Y03206*
X03579Y03207*
X03577Y03207*
X03576Y03208*
X03574Y03209*
X03571Y03211*
X03569Y03212*
X03567Y03214*
X03565Y03216*
X03564Y03217*
X03561Y03219*
X03553Y03224*
X03544Y03227*
G37*
G36*
X0482Y02198D02*
X04809D01*
X04799Y02196*
X04789Y0219*
X04782Y02183*
X04776Y02173*
X04774Y02163*
Y02152*
X04776Y02142*
X04782Y02132*
X04789Y02125*
X04799Y02119*
X04809Y02117*
X0482*
X0483Y02119*
X0484Y02125*
X04847Y02132*
X04853Y02142*
X04855Y02152*
Y02163*
X04853Y02173*
X04847Y02183*
X0484Y0219*
X0483Y02196*
X0482Y02198*
G37*
G36*
X0382Y02195D02*
X03809D01*
X03799Y02193*
X03789Y02187*
X03782Y0218*
X03776Y0217*
X03774Y0216*
Y02149*
X03776Y02139*
X03782Y02129*
X03789Y02122*
X03799Y02116*
X03809Y02114*
X0382*
X0383Y02116*
X0384Y02122*
X03847Y02129*
X03853Y02139*
X03855Y02149*
Y0216*
X03853Y0217*
X03847Y0218*
X0384Y02187*
X0383Y02193*
X0382Y02195*
G37*
G36*
X04464Y02275D02*
X04455D01*
X04446Y02272*
X04438Y02268*
X04431Y02261*
X04427Y02253*
X04425Y02244*
Y02235*
X04427Y02226*
X04431Y02218*
X04434Y02215*
X04435Y02215*
X04437Y02212*
X04438Y0221*
X0444Y02208*
X04441Y02206*
X04442Y02205*
X04443Y02203*
X04444Y02201*
X04444Y02199*
X04444Y02197*
Y02162*
X04345*
Y02128*
X04271*
X04266Y02127*
X04261Y02123*
X04234Y02097*
X0423Y02092*
X04229Y02086*
Y02076*
X04199*
Y02005*
X0429*
Y02076*
X04264*
X04262Y02081*
X04278Y02097*
X04345*
Y02063*
X04484*
Y02162*
X04475*
Y02197*
X04475Y02199*
X04475Y02201*
X04476Y02203*
X04477Y02205*
X04478Y02206*
X04479Y02208*
X04481Y0221*
X04482Y02212*
X04484Y02215*
X04485Y02215*
X04488Y02218*
X04492Y02226*
X04495Y02235*
Y02244*
X04492Y02253*
X04488Y02261*
X04481Y02268*
X04473Y02272*
X04464Y02275*
G37*
G36*
X0482Y02098D02*
X04809D01*
X04799Y02096*
X04789Y0209*
X04782Y02083*
X04776Y02073*
X04774Y02063*
Y02052*
X04776Y02042*
X04782Y02032*
X04789Y02025*
X04799Y02019*
X04809Y02017*
X0482*
X0483Y02019*
X0484Y02025*
X04847Y02032*
X04853Y02042*
X04855Y02052*
Y02063*
X04853Y02073*
X04847Y02083*
X0484Y0209*
X0483Y02096*
X0482Y02098*
G37*
G36*
X0382Y02095D02*
X03809D01*
X03799Y02093*
X03789Y02087*
X03782Y0208*
X03776Y0207*
X03774Y0206*
Y02049*
X03776Y02039*
X03782Y02029*
X03789Y02022*
X03799Y02016*
X03809Y02014*
X0382*
X0383Y02016*
X0384Y02022*
X03847Y02029*
X03853Y02039*
X03855Y02049*
Y0206*
X03853Y0207*
X03847Y0208*
X0384Y02087*
X0383Y02093*
X0382Y02095*
G37*
G36*
X0482Y01998D02*
X04809D01*
X04799Y01996*
X04789Y0199*
X04782Y01983*
X04776Y01973*
X04774Y01963*
Y01952*
X04776Y01942*
X04782Y01932*
X04789Y01925*
X04799Y01919*
X04809Y01917*
X0482*
X0483Y01919*
X0484Y01925*
X04847Y01932*
X04853Y01942*
X04855Y01952*
Y01963*
X04853Y01973*
X04847Y01983*
X0484Y0199*
X0483Y01996*
X0482Y01998*
G37*
G36*
X0382Y01995D02*
X03809D01*
X03799Y01993*
X03789Y01987*
X03782Y0198*
X03776Y0197*
X03774Y0196*
Y01949*
X03776Y01939*
X03782Y01929*
X03789Y01922*
X03799Y01916*
X03809Y01914*
X0382*
X0383Y01916*
X0384Y01922*
X03847Y01929*
X03853Y01939*
X03855Y01949*
Y0196*
X03853Y0197*
X03847Y0198*
X0384Y01987*
X0383Y01993*
X0382Y01995*
G37*
G36*
X04701Y02072D02*
X04548D01*
Y02001*
X04609*
Y01892*
X04609Y01892*
X04608Y01891*
X04606Y0189*
X04605Y0189*
X04604Y01889*
X04602Y01889*
X04601Y01889*
X046Y01889*
X04599Y0189*
X0459*
X04581Y01887*
X04577Y01885*
X04577Y01885*
X04576Y01885*
X04576Y01885*
X04575Y01885*
X04575Y01885*
X04574Y01886*
X04573Y01887*
X04568Y01891*
X04562Y01892*
X04484*
Y01926*
X04345*
Y01835*
X04291*
X0426Y01866*
Y01883*
X0429*
Y01954*
X04199*
Y01883*
X04229*
Y0186*
X0423Y01854*
X04234Y01849*
X04274Y01809*
X04279Y01805*
X04285Y01804*
X0456*
X04565Y01805*
X0457Y01809*
X04575Y01814*
X04577Y01815*
X04578Y01816*
X0458Y01817*
X04582Y01817*
X04584Y01818*
X04586Y01819*
X04589Y01819*
X04591Y01819*
X04594Y01819*
X04595Y0182*
X04599*
X04608Y01822*
X04616Y01826*
X04623Y01833*
X04627Y01841*
X0463Y0185*
Y01859*
X04629Y0186*
X04629Y01861*
X04629Y01862*
X04629Y01864*
X0463Y01865*
X0463Y01866*
X04631Y01868*
X04632Y01869*
X04633Y01871*
X04634Y01872*
X04635Y01874*
X04639Y01879*
X0464Y01885*
Y02001*
X04701*
Y02072*
G37*
G36*
X0482Y01898D02*
X04809D01*
X04799Y01896*
X04789Y0189*
X04782Y01883*
X04776Y01873*
X04774Y01863*
Y01852*
X04776Y01842*
X04782Y01832*
X04789Y01825*
X04799Y01819*
X04809Y01817*
X0482*
X0483Y01819*
X0484Y01825*
X04847Y01832*
X04853Y01842*
X04855Y01852*
Y01863*
X04853Y01873*
X04847Y01883*
X0484Y0189*
X0483Y01896*
X0482Y01898*
G37*
G36*
X0382Y01895D02*
X03809D01*
X03799Y01893*
X03789Y01887*
X03782Y0188*
X03776Y0187*
X03774Y0186*
Y01849*
X03776Y01839*
X03782Y01829*
X03789Y01822*
X03799Y01816*
X03809Y01814*
X0382*
X0383Y01816*
X0384Y01822*
X03847Y01829*
X03853Y01839*
X03855Y01849*
Y0186*
X03853Y0187*
X03847Y0188*
X0384Y01887*
X0383Y01893*
X0382Y01895*
G37*
G36*
X0482Y01798D02*
X04809D01*
X04799Y01796*
X04789Y0179*
X04782Y01783*
X04776Y01773*
X04774Y01763*
Y01752*
X04776Y01742*
X04782Y01732*
X04789Y01725*
X04799Y01719*
X04809Y01717*
X0482*
X0483Y01719*
X0484Y01725*
X04847Y01732*
X04853Y01742*
X04855Y01752*
Y01763*
X04853Y01773*
X04847Y01783*
X0484Y0179*
X0483Y01796*
X0482Y01798*
G37*
G36*
X0382Y01795D02*
X03809D01*
X03799Y01793*
X03789Y01787*
X03782Y0178*
X03776Y0177*
X03774Y0176*
Y01749*
X03776Y01739*
X03782Y01729*
X03789Y01722*
X03799Y01716*
X03809Y01714*
X0382*
X0383Y01716*
X0384Y01722*
X03847Y01729*
X03853Y01739*
X03855Y01749*
Y0176*
X03853Y0177*
X03847Y0178*
X0384Y01787*
X0383Y01793*
X0382Y01795*
G37*
G36*
X0469Y016D02*
X0469D01*
Y01565*
X04725*
Y01565*
X04723Y01575*
X04717Y01585*
X0471Y01592*
X047Y01598*
X0469Y016*
G37*
G36*
X0468D02*
X04679D01*
X04669Y01598*
X04659Y01592*
X04652Y01585*
X04646Y01575*
X04644Y01565*
Y01565*
X0468*
Y016*
G37*
G36*
X04025D02*
X0399D01*
Y01565*
X04025*
Y016*
G37*
G36*
X0398D02*
X03944D01*
Y01565*
X0398*
Y016*
G37*
G36*
X04725Y01555D02*
X0469D01*
Y01519*
X0469*
X047Y01521*
X0471Y01527*
X04717Y01534*
X04723Y01544*
X04725Y01554*
Y01555*
G37*
G36*
X0468D02*
X04644D01*
Y01554*
X04646Y01544*
X04652Y01534*
X04659Y01527*
X04669Y01521*
X04679Y01519*
X0468*
Y01555*
G37*
G36*
X0459Y016D02*
X04579D01*
X04569Y01598*
X04559Y01592*
X04552Y01585*
X04546Y01575*
X04544Y01565*
Y01554*
X04546Y01544*
X04552Y01534*
X04559Y01527*
X04569Y01521*
X04579Y01519*
X0459*
X046Y01521*
X0461Y01527*
X04617Y01534*
X04623Y01544*
X04625Y01554*
Y01565*
X04623Y01575*
X04617Y01585*
X0461Y01592*
X046Y01598*
X0459Y016*
G37*
G36*
X0449D02*
X04479D01*
X04469Y01598*
X04459Y01592*
X04452Y01585*
X04446Y01575*
X04444Y01565*
Y01554*
X04446Y01544*
X04452Y01534*
X04459Y01527*
X04469Y01521*
X04479Y01519*
X0449*
X045Y01521*
X0451Y01527*
X04517Y01534*
X04523Y01544*
X04525Y01554*
Y01565*
X04523Y01575*
X04517Y01585*
X0451Y01592*
X045Y01598*
X0449Y016*
G37*
G36*
X0439D02*
X04379D01*
X04369Y01598*
X04359Y01592*
X04352Y01585*
X04346Y01575*
X04344Y01565*
Y01554*
X04346Y01544*
X04352Y01534*
X04359Y01527*
X04369Y01521*
X04379Y01519*
X0439*
X044Y01521*
X0441Y01527*
X04417Y01534*
X04423Y01544*
X04425Y01554*
Y01565*
X04423Y01575*
X04417Y01585*
X0441Y01592*
X044Y01598*
X0439Y016*
G37*
G36*
X0429D02*
X04279D01*
X04269Y01598*
X04259Y01592*
X04252Y01585*
X04246Y01575*
X04244Y01565*
Y01554*
X04246Y01544*
X04252Y01534*
X04259Y01527*
X04269Y01521*
X04279Y01519*
X0429*
X043Y01521*
X0431Y01527*
X04317Y01534*
X04323Y01544*
X04325Y01554*
Y01565*
X04323Y01575*
X04317Y01585*
X0431Y01592*
X043Y01598*
X0429Y016*
G37*
G36*
X0419D02*
X04179D01*
X04169Y01598*
X04159Y01592*
X04152Y01585*
X04146Y01575*
X04144Y01565*
Y01554*
X04146Y01544*
X04152Y01534*
X04159Y01527*
X04169Y01521*
X04179Y01519*
X0419*
X042Y01521*
X0421Y01527*
X04217Y01534*
X04223Y01544*
X04225Y01554*
Y01565*
X04223Y01575*
X04217Y01585*
X0421Y01592*
X042Y01598*
X0419Y016*
G37*
G36*
X0409D02*
X04079D01*
X04069Y01598*
X04059Y01592*
X04052Y01585*
X04046Y01575*
X04044Y01565*
Y01554*
X04046Y01544*
X04052Y01534*
X04059Y01527*
X04069Y01521*
X04079Y01519*
X0409*
X041Y01521*
X0411Y01527*
X04117Y01534*
X04123Y01544*
X04125Y01554*
Y01565*
X04123Y01575*
X04117Y01585*
X0411Y01592*
X041Y01598*
X0409Y016*
G37*
G36*
X04025Y01555D02*
X0399D01*
Y01519*
X04025*
Y01555*
G37*
G36*
X0398D02*
X03944D01*
Y01519*
X0398*
Y01555*
G37*
G36*
X05041Y01305D02*
X05028D01*
X05014Y01302*
X05001Y01297*
X0499Y01289*
X0498Y01279*
X04972Y01268*
X04967Y01255*
X04965Y01241*
Y01228*
X04967Y01214*
X04972Y01201*
X0498Y0119*
X0499Y0118*
X05001Y01172*
X05014Y01167*
X05028Y01165*
X05041*
X05055Y01167*
X05068Y01172*
X05079Y0118*
X05089Y0119*
X05097Y01201*
X05102Y01214*
X05105Y01228*
Y01241*
X05102Y01255*
X05097Y01268*
X05089Y01279*
X05079Y01289*
X05068Y01297*
X05055Y01302*
X05041Y01305*
G37*
G36*
X03821D02*
X03808D01*
X03794Y01302*
X03781Y01297*
X0377Y01289*
X0376Y01279*
X03752Y01268*
X03747Y01255*
X03745Y01241*
Y01228*
X03747Y01214*
X03752Y01201*
X0376Y0119*
X0377Y0118*
X03781Y01172*
X03794Y01167*
X03808Y01165*
X03821*
X03835Y01167*
X03848Y01172*
X03859Y0118*
X03869Y0119*
X03877Y01201*
X03882Y01214*
X03885Y01228*
Y01241*
X03882Y01255*
X03877Y01268*
X03869Y01279*
X03859Y01289*
X03848Y01297*
X03835Y01302*
X03821Y01305*
G37*
%LNpcb1-3*%
%LPD*%
G36*
X04658Y0422D02*
X04658Y04221D01*
X04658Y04221*
X04658Y04222*
X04657Y04222*
X04656Y04223*
X04655Y04223*
X04654Y04224*
X04652Y04224*
X04651Y04224*
X04649Y04224*
Y04234*
X04651Y04234*
X04652Y04234*
X04654Y04234*
X04655Y04235*
X04656Y04235*
X04657Y04236*
X04658Y04236*
X04658Y04237*
X04658Y04237*
X04658Y04238*
Y0422*
G37*
G36*
X04179Y04101D02*
X04178Y041D01*
X04177Y041*
X04176Y04099*
X04176Y04098*
X04175Y04097*
X04175Y04096*
X04175Y04094*
X04175Y04093*
X04175Y04091*
X04165*
X04164Y04093*
X04164Y04094*
X04164Y04096*
X04164Y04097*
X04163Y04098*
X04163Y04099*
X04162Y041*
X04161Y041*
X0416Y04101*
X0416Y04101*
X0418*
X04179Y04101*
G37*
G36*
X04376Y03601D02*
X04375Y03602D01*
X04374Y03602*
X04373*
X04372Y03602*
X04371Y03601*
X04369Y036*
X04368Y03599*
X04366Y03598*
X04362Y03594*
X04355Y03601*
X04357Y03603*
X0436Y03607*
X04361Y03609*
X04362Y0361*
X04362Y03611*
X04363Y03613*
Y03614*
X04362Y03615*
X04362Y03615*
X04376Y03601*
G37*
G36*
X04319Y03531D02*
X04319Y0353D01*
X04319Y03528*
X04319Y03527*
X0432Y03526*
X0432Y03525*
X04321Y03524*
X04322Y03524*
X04323Y03523*
X04323Y03523*
X04303*
X04304Y03523*
X04305Y03524*
X04306Y03524*
X04307Y03525*
X04307Y03526*
X04308Y03527*
X04308Y03528*
X04308Y0353*
X04308Y03531*
X04308Y03533*
X04318*
X04319Y03531*
G37*
G36*
X04248Y03488D02*
X04247Y03489D01*
X04247Y0349*
X04247Y0349*
X04246Y03491*
X04245Y03492*
X04244Y03492*
X04243Y03492*
X04241Y03493*
X04239Y03493*
X04238Y03493*
Y03503*
X04239Y03503*
X04241Y03503*
X04243Y03503*
X04244Y03504*
X04245Y03504*
X04246Y03505*
X04247Y03505*
X04247Y03506*
X04247Y03507*
X04248Y03508*
Y03488*
G37*
G36*
X04131Y03507D02*
X04131Y03506D01*
X04131Y03505*
X04132Y03505*
X04133Y03504*
X04134Y03504*
X04135Y03503*
X04137Y03503*
X04139Y03503*
X0414Y03503*
Y03493*
X04139Y03493*
X04137Y03493*
X04135Y03492*
X04134Y03492*
X04133Y03492*
X04132Y03491*
X04131Y0349*
X04131Y0349*
X04131Y03489*
X0413Y03488*
Y03508*
X04131Y03507*
G37*
G36*
X03999Y03488D02*
X03999Y03489D01*
X03998Y0349*
X03998Y0349*
X03997Y03491*
X03996Y03492*
X03995Y03492*
X03994Y03492*
X03992Y03493*
X03991Y03493*
X03989Y03493*
Y03503*
X03991Y03503*
X03992Y03503*
X03994Y03503*
X03995Y03504*
X03996Y03504*
X03997Y03505*
X03998Y03505*
X03998Y03506*
X03999Y03507*
X03999Y03508*
Y03488*
G37*
G36*
X03575Y03377D02*
X03573Y03375D01*
X03572Y03373*
X0357Y0337*
X03569Y03368*
X03568Y03365*
X03567Y03362*
X03566Y03359*
X03566Y03355*
X03565Y03352*
X03565Y03349*
X0354Y03374*
X03543Y03374*
X03547Y03374*
X0355Y03375*
X03553Y03376*
X03556Y03376*
X03559Y03378*
X03561Y03379*
X03564Y0338*
X03566Y03382*
X03568Y03384*
X03575Y03377*
G37*
G36*
X04373Y03879D02*
X04372Y03879D01*
X04371Y03879*
X04371Y03878*
X0437Y03878*
X04369Y03877*
X04369Y03876*
X04369Y03874*
X04368Y03872*
X04368Y0387*
X04368Y03868*
X04358Y03869*
X04358Y03872*
X04358Y03875*
X04357Y03877*
X04357Y03878*
X04356Y0388*
X04356Y0388*
X04355Y03881*
X04354Y03882*
X04353Y03882*
X04373Y03879*
G37*
G36*
X04495Y03676D02*
X04495Y03674D01*
X04495Y03673*
X04495Y03671*
X04496Y0367*
X04496Y03669*
X04497Y03669*
X04498Y03668*
X04499Y03668*
X045Y03668*
X0448*
X0448Y03668*
X04481Y03668*
X04482Y03669*
X04483Y03669*
X04483Y0367*
X04484Y03671*
X04484Y03673*
X04484Y03674*
X04484Y03676*
X04485Y03678*
X04495*
X04495Y03676*
G37*
G36*
X04507Y03615D02*
X04506Y03614D01*
X04506Y03613*
X04507Y03611*
X04507Y0361*
X04508Y03609*
X04509Y03607*
X04511Y03605*
X04514Y03601*
X04507Y03594*
X04505Y03596*
X04501Y03599*
X045Y036*
X04498Y03601*
X04497Y03602*
X04496Y03602*
X04495Y03602*
X04494Y03602*
X04493Y03601*
X04507Y03615*
X04507Y03615*
G37*
G36*
X04565Y03531D02*
X04565Y0353D01*
X04565Y03528*
X04565Y03527*
X04566Y03526*
X04566Y03525*
X04567Y03524*
X04568Y03524*
X04569Y03523*
X0457Y03523*
X0455*
X0455Y03523*
X04551Y03524*
X04552Y03524*
X04553Y03525*
X04553Y03526*
X04554Y03527*
X04554Y03528*
X04554Y0353*
X04554Y03531*
X04555Y03533*
X04565*
X04565Y03531*
G37*
G36*
X04841Y03475D02*
X04844Y03472D01*
X04847Y03469*
X0485Y03467*
X04853Y03465*
X04857Y03464*
X0486Y03463*
X04863Y03462*
X04867Y03461*
X0487Y03461*
X04869Y03451*
X04866Y03451*
X04863Y0345*
X04859Y0345*
X04856Y03448*
X04853Y03447*
X04849Y03445*
X04846Y03443*
X04842Y03441*
X04839Y03438*
X04836Y03435*
X04838Y03478*
X04841Y03475*
G37*
G36*
X04936Y03434D02*
X04933Y03437D01*
X0493Y0344*
X04927Y03443*
X04924Y03445*
X04921Y03447*
X04917Y03448*
X04914Y03449*
X04911Y0345*
X04907Y03451*
X04904Y03451*
X04905Y03461*
X04908Y03461*
X04911Y03462*
X04915Y03462*
X04918Y03464*
X04921Y03465*
X04925Y03467*
X04928Y03469*
X04932Y03471*
X04935Y03474*
X04938Y03477*
X04936Y03434*
G37*
G36*
X04978Y03429D02*
X04975Y03426D01*
X04973Y03423*
X0497Y03419*
X04969Y03416*
X04967Y03413*
X04966Y03409*
X04965Y03406*
X04965Y03403*
X04965Y03399*
X04955*
X04954Y03403*
X04954Y03406*
X04953Y03409*
X04952Y03413*
X0495Y03416*
X04949Y03419*
X04946Y03423*
X04944Y03426*
X04941Y03429*
X04938Y03432*
X04981*
X04978Y03429*
G37*
G36*
X04965Y03356D02*
X04965Y03355D01*
X04965Y03353*
X04965Y03352*
X04966Y03351*
X04966Y0335*
X04967Y03349*
X04968Y03349*
X04969Y03348*
X0497Y03348*
X0495*
X0495Y03348*
X04951Y03349*
X04952Y03349*
X04953Y0335*
X04953Y03351*
X04954Y03352*
X04954Y03353*
X04954Y03355*
X04954Y03356*
X04955Y03358*
X04965*
X04965Y03356*
G37*
G36*
X04511Y03256D02*
X0451Y03256D01*
X04509Y03256*
X04508*
X04507Y03256*
X04505Y03256*
X04504Y03255*
X04502Y03254*
X045Y03252*
X04496Y03249*
X04489Y03256*
X04491Y03258*
X04494Y03261*
X04496Y03263*
X04496Y03264*
X04497Y03266*
X04497Y03267*
Y03268*
X04497Y03269*
X04496Y0327*
X04511Y03256*
G37*
G36*
X04329Y03256D02*
X04328Y03255D01*
X04327Y03255*
X04326Y03254*
X04326Y03253*
X04325Y03252*
X04325Y03251*
X04325Y03249*
X04325Y03248*
X04325Y03246*
X04315*
X04314Y03248*
X04314Y03249*
X04314Y03251*
X04314Y03252*
X04313Y03253*
X04313Y03254*
X04312Y03255*
X04311Y03255*
X0431Y03256*
X0431Y03256*
X0433*
X04329Y03256*
G37*
G36*
X04325Y03211D02*
X04325Y03208D01*
X04326Y03206*
X04327Y03203*
X04328Y032*
X04329Y03198*
X04331Y03195*
X04333Y03192*
X04335Y0319*
X04337Y03187*
X04302*
X04304Y0319*
X04307Y03192*
X04308Y03195*
X0431Y03198*
X04311Y032*
X04313Y03203*
X04313Y03206*
X04314Y03208*
X04314Y03211*
X04315Y03214*
X04325*
X04325Y03211*
G37*
G36*
X0434Y03185D02*
X04342Y03183D01*
X04345Y03181*
X04348Y03179*
X0435Y03178*
X04353Y03177*
X04356Y03176*
X04358Y03175*
X04361Y03175*
X04364Y03175*
Y03165*
X04361Y03164*
X04358Y03164*
X04356Y03163*
X04353Y03163*
X0435Y03161*
X04348Y0316*
X04345Y03158*
X04342Y03157*
X0434Y03154*
X04337Y03152*
Y03187*
X0434Y03185*
G37*
G36*
X04434Y02929D02*
X04433Y02928D01*
X04432Y02928*
X04431Y02927*
X04431Y02926*
X0443Y02925*
X0443Y02924*
X0443Y02922*
X0443Y02921*
X0443Y02919*
X0442*
X04419Y02921*
X04419Y02922*
X04419Y02924*
X04419Y02925*
X04418Y02926*
X04418Y02927*
X04417Y02928*
X04416Y02928*
X04415Y02929*
X04415Y02929*
X04435*
X04434Y02929*
G37*
G36*
X0443Y02836D02*
X0443Y02835D01*
X0443Y02833*
X0443Y02832*
X04431Y02831*
X04431Y0283*
X04432Y02829*
X04433Y02829*
X04434Y02828*
X04435Y02828*
X04415*
X04415Y02828*
X04416Y02829*
X04417Y02829*
X04418Y0283*
X04418Y02831*
X04419Y02832*
X04419Y02833*
X04419Y02835*
X04419Y02836*
X0442Y02838*
X0443*
X0443Y02836*
G37*
G36*
X04979Y03081D02*
X04978Y0308D01*
X04977Y0308*
X04976Y03079*
X04976Y03078*
X04975Y03077*
X04975Y03076*
X04975Y03074*
X04975Y03073*
X04975Y03071*
X04965*
X04964Y03073*
X04964Y03074*
X04964Y03076*
X04964Y03077*
X04963Y03078*
X04963Y03079*
X04962Y0308*
X04961Y0308*
X0496Y03081*
X0496Y03081*
X0498*
X04979Y03081*
G37*
G36*
X04975Y02736D02*
X04975Y02733D01*
X04976Y0273*
X04977Y02726*
X04979Y02723*
X0498Y0272*
X04983Y02716*
X04985Y02713*
X04988Y0271*
X04991Y02707*
X04948*
X04951Y0271*
X04954Y02713*
X04956Y02716*
X04959Y0272*
X0496Y02723*
X04962Y02726*
X04963Y0273*
X04964Y02733*
X04964Y02736*
X04965Y0274*
X04975*
X04975Y02736*
G37*
G36*
X04939Y02575D02*
X04939Y02575D01*
X04938Y02576*
X04938Y02577*
X04937Y02578*
X04936Y02578*
X04935Y02579*
X04934Y02579*
X04932Y02579*
X04931Y02579*
X04929Y0258*
Y0259*
X04931Y0259*
X04932Y0259*
X04934Y0259*
X04935Y0259*
X04936Y02591*
X04937Y02591*
X04938Y02592*
X04938Y02593*
X04939Y02594*
X04939Y02595*
Y02575*
G37*
G36*
X04678Y02592D02*
X04678Y02591D01*
X04678Y02591*
X04679Y0259*
X0468Y0259*
X04681Y02589*
X04682Y02589*
X04684Y02588*
X04686Y02588*
X04688Y02588*
Y02578*
X04686Y02578*
X04684Y02578*
X04682Y02578*
X04681Y02577*
X0468Y02577*
X04679Y02576*
X04678Y02576*
X04678Y02575*
X04678Y02574*
X04677Y02573*
Y02593*
X04678Y02592*
G37*
G36*
X0449Y02561D02*
X0449Y02561D01*
X0449Y0256*
X0449Y0256*
X0449Y02559*
X0449Y02554*
X0448*
X0448Y02555*
X0448Y02558*
X0448Y02559*
X04479Y0256*
X04479Y0256*
X04479Y0256*
X04479Y02561*
X04478Y02561*
X0449Y02561*
G37*
G36*
X04624Y02561D02*
X04623Y0256D01*
X04622Y0256*
X04621Y02559*
X04621Y02558*
X0462Y02557*
X0462Y02556*
X0462Y02554*
X0462Y02553*
X0462Y02551*
X0461*
X04609Y02553*
X04609Y02554*
X04609Y02556*
X04609Y02557*
X04608Y02558*
X04608Y02559*
X04607Y0256*
X04606Y0256*
X04605Y02561*
X04605Y02561*
X04625*
X04624Y02561*
G37*
G36*
X0462Y0248D02*
X0462Y02479D01*
X0462Y02477*
X0462Y02476*
X04621Y02475*
X04621Y02474*
X04622Y02473*
X04623Y02473*
X04624Y02472*
X04625Y02472*
X04605*
X04605Y02472*
X04606Y02473*
X04607Y02473*
X04608Y02474*
X04608Y02475*
X04609Y02476*
X04609Y02477*
X04609Y02479*
X04609Y0248*
X0461Y02482*
X0462*
X0462Y0248*
G37*
G36*
X04485Y02356D02*
X04485Y02355D01*
X04486Y02355*
X04487Y02354*
X04488Y02353*
X04489Y02353*
X0449Y02353*
X04492Y02352*
X04493Y02352*
X04495Y02352*
Y02342*
X04493Y02342*
X04492Y02342*
X0449Y02342*
X04489Y02341*
X04488Y02341*
X04487Y0234*
X04486Y0234*
X04485Y02339*
X04485Y02338*
X04485Y02337*
Y02357*
X04485Y02356*
G37*
G36*
X04586Y02337D02*
X04586Y02338D01*
X04586Y02339*
X04585Y0234*
X04585Y0234*
X04584Y02341*
X04583Y02341*
X04581Y02342*
X0458Y02342*
X04578Y02342*
X04576Y02342*
Y02352*
X04578Y02352*
X0458Y02352*
X04581Y02353*
X04583Y02353*
X04584Y02353*
X04585Y02354*
X04585Y02355*
X04586Y02355*
X04586Y02356*
X04586Y02357*
Y02337*
G37*
G36*
X04634Y02327D02*
X04633Y02326D01*
X04632Y02326*
X04631Y02325*
X04631Y02324*
X0463Y02323*
X0463Y02322*
X0463Y0232*
X0463Y02319*
X0463Y02317*
X0462*
X04619Y02319*
X04619Y0232*
X04619Y02322*
X04619Y02323*
X04618Y02324*
X04618Y02325*
X04617Y02326*
X04616Y02326*
X04615Y02327*
X04615Y02327*
X04635*
X04634Y02327*
G37*
G36*
X0463Y02286D02*
X0463Y02285D01*
X0463Y02283*
X0463Y02282*
X04631Y02281*
X04631Y0228*
X04632Y02279*
X04633Y02279*
X04634Y02278*
X04635Y02278*
X04615*
X04615Y02278*
X04616Y02279*
X04617Y02279*
X04618Y0228*
X04618Y02281*
X04619Y02282*
X04619Y02283*
X04619Y02285*
X04619Y02286*
X0462Y02288*
X0463*
X0463Y02286*
G37*
G36*
X0449Y02464D02*
X04488Y02462D01*
X04486Y02459*
X04484Y02457*
X04483Y02454*
X04482Y02451*
X04481Y02448*
X0448Y02446*
X0448Y02443*
X0448Y02441*
X0448Y0244*
X0448Y02438*
X0448Y02437*
X04481Y02435*
X04481Y02434*
X04482Y02434*
X04483Y02433*
X04484Y02433*
X04484Y02433*
X04465Y02433*
X04465Y02433*
X04466Y02434*
X04467Y02434*
X04468Y02435*
X04468Y02436*
X04469Y02437*
X04469Y02438*
X04469Y0244*
X04469Y02441*
X04469Y02443*
X04469Y02446*
X04468Y02448*
X04468Y02451*
X04466Y02454*
X04465Y02457*
X04463Y02459*
X04462Y02462*
X04459Y02464*
X04457Y02467*
X04492*
X0449Y02464*
G37*
G36*
X04354Y02375D02*
X04354Y02376D01*
X04354Y02376*
X04353Y02377*
X04352Y02378*
X04351Y02378*
X0435Y02379*
X04349Y02379*
X04347Y02379*
X04346Y02379*
X04344Y0238*
Y0239*
X04346Y0239*
X04347Y0239*
X04349Y0239*
X0435Y0239*
X04351Y02391*
X04352Y02391*
X04353Y02392*
X04354Y02393*
X04354Y02394*
X04354Y02394*
Y02375*
G37*
G36*
X0428Y02394D02*
X0428Y02393D01*
X04281Y02392*
X04281Y02391*
X04282Y02391*
X04283Y0239*
X04285Y0239*
X04286Y0239*
X04288Y0239*
X0429Y0239*
Y0238*
X04288Y02379*
X04286Y02379*
X04285Y02379*
X04283Y02379*
X04282Y02378*
X04281Y02378*
X04281Y02377*
X0428Y02376*
X0428Y02375*
X0428Y02375*
Y02395*
X0428Y02394*
G37*
G36*
X04209Y02374D02*
X04209Y02375D01*
X04209Y02376*
X04208Y02377*
X04208Y02378*
X04207Y02378*
X04206Y02379*
X04204Y02379*
X04203Y02379*
X04201Y02379*
X04199Y02379*
Y02389*
X04201Y0239*
X04203Y0239*
X04204Y0239*
X04206Y0239*
X04207Y02391*
X04208Y02391*
X04208Y02392*
X04209Y02393*
X04209Y02394*
X04209Y02394*
Y02374*
G37*
G36*
X0412Y02394D02*
X0412Y02393D01*
X04121Y02392*
X04121Y02391*
X04122Y02391*
X04123Y0239*
X04125Y0239*
X04126Y0239*
X04128Y0239*
X0413Y02389*
Y02379*
X04128Y02379*
X04126Y02379*
X04125Y02379*
X04123Y02379*
X04122Y02378*
X04121Y02378*
X04121Y02377*
X0412Y02376*
X0412Y02375*
X0412Y02374*
Y02394*
X0412Y02394*
G37*
G36*
X04274Y0236D02*
X04273Y0236D01*
X04272Y02359*
X04271Y02358*
X04271Y02358*
X0427Y02356*
X0427Y02355*
X0427Y02354*
X0427Y02352*
X0427Y0235*
X0426*
X04259Y02352*
X04259Y02354*
X04259Y02355*
X04259Y02356*
X04258Y02358*
X04258Y02358*
X04257Y02359*
X04256Y0236*
X04255Y0236*
X04255Y0236*
X04275*
X04274Y0236*
G37*
G36*
X04251Y02289D02*
X04249Y02287D01*
X04245Y02283*
X04244Y02282*
X04244Y0228*
X04243Y02279*
X04243Y02278*
Y02277*
X04243Y02276*
X04244Y02275*
X04229Y02289*
X0423Y02289*
X04231Y02288*
X04232*
X04233Y02289*
X04235Y02289*
X04236Y0229*
X04238Y02291*
X0424Y02293*
X04244Y02296*
X04251Y02289*
G37*
G36*
X0356Y03206D02*
X03563Y03204D01*
X03566Y03202*
X03568Y032*
X03571Y03199*
X03574Y03198*
X03577Y03197*
X0358Y03196*
X03582Y03196*
X03585Y03196*
Y03186*
X03582Y03186*
X0358Y03185*
X03577Y03185*
X03574Y03184*
X03571Y03183*
X03568Y03181*
X03566Y03179*
X03563Y03177*
X0356Y03175*
X03558Y03173*
Y03209*
X0356Y03206*
G37*
G36*
X04086Y02245D02*
X04086Y02245D01*
X04085Y02246*
X04085Y02247*
X04084Y02248*
X04083Y02248*
X04082Y02249*
X04081Y02249*
X04079Y02249*
X04077Y02249*
X04075Y0225*
Y0226*
X04077Y0226*
X04079Y0226*
X04081Y0226*
X04082Y0226*
X04083Y02261*
X04084Y02261*
X04085Y02262*
X04085Y02263*
X04086Y02264*
X04086Y02265*
Y02245*
G37*
G36*
X04475Y02219D02*
X04473Y02217D01*
X04471Y02214*
X04469Y02212*
X04468Y02209*
X04467Y02206*
X04466Y02203*
X04465Y02201*
X04465Y02198*
X04465Y02195*
X04455*
X04454Y02198*
X04454Y02201*
X04453Y02203*
X04453Y02206*
X04451Y02209*
X0445Y02212*
X04448Y02214*
X04447Y02217*
X04444Y02219*
X04442Y02222*
X04477*
X04475Y02219*
G37*
G36*
X04465Y0216D02*
X04465Y02158D01*
X04465Y02157*
X04465Y02155*
X04466Y02154*
X04466Y02153*
X04467Y02153*
X04468Y02152*
X04469Y02152*
X0447Y02152*
X0445*
X0445Y02152*
X04451Y02152*
X04452Y02153*
X04453Y02153*
X04453Y02154*
X04454Y02155*
X04454Y02157*
X04454Y02158*
X04454Y0216*
X04455Y02162*
X04465*
X04465Y0216*
G37*
G36*
X04356Y02103D02*
X04356Y02104D01*
X04355Y02104*
X04355Y02105*
X04354Y02106*
X04353Y02106*
X04352Y02107*
X04351Y02107*
X04349Y02107*
X04347Y02108*
X04346Y02108*
Y02118*
X04347Y02118*
X04349Y02118*
X04351Y02118*
X04352Y02118*
X04353Y02119*
X04354Y02119*
X04355Y0212*
X04355Y02121*
X04356Y02122*
X04356Y02123*
Y02103*
G37*
G36*
X0425Y02074D02*
X0425Y02072D01*
X0425Y02071*
X0425Y0207*
X04251Y02068*
X04251Y02068*
X04252Y02067*
X04253Y02066*
X04254Y02066*
X04255Y02066*
X04235*
X04235Y02066*
X04236Y02066*
X04237Y02067*
X04238Y02068*
X04238Y02068*
X04239Y0207*
X04239Y02071*
X04239Y02072*
X04239Y02074*
X0424Y02076*
X0425*
X0425Y02074*
G37*
G36*
X04634Y02011D02*
X04633Y0201D01*
X04632Y0201*
X04631Y02009*
X04631Y02008*
X0463Y02007*
X0463Y02006*
X0463Y02004*
X0463Y02003*
X0463Y02001*
X0462*
X04619Y02003*
X04619Y02004*
X04619Y02006*
X04619Y02007*
X04618Y02008*
X04618Y02009*
X04617Y0201*
X04616Y0201*
X04615Y02011*
X04615Y02011*
X04635*
X04634Y02011*
G37*
G36*
X04254Y01893D02*
X04253Y01893D01*
X04252Y01892*
X04251Y01892*
X04251Y01891*
X0425Y01889*
X0425Y01888*
X0425Y01887*
X0425Y01885*
X0425Y01883*
X0424*
X04239Y01885*
X04239Y01887*
X04239Y01888*
X04239Y01889*
X04238Y01891*
X04238Y01892*
X04237Y01892*
X04236Y01893*
X04235Y01893*
X04235Y01893*
X04255*
X04254Y01893*
G37*
G36*
X04628Y01881D02*
X04626Y01879D01*
X04624Y01877*
X04623Y01875*
X04622Y01872*
X04621Y0187*
X0462Y01868*
X04619Y01865*
X04619Y01863*
X04619Y0186*
X04619Y01858*
X04598Y01879*
X046Y01879*
X04603Y01879*
X04605Y01879*
X04608Y0188*
X0461Y01881*
X04612Y01882*
X04615Y01883*
X04617Y01884*
X04619Y01886*
X04621Y01888*
X04628Y01881*
G37*
G36*
X04474Y01885D02*
X04474Y01885D01*
X04474Y01884*
X04475Y01883*
X04476Y01883*
X04477Y01882*
X04478Y01882*
X0448Y01882*
X04482Y01881*
X04483Y01881*
Y01871*
X04482Y01871*
X0448Y01871*
X04478Y01871*
X04477Y01871*
X04476Y0187*
X04475Y0187*
X04474Y01869*
X04474Y01868*
X04474Y01867*
X04473Y01866*
Y01886*
X04474Y01885*
G37*
G36*
X04567Y01878D02*
X04569Y01877D01*
X0457Y01876*
X04572Y01875*
X04574Y01875*
X04575Y01874*
X04577Y01874*
X04578Y01875*
X0458Y01875*
X04581Y01876*
X0457Y01854*
X04594Y0183*
X04591Y01829*
X04588Y01829*
X04584Y01829*
X04581Y01828*
X04579Y01827*
X04576Y01826*
X04573Y01825*
X04571Y01823*
X04569Y01821*
X04567Y0182*
X0456Y01827*
X04561Y01829*
X04563Y01831*
X04565Y01833*
X04566Y01836*
X04567Y01839*
X04568Y01841*
X04569Y01844*
X04569Y01848*
X04569Y01851*
X04569Y01853*
X04569Y01855*
X04569Y01857*
X04568Y01859*
X04567Y01861*
X04566Y01863*
X04565Y01865*
X04564Y01867*
X04562Y01869*
X04558Y01873*
X04565Y0188*
X04567Y01878*
G37*
G54D14*
X0419Y04055D02*
X04475D01*
X04649Y04229*
X0417Y04075D02*
X0419Y04055D01*
X04649Y04229D02*
X04689D01*
X047Y04239*
X0417Y04075D02*
Y04108D01*
X04166Y04111D02*
X0417Y04108D01*
X0449Y03619D02*
Y0373D01*
X04363Y03851D02*
X04485Y0373D01*
X04363Y03851D02*
Y03915D01*
X04485Y0373D02*
X0449D01*
X04867Y02608D02*
X0489Y02585D01*
X04781Y02608D02*
X04867D01*
X04756Y02583D02*
X04781Y02608D01*
X0489Y02585D02*
X0497D01*
X04615Y02583D02*
X04756D01*
X04245Y0186D02*
X04285Y0182D01*
X0456*
X04245Y0186D02*
Y01918D01*
Y02041D02*
Y02086D01*
X0497Y02685D02*
Y0309D01*
X04965Y03095D02*
X0497Y0309D01*
X04965Y03095D02*
Y03106D01*
X04425Y02803D02*
Y02981D01*
X04411Y02995D02*
X04425Y02981D01*
X04601Y02348D02*
Y02355D01*
X0456Y02457D02*
Y0248D01*
Y0239D02*
Y02457D01*
X04459Y02347D02*
X04601D01*
Y02348D02*
X0462D01*
X04591Y02365D02*
X04601Y02355D01*
X0456Y0239D02*
X04584Y02365D01*
X04485Y02554D02*
X0456Y0248D01*
X04584Y02365D02*
X04591D01*
X04464Y02586D02*
X04485Y02566D01*
X04425Y02586D02*
X04464D01*
X04485Y02554D02*
Y02566D01*
X04475Y02429D02*
Y02485D01*
X04459Y02422D02*
X04468D01*
X04475Y02429*
X04615Y02456D02*
X0462Y02451D01*
X04615Y02456D02*
Y02583D01*
X04271Y02113D02*
X04415D01*
X04245Y02086D02*
X04271Y02113D01*
X04415D02*
X04425D01*
X0446Y02147*
Y0224*
X04625Y01885D02*
Y02036D01*
X04595Y01855D02*
X04625Y01885D01*
X0456Y0182D02*
X04595Y01855D01*
X04562Y01876D02*
X04584Y01855D01*
X04415Y01876D02*
X04562D01*
X04584Y01855D02*
X04595D01*
X0441Y0317D02*
X04519Y03278D01*
X0432Y0317D02*
X0441D01*
X04519Y03278D02*
X0456D01*
X0432Y0317D02*
Y03275D01*
X04313Y03281D02*
X0432Y03275D01*
X036Y03409D02*
X03834D01*
X0354Y03348D02*
X036Y03409D01*
X03834D02*
X03923Y03498D01*
X04065*
X04035Y02255D02*
X04108D01*
X0388Y0241D02*
Y02475D01*
Y0241D02*
X04035Y02255D01*
X0385Y02505D02*
X0388Y02475D01*
X03775Y02505D02*
X0385D01*
X03735Y02545D02*
X03775Y02505D01*
X03735Y02545D02*
Y0308D01*
X03623Y03191D02*
X03735Y0308D01*
X0354Y03191D02*
X03623D01*
X04245Y02384D02*
X04245D01*
X04265Y02365*
Y0231D02*
Y02365D01*
X04221Y02255D02*
Y02267D01*
X04265Y0231*
X04085Y02384D02*
X04245D01*
X04245Y02385D02*
X0438D01*
X04245Y02384D02*
X04245Y02385D01*
X04625Y02253D02*
Y02343D01*
X0496Y03328D02*
Y03455D01*
Y03328D02*
X04965Y03323D01*
X04816Y03456D02*
X04958D01*
X0496Y03455*
X04815Y03457D02*
X04816Y03456D01*
X04065Y03498D02*
X04313D01*
Y03553D02*
X04383Y03623D01*
Y03635*
X04313Y03498D02*
Y03553D01*
X0449Y03619D02*
X0456Y03549D01*
Y03501D02*
Y03549D01*
G54D16*
X04965Y03106D03*
Y03323D03*
X04313Y03281D03*
Y03498D03*
X04625Y02036D03*
Y02253D03*
X04425Y02586D03*
Y02803D03*
X04065Y03498D03*
Y03281D03*
G54D17*
X04383Y03635D03*
X04486D03*
G54D18*
X0456Y03278D03*
Y03501D03*
X04615Y02583D03*
Y02806D03*
G54D19*
X04221Y02255D03*
X04108D03*
G54D20*
X0462Y02348D03*
Y02451D03*
G54D21*
X04459Y02347D03*
Y02422D03*
X0438Y02385D03*
G54D22*
X04415Y02113D03*
Y01876D03*
G54D23*
X04245Y01918D03*
Y02041D03*
G54D24*
X04411Y02995D03*
X04628D03*
G54D25*
X047Y0395D03*
Y04239D03*
G54D26*
X04245Y02384D03*
Y02505D03*
X04085Y02384D03*
Y02505D03*
G54D39*
X04685Y0156D03*
X04585D03*
X04485D03*
X04385D03*
X04285D03*
X04185D03*
X04085D03*
X03815Y03555D03*
Y03455D03*
Y03355D03*
Y03255D03*
Y03155D03*
Y03055D03*
Y02955D03*
Y02855D03*
Y02755D03*
Y02655D03*
Y02555D03*
Y02455D03*
Y02355D03*
Y02255D03*
Y02155D03*
Y02055D03*
Y01955D03*
Y01855D03*
Y01755D03*
X04815Y03557D03*
Y03457D03*
Y03357D03*
Y03257D03*
Y03157D03*
Y03057D03*
Y02957D03*
Y02857D03*
Y02757D03*
Y02657D03*
Y02557D03*
Y02457D03*
Y02357D03*
Y02257D03*
Y02157D03*
Y02057D03*
Y01957D03*
Y01857D03*
Y01757D03*
X0497Y02685D03*
X0496Y03455D03*
G54D40*
X03985Y0156D03*
G54D41*
X03815Y03655D03*
X04815Y03657D03*
X0497Y02585D03*
X0496Y03555D03*
G54D44*
X03973Y04126D03*
Y04225D03*
X0417Y0393D03*
X04366Y04126D03*
Y04225D03*
G54D45*
X04366Y0393D03*
X03973D03*
G54D46*
X0417Y04126D03*
G54D47*
X0354Y0327D03*
Y03191D03*
Y03348D03*
G54D48*
X0354Y03079D03*
Y0346D03*
G54D49*
X03815Y04285D03*
X05035D03*
Y01235D03*
X03815D03*
G54D50*
X04475Y02485D03*
X0446Y0224D03*
X04595Y01855D03*
X03935Y02615D03*
X0432Y0317D03*
M02*