%FSTAX23Y23*%
%MOIN*%
%SFA1B1*%

%IPPOS*%
%ADD14C,0.010000*%
%ADD39C,0.061810*%
%ADD40R,0.061810X0.061810*%
%ADD41R,0.061810X0.061810*%
%ADD44C,0.047240*%
%ADD45O,0.051500X0.102990*%
%ADD46O,0.102990X0.051500*%
%ADD47C,0.051500*%
%ADD48C,0.088580*%
%ADD49C,0.120000*%
%ADD50C,0.050000*%
%ADD51R,0.035430X0.062990*%
%ADD52R,0.031500X0.019680*%
%ADD53R,0.062990X0.035430*%
%LNpcb1-1*%
%LPD*%
G36*
X05041Y04418D02*
X05084Y04402D01*
X05109Y04388*
X0513Y04372*
X05153Y04347*
X05171Y04318*
X05182Y04288*
X05186Y04274*
X05188Y04258*
X05188Y01261*
X05181Y01233*
X05171Y01206*
X05155Y0118*
X05136Y01157*
X05113Y01138*
X05084Y01122*
X05054Y01111*
X05022Y01105*
X03806Y01106*
X03775Y01112*
X03748Y01122*
X03721Y01138*
X03698Y01157*
X03679Y0118*
X03662Y01208*
X03652Y01235*
X03646Y01266*
X03644Y02885*
X03641Y029*
X03636Y02912*
X03629Y02925*
X0362Y02936*
X03609Y02946*
X03595Y02955*
X0358Y02961*
X03565Y02964*
X03495Y02965*
X03481Y02968*
X03468Y02972*
X03456Y02979*
X03446Y02986*
X03435Y02998*
X03426Y03011*
X03419Y03025*
X03416Y03041*
X03415Y0348*
X03416Y03497*
X03421Y03514*
X0343Y0353*
X03441Y03543*
X03454Y03554*
X0347Y03563*
X03487Y03568*
X03505Y0357*
X03555*
X03574Y03572*
X03591Y03577*
X03608Y03587*
X03621Y03599*
X03633Y03615*
X0364Y03632*
X03644Y03651*
X03644Y0367*
X03646Y04258*
X03653Y04293*
X03667Y04326*
X03688Y04355*
X03711Y04378*
X03734Y04394*
X03764Y04408*
X03793Y04416*
X03824Y0442*
X05022*
X05041Y04418*
G37*
%LNpcb1-2*%
%LPC*%
G36*
X05041Y04355D02*
X05028D01*
X05014Y04352*
X05001Y04347*
X0499Y04339*
X0498Y04329*
X04972Y04318*
X04967Y04305*
X04965Y04291*
Y04278*
X04967Y04264*
X04972Y04251*
X0498Y0424*
X0499Y0423*
X05001Y04222*
X05014Y04217*
X05028Y04215*
X05041*
X05055Y04217*
X05068Y04222*
X05079Y0423*
X05089Y0424*
X05097Y04251*
X05102Y04264*
X05105Y04278*
Y04291*
X05102Y04305*
X05097Y04318*
X05089Y04329*
X05079Y04339*
X05068Y04347*
X05055Y04352*
X05041Y04355*
G37*
G36*
X03821D02*
X03808D01*
X03794Y04352*
X03781Y04347*
X0377Y04339*
X0376Y04329*
X03752Y04318*
X03747Y04305*
X03745Y04291*
Y04278*
X03747Y04264*
X03752Y04251*
X0376Y0424*
X0377Y0423*
X03781Y04222*
X03794Y04217*
X03808Y04215*
X03821*
X03835Y04217*
X03848Y04222*
X03859Y0423*
X03869Y0424*
X03877Y04251*
X03882Y04264*
X03885Y04278*
Y04291*
X03882Y04305*
X03877Y04318*
X03869Y04329*
X03859Y04339*
X03848Y04347*
X03835Y04352*
X03821Y04355*
G37*
G36*
X04371Y04258D02*
X04362D01*
X04353Y04256*
X04346Y04252*
X04339Y04245*
X04335Y04238*
X04333Y04229*
Y0422*
X04335Y04212*
X04339Y04204*
X04346Y04198*
X04353Y04193*
X04362Y04191*
X04371*
X04379Y04193*
X04387Y04198*
X04393Y04204*
X04398Y04212*
X044Y0422*
Y04229*
X04398Y04238*
X04393Y04245*
X04387Y04252*
X04379Y04256*
X04371Y04258*
G37*
G36*
X03977D02*
X03968D01*
X0396Y04256*
X03952Y04252*
X03946Y04245*
X03941Y04238*
X03939Y04229*
Y0422*
X03941Y04212*
X03946Y04204*
X03952Y04198*
X0396Y04193*
X03968Y04191*
X03977*
X03986Y04193*
X03993Y04198*
X04Y04204*
X04004Y04212*
X04006Y0422*
Y04229*
X04004Y04238*
X04Y04245*
X03993Y04252*
X03986Y04256*
X03977Y04258*
G37*
G36*
X04195Y04162D02*
X04175D01*
Y04131*
X04231*
X0423Y04136*
X04226Y04144*
X04221Y04152*
X04213Y04158*
X04205Y04161*
X04195Y04162*
G37*
G36*
X04165D02*
X04144D01*
X04134Y04161*
X04126Y04158*
X04118Y04152*
X04113Y04144*
X04109Y04136*
X04108Y04131*
X04165*
Y04162*
G37*
G36*
X04371Y0416D02*
X04362D01*
X04353Y04158*
X04346Y04153*
X04339Y04147*
X04335Y04139*
X04333Y04131*
Y04122*
X04335Y04113*
X04339Y04106*
X04346Y04099*
X04353Y04095*
X04362Y04093*
X04371*
X04379Y04095*
X04387Y04099*
X04393Y04106*
X04398Y04113*
X044Y04122*
Y04131*
X04398Y04139*
X04393Y04147*
X04387Y04153*
X04379Y04158*
X04371Y0416*
G37*
G36*
X03977D02*
X03968D01*
X0396Y04158*
X03952Y04153*
X03946Y04147*
X03941Y04139*
X03939Y04131*
Y04122*
X03941Y04113*
X03946Y04106*
X03952Y04099*
X0396Y04095*
X03968Y04093*
X03977*
X03986Y04095*
X03993Y04099*
X04Y04106*
X04004Y04113*
X04006Y04122*
Y04131*
X04004Y04139*
X04Y04147*
X03993Y04153*
X03986Y04158*
X03977Y0416*
G37*
G36*
X04231Y04121D02*
X04175D01*
Y0409*
X04195*
X04205Y04092*
X04213Y04095*
X04221Y04101*
X04226Y04108*
X0423Y04117*
X04231Y04121*
G37*
G36*
X04165D02*
X04108D01*
X04109Y04117*
X04113Y04108*
X04118Y04101*
X04126Y04095*
X04134Y04092*
X04144Y0409*
X04165*
Y04121*
G37*
G36*
X04174Y03963D02*
X04165D01*
X04157Y03961*
X04149Y03956*
X04143Y0395*
X04138Y03942*
X04136Y03934*
Y03925*
X04138Y03917*
X04143Y03909*
X04149Y03903*
X04157Y03898*
X04165Y03896*
X04174*
X04182Y03898*
X0419Y03903*
X04196Y03909*
X04201Y03917*
X04203Y03925*
Y03934*
X04201Y03942*
X04196Y0395*
X0419Y03956*
X04182Y03961*
X04174Y03963*
G37*
G36*
X04366Y03991D02*
X04357Y0399D01*
X04348Y03986*
X04341Y03981*
X04335Y03973*
X04332Y03965*
X0433Y03955*
Y03904*
X04332Y03894*
X04335Y03886*
X04341Y03878*
X04348Y03873*
X04357Y03869*
X04366Y03868*
X04376Y03869*
X04384Y03873*
X04392Y03878*
X04398Y03886*
X04401Y03894*
X04402Y03904*
Y03955*
X04401Y03965*
X04398Y03973*
X04392Y03981*
X04384Y03986*
X04376Y0399*
X04366Y03991*
G37*
G36*
X03973D02*
X03963Y0399D01*
X03955Y03986*
X03947Y03981*
X03941Y03973*
X03938Y03965*
X03937Y03955*
Y03904*
X03938Y03894*
X03941Y03886*
X03947Y03878*
X03955Y03873*
X03963Y03869*
X03973Y03868*
X03982Y03869*
X03991Y03873*
X03998Y03878*
X04004Y03886*
X04007Y03894*
X04009Y03904*
Y03955*
X04007Y03965*
X04004Y03973*
X03998Y03981*
X03991Y03986*
X03982Y0399*
X03973Y03991*
G37*
G36*
X04855Y03698D02*
X04774D01*
Y03617*
X04855*
Y03698*
G37*
G36*
X03855Y03695D02*
X03774D01*
Y03614*
X03855*
Y03695*
G37*
G36*
X05Y03595D02*
X04919D01*
Y03514*
X05*
Y03595*
G37*
G36*
X0382D02*
X03809D01*
X03799Y03593*
X03789Y03587*
X03782Y0358*
X03776Y0357*
X03774Y0356*
Y03549*
X03776Y03539*
X03782Y03529*
X03789Y03522*
X03799Y03516*
X03809Y03514*
X0382*
X0383Y03516*
X0384Y03522*
X03847Y03529*
X03853Y03539*
X03855Y03549*
Y0356*
X03853Y0357*
X03847Y0358*
X0384Y03587*
X0383Y03593*
X0382Y03595*
G37*
G36*
X0482Y03598D02*
X04809D01*
X04799Y03596*
X04789Y0359*
X04782Y03583*
X04776Y03573*
X04774Y03563*
Y03552*
X04776Y03542*
X04782Y03532*
X04789Y03525*
X04799Y03519*
X04809Y03517*
X04816*
X04817Y03516*
X04821Y03517*
X04824Y03516*
X04828Y03516*
X04831Y03516*
X04833Y03515*
X04836Y03514*
X04838Y03513*
X0484Y03512*
X04842Y0351*
X04843Y0351*
X04845Y03507*
Y03491*
X0484Y03489*
X0484Y0349*
X0483Y03496*
X0482Y03498*
X04809*
X04799Y03496*
X04789Y0349*
X04782Y03483*
X04776Y03473*
X04774Y03463*
Y03452*
X04776Y03442*
X04782Y03432*
X04789Y03425*
X04799Y03419*
X04809Y03417*
X0482*
X0483Y03419*
X0484Y03425*
X0484Y03426*
X04845Y03424*
Y03391*
X0484Y03389*
X0484Y0339*
X0483Y03396*
X0482Y03398*
X04809*
X04799Y03396*
X04789Y0339*
X04782Y03383*
X04776Y03373*
X04774Y03363*
Y03352*
X04776Y03342*
X04782Y03332*
X04789Y03325*
X04799Y03319*
X04809Y03317*
X0482*
X0483Y03319*
X0484Y03325*
X0484Y03326*
X04845Y03324*
Y03291*
X0484Y03289*
X0484Y0329*
X0483Y03296*
X0482Y03298*
X04809*
X04799Y03296*
X04789Y0329*
X04782Y03283*
X04776Y03273*
X04774Y03263*
Y03252*
X04776Y03242*
X04782Y03232*
X04789Y03225*
X04799Y03219*
X04809Y03217*
X0482*
X0483Y03219*
X0484Y03225*
X0484Y03226*
X04845Y03224*
Y03191*
X0484Y03189*
X0484Y0319*
X0483Y03196*
X0482Y03198*
X04809*
X04799Y03196*
X04789Y0319*
X04782Y03183*
X04776Y03173*
X04774Y03163*
Y03152*
X04776Y03142*
X04782Y03132*
X04789Y03125*
X04799Y03119*
X04809Y03117*
X0482*
X0483Y03119*
X0484Y03125*
X0484Y03126*
X04845Y03124*
Y03091*
X0484Y03089*
X0484Y0309*
X0483Y03096*
X0482Y03098*
X04809*
X04799Y03096*
X04789Y0309*
X04782Y03083*
X04776Y03073*
X04774Y03063*
Y03052*
X04776Y03042*
X04782Y03032*
X04789Y03025*
X04799Y03019*
X04809Y03017*
X0482*
X0483Y03019*
X0484Y03025*
X0484Y03026*
X04845Y03024*
Y02991*
X0484Y02989*
X0484Y0299*
X0483Y02996*
X0482Y02998*
X04809*
X04799Y02996*
X04789Y0299*
X04782Y02983*
X04776Y02973*
X04774Y02963*
Y02952*
X04776Y02942*
X04782Y02932*
X04789Y02925*
X04799Y02919*
X04809Y02917*
X0482*
X0483Y02919*
X0484Y02925*
X0484Y02926*
X04845Y02924*
Y02891*
X0484Y02889*
X0484Y0289*
X0483Y02896*
X0482Y02898*
X04809*
X04799Y02896*
X04789Y0289*
X04782Y02883*
X04776Y02873*
X04775Y02869*
X04775Y02869*
X04772Y02859*
X04771Y02855*
X04768Y02848*
X04766Y02845*
X04765Y02843*
X04763Y0284*
X04762Y02839*
X04762Y02838*
X04734Y0281*
X0473Y02805*
X04729Y028*
Y02476*
X04654Y024*
X0465Y02395*
X04649Y0239*
Y01791*
X04563Y01705*
X04215*
X04209Y01704*
X04204Y017*
X04112Y01608*
X04111Y01608*
X04109Y01606*
X04107Y01605*
X04105Y01604*
X04102Y01603*
X04099Y01602*
X04096Y01601*
X04093Y01601*
X04089Y01601*
X04085Y01601*
X04084Y016*
X04079*
X04069Y01598*
X04059Y01592*
X04052Y01585*
X04046Y01575*
X04044Y01565*
Y01554*
X04046Y01544*
X04052Y01534*
X04059Y01527*
X04069Y01521*
X04079Y01519*
X0409*
X041Y01521*
X0411Y01527*
X04117Y01534*
X04123Y01544*
X04125Y01554*
Y01559*
X04126Y0156*
X04126Y01564*
X04126Y01568*
X04126Y01571*
X04127Y01574*
X04128Y01577*
X04129Y0158*
X0413Y01582*
X04131Y01584*
X04133Y01586*
X04133Y01587*
X04221Y01674*
X04306*
X04308Y0167*
X04223Y01585*
X04222Y01585*
X0422Y01585*
X04219Y01586*
X04217Y01586*
X04216Y01587*
X04215Y01588*
X04214Y01588*
X04213Y01589*
X04212Y01589*
X0421Y01592*
X042Y01598*
X0419Y016*
X04179*
X04169Y01598*
X04159Y01592*
X04152Y01585*
X04146Y01575*
X04144Y01565*
Y01554*
X04146Y01544*
X04152Y01534*
X04159Y01527*
X04169Y01521*
X04179Y01519*
X0419*
X042Y01521*
X0421Y01527*
X04217Y01534*
X04223Y01544*
X04225Y01554*
X04226Y01554*
X04226Y01554*
X04228Y01554*
X04229*
X04235Y01555*
X04239Y01557*
X04244Y01555*
Y01554*
X04246Y01544*
X04252Y01534*
X04259Y01527*
X04269Y01521*
X04279Y01519*
X04284*
X04285Y01518*
X04289Y01518*
X04293Y01518*
X04296Y01518*
X04299Y01517*
X04302Y01516*
X04305Y01515*
X04307Y01514*
X04309Y01513*
X04311Y01511*
X04312Y01511*
X0432Y01503*
X04325Y01499*
X0433Y01498*
X04409*
X04414Y01499*
X04419Y01503*
X04448Y01531*
X04451Y01534*
X04455Y01531*
X04459Y01527*
X04469Y01521*
X04479Y01519*
X0449*
X045Y01521*
X0451Y01527*
X04517Y01534*
X04523Y01544*
X04525Y01554*
Y01559*
X04526Y0156*
X04526Y01564*
X04526Y01568*
X04526Y01571*
X04527Y01574*
X04528Y01577*
X04529Y0158*
X0453Y01582*
X04531Y01584*
X04533Y01586*
X04533Y01587*
X04537Y0159*
X04551*
X04553Y01585*
X04552Y01585*
X04546Y01575*
X04544Y01565*
Y01565*
X04625*
Y01565*
X04623Y01575*
X04617Y01585*
X04616Y01585*
X04618Y0159*
X04625*
X04631Y01591*
X04636Y01595*
X0476Y01719*
X04764Y01724*
X04765Y0173*
Y02086*
X04787Y02109*
X04788Y02109*
X0479Y02111*
X04792Y02112*
X04794Y02113*
X04797Y02114*
X048Y02115*
X04803Y02116*
X04806Y02116*
X0481Y02116*
X04814Y02116*
X04815Y02117*
X0482*
X0483Y02119*
X0484Y02125*
X04847Y02132*
X04853Y02142*
X04855Y02152*
Y02163*
X04853Y02173*
X04847Y02183*
X0484Y0219*
X0483Y02196*
X0482Y02198*
X04809*
X04799Y02196*
X04789Y0219*
X04782Y02183*
X04776Y02173*
X04774Y02163*
Y02158*
X04773Y02157*
X04773Y02153*
X04773Y02149*
X04773Y02146*
X04772Y02143*
X04771Y0214*
X0477Y02137*
X04769Y02135*
X04768Y02133*
X04766Y02131*
X04766Y0213*
X04749Y02114*
X04745Y02116*
Y02166*
X04787Y02209*
X04788Y02209*
X0479Y02211*
X04792Y02212*
X04794Y02213*
X04797Y02214*
X048Y02215*
X04803Y02216*
X04806Y02216*
X0481Y02216*
X04814Y02216*
X04815Y02217*
X0482*
X0483Y02219*
X0484Y02225*
X04847Y02232*
X04853Y02242*
X04855Y02252*
Y02263*
X04853Y02273*
X04847Y02283*
X0484Y0229*
X0483Y02296*
X0482Y02298*
X04809*
X04799Y02296*
X04789Y0229*
X04782Y02283*
X04776Y02273*
X04774Y02263*
Y02258*
X04773Y02257*
X04773Y02253*
X04773Y02249*
X04773Y02246*
X04772Y02243*
X04771Y0224*
X0477Y02237*
X04769Y02235*
X04768Y02233*
X04766Y02231*
X04766Y0223*
X04724Y02189*
X0472Y02191*
Y02341*
X04798Y0242*
X04799Y02419*
X04809Y02417*
X0482*
X0483Y02419*
X0484Y02425*
X04847Y02432*
X04853Y02442*
X04855Y02452*
Y02463*
X04853Y02473*
X04847Y02483*
X0484Y0249*
X0483Y02496*
X0482Y02498*
X04809*
X04799Y02496*
X04789Y0249*
X04789Y02489*
X04784Y02491*
Y02524*
X04789Y02526*
X04789Y02525*
X04799Y02519*
X04809Y02517*
X0482*
X0483Y02519*
X0484Y02525*
X04847Y02532*
X04853Y02542*
X04855Y02552*
Y02563*
X04853Y02573*
X04847Y02583*
X0484Y0259*
X0483Y02596*
X0482Y02598*
X04809*
X04799Y02596*
X04789Y0259*
X04789Y02589*
X04784Y02591*
Y02624*
X04789Y02626*
X04789Y02625*
X04799Y02619*
X04809Y02617*
X0482*
X0483Y02619*
X0484Y02625*
X04847Y02632*
X04853Y02642*
X04855Y02652*
Y02663*
X04853Y02673*
X04847Y02683*
X0484Y0269*
X0483Y02696*
X0482Y02698*
X04809*
X04799Y02696*
X04789Y0269*
X04789Y02689*
X04784Y02691*
Y02724*
X04789Y02726*
X04789Y02725*
X04799Y02719*
X04809Y02717*
X0482*
X0483Y02719*
X0484Y02725*
X04847Y02732*
X04853Y02742*
X04855Y02752*
Y02763*
X04853Y02773*
X04847Y02783*
X04841Y02789*
X04842Y02794*
X04845*
X0485Y02795*
X04855Y02799*
X0487Y02814*
X04874Y02819*
X04875Y02825*
Y02834*
X04876Y02838*
Y03514*
X04875Y03519*
X04871Y03524*
X04864Y03532*
X04864Y03532*
X04862Y03534*
X04861Y03536*
X0486Y03539*
X04859Y03541*
X04858Y03544*
X04857Y03547*
X04856Y03555*
X04856Y03559*
X04855Y0356*
Y03563*
X04853Y03573*
X04847Y03583*
X0484Y0359*
X0483Y03596*
X0482Y03598*
G37*
G36*
X04965Y03495D02*
X04954D01*
X04944Y03493*
X04934Y03487*
X04927Y0348*
X04921Y0347*
X04919Y0346*
Y03449*
X04921Y03439*
X04927Y03429*
X04934Y03422*
X04944Y03416*
X04954Y03414*
X04965*
X04975Y03416*
X04985Y03422*
X04992Y03429*
X04998Y03439*
X05Y03449*
Y0346*
X04998Y0347*
X04992Y0348*
X04985Y03487*
X04975Y03493*
X04965Y03495*
G37*
G36*
X0382D02*
X03809D01*
X03799Y03493*
X03789Y03487*
X03782Y0348*
X03776Y0347*
X03774Y0346*
Y03449*
X03776Y03439*
X03782Y03429*
X03789Y03422*
X03799Y03416*
X03809Y03414*
X0382*
X0383Y03416*
X0384Y03422*
X03847Y03429*
X03853Y03439*
X03855Y03449*
Y0346*
X03853Y0347*
X03847Y0348*
X0384Y03487*
X0383Y03493*
X0382Y03495*
G37*
G36*
X03547Y03515D02*
X03532D01*
X03519Y03511*
X03506Y03504*
X03496Y03494*
X03489Y03481*
X03485Y03468*
Y03453*
X03489Y03439*
X03496Y03427*
X03506Y03417*
X03519Y0341*
X03532Y03406*
X03547*
X0356Y0341*
X03573Y03417*
X03583Y03427*
X0359Y03439*
X03594Y03453*
Y03468*
X0359Y03481*
X03583Y03494*
X03573Y03504*
X0356Y03511*
X03547Y03515*
G37*
G36*
X0382Y03395D02*
X03809D01*
X03799Y03393*
X03789Y03387*
X03782Y0338*
X03776Y0337*
X03774Y0336*
Y03349*
X03776Y03339*
X03782Y03329*
X03789Y03322*
X03799Y03316*
X03809Y03314*
X0382*
X0383Y03316*
X0384Y03322*
X03847Y03329*
X03853Y03339*
X03855Y03349*
Y0336*
X03853Y0337*
X03847Y0338*
X0384Y03387*
X0383Y03393*
X0382Y03395*
G37*
G36*
X03544Y03384D02*
X03535D01*
X03526Y03382*
X03518Y03377*
X03511Y0337*
X03506Y03362*
X03504Y03353*
Y03344*
X03506Y03334*
X03511Y03326*
X03518Y0332*
X03526Y03315*
X03535Y03312*
X03544*
X03553Y03315*
X03561Y0332*
X03568Y03326*
X03573Y03334*
X03575Y03344*
Y03353*
X03573Y03362*
X03568Y0337*
X03561Y03377*
X03553Y03382*
X03544Y03384*
G37*
G36*
X04325Y03204D02*
Y03175D01*
X04354*
X04352Y03183*
X04348Y03191*
X04341Y03198*
X04333Y03202*
X04325Y03204*
G37*
G36*
X04315D02*
X04306Y03202D01*
X04298Y03198*
X04291Y03191*
X04287Y03183*
X04285Y03175*
X04315*
Y03204*
G37*
G36*
X03544Y03227D02*
X03535D01*
X03526Y03224*
X03518Y03219*
X03511Y03213*
X03506Y03205*
X03504Y03195*
Y03186*
X03506Y03177*
X03511Y03169*
X03518Y03162*
X03526Y03157*
X03535Y03155*
X03544*
X03553Y03157*
X03561Y03162*
X03568Y03169*
X03573Y03177*
X03575Y03186*
Y03195*
X03573Y03205*
X03568Y03213*
X03561Y03219*
X03553Y03224*
X03544Y03227*
G37*
G36*
X0406Y03186D02*
X04038D01*
Y0315*
X0406*
Y03186*
G37*
G36*
X04028D02*
X04005D01*
Y0315*
X04028*
Y03186*
G37*
G36*
X04354Y03165D02*
X04325D01*
Y03135*
X04333Y03137*
X04341Y03141*
X04348Y03148*
X04352Y03156*
X04354Y03165*
G37*
G36*
X04315D02*
X04285D01*
X04287Y03156*
X04291Y03148*
X04298Y03141*
X04306Y03137*
X04315Y03135*
Y03165*
G37*
G36*
X0382Y03195D02*
X03809D01*
X03799Y03193*
X03789Y03187*
X03782Y0318*
X03776Y0317*
X03774Y0316*
Y03149*
X03776Y03139*
X03782Y03129*
X03789Y03122*
X03799Y03116*
X03809Y03114*
X0382*
X0383Y03116*
X0384Y03122*
X03847Y03129*
X03853Y03139*
X03855Y03149*
Y0316*
X03853Y0317*
X03847Y0318*
X0384Y03187*
X0383Y03193*
X0382Y03195*
G37*
G36*
X0406Y0314D02*
X04038D01*
Y03103*
X0406*
Y0314*
G37*
G36*
X04028D02*
X04005D01*
Y03103*
X04028*
Y0314*
G37*
G36*
X03547Y03133D02*
X03532D01*
X03519Y03129*
X03506Y03122*
X03496Y03112*
X03489Y031*
X03485Y03086*
Y03071*
X03489Y03058*
X03496Y03045*
X03506Y03035*
X03519Y03028*
X03532Y03024*
X03547*
X0356Y03028*
X03573Y03035*
X03583Y03045*
X0359Y03058*
X03594Y03071*
Y03086*
X0359Y031*
X03583Y03112*
X03573Y03122*
X0356Y03129*
X03547Y03133*
G37*
G36*
X04166Y0304D02*
X0413D01*
Y03018*
X04166*
Y0304*
G37*
G36*
X0412D02*
X04083D01*
Y03018*
X0412*
Y0304*
G37*
G36*
X0382Y03095D02*
X03809D01*
X03799Y03093*
X03789Y03087*
X03782Y0308*
X03776Y0307*
X03774Y0306*
Y03049*
X03776Y03039*
X03782Y03029*
X03789Y03022*
X03799Y03016*
X03809Y03014*
X0382*
X0383Y03016*
X0384Y03022*
X03847Y03029*
X03853Y03039*
X03855Y03049*
Y0306*
X03853Y0307*
X03847Y0308*
X0384Y03087*
X0383Y03093*
X0382Y03095*
G37*
G36*
X04035Y03019D02*
X04014D01*
Y03005*
X04035*
Y03019*
G37*
G36*
X04004D02*
X03983D01*
Y03005*
X04004*
Y03019*
G37*
G36*
X04166Y03008D02*
X0413D01*
Y02985*
X04166*
Y03008*
G37*
G36*
X0412D02*
X04083D01*
Y02985*
X0412*
Y03008*
G37*
G36*
X04035Y02995D02*
X04014D01*
Y0298*
X04035*
Y02995*
G37*
G36*
X04004D02*
X03983D01*
Y0298*
X04004*
Y02995*
G37*
G36*
X0382Y02995D02*
X03809D01*
X03799Y02993*
X03789Y02987*
X03782Y0298*
X03776Y0297*
X03774Y0296*
Y02949*
X03776Y02939*
X03782Y02929*
X03789Y02922*
X03799Y02916*
X03809Y02914*
X0382*
X0383Y02916*
X0384Y02922*
X03847Y02929*
X03853Y02939*
X03855Y02949*
Y0296*
X03853Y0297*
X03847Y0298*
X0384Y02987*
X0383Y02993*
X0382Y02995*
G37*
G36*
X04166Y02934D02*
X04083D01*
Y02901*
X04081Y02898*
X04063Y0288*
X04035*
Y02884*
X04025*
X04025Y02884*
X04024Y02884*
X04024*
X04023Y02884*
X04023Y02884*
X03983*
Y02845*
X04*
Y02814*
X04001Y02808*
X04004Y02803*
X04024Y02783*
Y02756*
X04*
Y02673*
X04055*
Y02746*
X04055Y02746*
X04055Y02746*
Y02756*
X04055*
Y0279*
X04054Y02795*
X0405Y028*
X0403Y0282*
Y02845*
X04035*
Y02849*
X04069*
X04075Y0285*
X0408Y02854*
X04102Y02876*
X04104Y02878*
X04105Y02879*
X04166*
Y02934*
G37*
G36*
X03544Y03305D02*
X03535D01*
X03526Y03303*
X03518Y03298*
X03511Y03291*
X03506Y03283*
X03504Y03274*
Y03265*
X03506Y03256*
X03511Y03248*
X03518Y03241*
X03526Y03236*
X03535Y03234*
X03544*
X03553Y03236*
X03561Y03241*
X03568Y03248*
X03571Y03252*
X03571Y03253*
X03573Y03255*
X03574Y03257*
X03575Y03258*
X03576Y03259*
X03577Y0326*
X03579Y03261*
X0358Y03261*
X03582Y03262*
X03584Y03262*
X03584Y03262*
X03771*
X03771Y03262*
X03772Y03261*
X03773Y0326*
X03773Y03259*
X03773Y03258*
X03773Y03258*
X03774Y03258*
Y03257*
X03774Y03256*
Y03249*
X03776Y03239*
X03782Y03229*
X03789Y03222*
X03799Y03216*
X03809Y03214*
X0382*
X0383Y03216*
X0384Y03222*
X03847Y03229*
X03849Y03232*
X03849Y03232*
X0385Y03234*
X03851Y03235*
X03852Y03236*
X03853Y03237*
X03855Y03237*
X03856Y03238*
X03858Y03239*
X03859Y03239*
X03898Y03199*
Y03157*
X03899Y03156*
Y03103*
X03911*
Y03019*
X03904*
Y0298*
X03915*
Y02884*
X03904*
Y02845*
X03956*
Y02884*
X03945*
Y0298*
X03956*
Y03019*
X03942*
Y03103*
X03954*
Y03186*
X03929*
Y03205*
X03928Y03211*
X03924Y03216*
X03875Y03265*
X0387Y03269*
X03865Y0327*
X03862*
X0386Y0327*
X03858Y0327*
X03856Y03271*
X03855Y03272*
X03853Y03272*
X03852Y03273*
X03851Y03274*
X0385Y03275*
X03849Y03277*
X03849Y03277*
X03847Y0328*
X0384Y03287*
X0383Y03293*
X0382Y03295*
X03809*
X03799Y03293*
X03789Y03287*
X03788Y03288*
X03783Y03292*
X03778Y03293*
X0358*
X03579Y03293*
X03577Y03293*
X03572Y03295*
X03569Y03296*
X03559Y033*
X03556Y03301*
X03555Y03302*
X03553Y03303*
X03544Y03305*
G37*
G36*
X0382Y02895D02*
X03809D01*
X03799Y02893*
X03789Y02887*
X03782Y0288*
X03776Y0287*
X03774Y0286*
Y02849*
X03776Y02839*
X03782Y02829*
X03789Y02822*
X03799Y02816*
X03809Y02814*
X0382*
X0383Y02816*
X0384Y02822*
X03847Y02829*
X03853Y02839*
X03855Y02849*
Y0286*
X03853Y0287*
X03847Y0288*
X0384Y02887*
X0383Y02893*
X0382Y02895*
G37*
G36*
Y02795D02*
X03809D01*
X03799Y02793*
X03789Y02787*
X03782Y0278*
X03776Y0277*
X03774Y0276*
Y02749*
X03776Y02739*
X03782Y02729*
X03789Y02722*
X03799Y02716*
X03809Y02714*
X0382*
X0383Y02716*
X0384Y02722*
X03847Y02729*
X03853Y02739*
X03855Y02749*
Y0276*
X03853Y0277*
X03847Y0278*
X0384Y02787*
X0383Y02793*
X0382Y02795*
G37*
G36*
X04975Y02725D02*
X04975D01*
Y0269*
X0501*
Y0269*
X05008Y027*
X05002Y0271*
X04995Y02717*
X04985Y02723*
X04975Y02725*
G37*
G36*
X04965D02*
X04964D01*
X04954Y02723*
X04944Y02717*
X04937Y0271*
X04931Y027*
X04929Y0269*
Y0269*
X04965*
Y02725*
G37*
G36*
X0501Y0268D02*
X04975D01*
Y02644*
X04975*
X04985Y02646*
X04995Y02652*
X05002Y02659*
X05008Y02669*
X0501Y02679*
Y0268*
G37*
G36*
X04965D02*
X04929D01*
Y02679*
X04931Y02669*
X04937Y02659*
X04944Y02652*
X04954Y02646*
X04964Y02644*
X04965*
Y0268*
G37*
G36*
X0382Y02695D02*
X03809D01*
X03799Y02693*
X03789Y02687*
X03782Y0268*
X03776Y0267*
X03774Y0266*
Y02649*
X03776Y02639*
X03782Y02629*
X03789Y02622*
X03799Y02616*
X03809Y02614*
X0382*
X0383Y02616*
X0384Y02622*
X03847Y02629*
X03853Y02639*
X03855Y02649*
Y0266*
X03853Y0267*
X03847Y0268*
X0384Y02687*
X0383Y02693*
X0382Y02695*
G37*
G36*
X03949Y02756D02*
X03894D01*
Y02673*
X03919*
Y02661*
X03919Y02659*
Y02657*
X03919Y02655*
X03919Y02653*
X03918Y02651*
X03917Y02649*
X03916Y02648*
X03915Y02646*
X03913Y02644*
X03912Y02642*
X0391Y02639*
X03909Y02639*
X03906Y02636*
X03902Y02628*
X039Y02619*
Y0261*
X03902Y02601*
X03906Y02593*
X03913Y02586*
X03921Y02582*
X0393Y0258*
X03939*
X03948Y02582*
X03956Y02586*
X03963Y02593*
X03967Y02601*
X0397Y0261*
Y02619*
X03967Y02628*
X03963Y02636*
X0396Y02639*
X03959Y02639*
X03957Y02642*
X03956Y02644*
X03954Y02646*
X03953Y02648*
X03952Y02649*
X03951Y02651*
X0395Y02653*
X0395Y02655*
X0395Y02657*
Y0266*
X03949Y02662*
Y02702*
X03949Y02703*
Y02756*
G37*
G36*
X0501Y02625D02*
X04929D01*
Y02544*
X0501*
Y02625*
G37*
G36*
X0382Y02595D02*
X03809D01*
X03799Y02593*
X03789Y02587*
X03782Y0258*
X03776Y0257*
X03774Y0256*
Y02549*
X03776Y02539*
X03782Y02529*
X03789Y02522*
X03799Y02516*
X03809Y02514*
X0382*
X0383Y02516*
X0384Y02522*
X03847Y02529*
X03853Y02539*
X03855Y02549*
Y0256*
X03853Y0257*
X03847Y0258*
X0384Y02587*
X0383Y02593*
X0382Y02595*
G37*
G36*
Y02495D02*
X03809D01*
X03799Y02493*
X03789Y02487*
X03782Y0248*
X03776Y0247*
X03774Y0246*
Y02449*
X03776Y02439*
X03782Y02429*
X03789Y02422*
X03799Y02416*
X03809Y02414*
X0382*
X0383Y02416*
X0384Y02422*
X03847Y02429*
X03853Y02439*
X03855Y02449*
Y0246*
X03853Y0247*
X03847Y0248*
X0384Y02487*
X0383Y02493*
X0382Y02495*
G37*
G36*
Y02395D02*
X0382D01*
Y0236*
X03855*
Y0236*
X03853Y0237*
X03847Y0238*
X0384Y02387*
X0383Y02393*
X0382Y02395*
G37*
G36*
X0381D02*
X03809D01*
X03799Y02393*
X03789Y02387*
X03782Y0238*
X03776Y0237*
X03774Y0236*
Y0236*
X0381*
Y02395*
G37*
G36*
X0482Y02398D02*
X04809D01*
X04799Y02396*
X04789Y0239*
X04782Y02383*
X04776Y02373*
X04774Y02363*
Y02352*
X04776Y02342*
X04782Y02332*
X04789Y02325*
X04799Y02319*
X04809Y02317*
X0482*
X0483Y02319*
X0484Y02325*
X04847Y02332*
X04853Y02342*
X04855Y02352*
Y02363*
X04853Y02373*
X04847Y02383*
X0484Y0239*
X0483Y02396*
X0482Y02398*
G37*
G36*
X03855Y0235D02*
X0382D01*
Y02314*
X0382*
X0383Y02316*
X0384Y02322*
X03847Y02329*
X03853Y02339*
X03855Y02349*
Y0235*
G37*
G36*
X0381D02*
X03774D01*
Y02349*
X03776Y02339*
X03782Y02329*
X03789Y02322*
X03799Y02316*
X03809Y02314*
X0381*
Y0235*
G37*
G36*
X0382Y02295D02*
X03809D01*
X03799Y02293*
X03789Y02287*
X03782Y0228*
X03776Y0227*
X03774Y0226*
Y02249*
X03776Y02239*
X03782Y02229*
X03789Y02222*
X03799Y02216*
X03809Y02214*
X0382*
X0383Y02216*
X0384Y02222*
X03847Y02229*
X03853Y02239*
X03855Y02249*
Y0226*
X03853Y0227*
X03847Y0228*
X0384Y02287*
X0383Y02293*
X0382Y02295*
G37*
G36*
X04479Y0252D02*
X0447D01*
X04461Y02517*
X04453Y02513*
X04446Y02506*
X04442Y02498*
X0444Y02489*
Y0248*
X04442Y02471*
X04446Y02463*
X04453Y02456*
X04461Y02452*
X0447Y0245*
X04479*
X04488Y02452*
X04496Y02456*
X04501Y02461*
X04514Y02448*
Y02316*
X04479Y0228*
X04477Y02279*
X04476Y02278*
X04474Y02277*
X04472Y02277*
X0447Y02276*
X04468Y02275*
X04465Y02275*
X04463Y02275*
X0446Y02275*
X04459Y02275*
X04455*
X04446Y02272*
X04438Y02268*
X04431Y02261*
X04427Y02253*
X04425Y02244*
Y02235*
X04427Y02226*
X04431Y02218*
X04438Y02211*
X04446Y02207*
X04455Y02205*
X04464*
X04473Y02207*
X04481Y02211*
X04488Y02218*
X04492Y02226*
X04495Y02235*
Y02239*
X04495Y0224*
X04495Y02243*
X04495Y02245*
X04495Y02248*
X04496Y0225*
X04497Y02252*
X04497Y02254*
X04498Y02256*
X04499Y02257*
X045Y02259*
X0454Y02299*
X04544Y02304*
X04545Y0231*
Y02455*
X04544Y0246*
X0454Y02465*
X04516Y0249*
X04511Y02493*
X04508Y02493*
X04507Y02498*
X04503Y02506*
X04496Y02513*
X04488Y02517*
X04479Y0252*
G37*
G36*
X0382Y02195D02*
X03809D01*
X03799Y02193*
X03789Y02187*
X03782Y0218*
X03776Y0217*
X03774Y0216*
Y02149*
X03776Y02139*
X03782Y02129*
X03789Y02122*
X03799Y02116*
X03809Y02114*
X0382*
X0383Y02116*
X0384Y02122*
X03847Y02129*
X03853Y02139*
X03855Y02149*
Y0216*
X03853Y0217*
X03847Y0218*
X0384Y02187*
X0383Y02193*
X0382Y02195*
G37*
G36*
X0482Y02098D02*
X04809D01*
X04799Y02096*
X04789Y0209*
X04782Y02083*
X04776Y02073*
X04774Y02063*
Y02052*
X04776Y02042*
X04782Y02032*
X04789Y02025*
X04799Y02019*
X04809Y02017*
X0482*
X0483Y02019*
X0484Y02025*
X04847Y02032*
X04853Y02042*
X04855Y02052*
Y02063*
X04853Y02073*
X04847Y02083*
X0484Y0209*
X0483Y02096*
X0482Y02098*
G37*
G36*
X0382Y02095D02*
X03809D01*
X03799Y02093*
X03789Y02087*
X03782Y0208*
X03776Y0207*
X03774Y0206*
Y02049*
X03776Y02039*
X03782Y02029*
X03789Y02022*
X03799Y02016*
X03809Y02014*
X0382*
X0383Y02016*
X0384Y02022*
X03847Y02029*
X03853Y02039*
X03855Y02049*
Y0206*
X03853Y0207*
X03847Y0208*
X0384Y02087*
X0383Y02093*
X0382Y02095*
G37*
G36*
X0482Y01998D02*
X04809D01*
X04799Y01996*
X04789Y0199*
X04782Y01983*
X04776Y01973*
X04774Y01963*
Y01952*
X04776Y01942*
X04782Y01932*
X04789Y01925*
X04799Y01919*
X04809Y01917*
X0482*
X0483Y01919*
X0484Y01925*
X04847Y01932*
X04853Y01942*
X04855Y01952*
Y01963*
X04853Y01973*
X04847Y01983*
X0484Y0199*
X0483Y01996*
X0482Y01998*
G37*
G36*
X0382Y01995D02*
X03809D01*
X03799Y01993*
X03789Y01987*
X03782Y0198*
X03776Y0197*
X03774Y0196*
Y01949*
X03776Y01939*
X03782Y01929*
X03789Y01922*
X03799Y01916*
X03809Y01914*
X0382*
X0383Y01916*
X0384Y01922*
X03847Y01929*
X03853Y01939*
X03855Y01949*
Y0196*
X03853Y0197*
X03847Y0198*
X0384Y01987*
X0383Y01993*
X0382Y01995*
G37*
G36*
X046Y01889D02*
Y0186D01*
X04629*
X04627Y01868*
X04623Y01876*
X04616Y01883*
X04608Y01887*
X046Y01889*
G37*
G36*
X0459D02*
X04581Y01887D01*
X04573Y01883*
X04566Y01876*
X04562Y01868*
X0456Y0186*
X0459*
Y01889*
G37*
G36*
X04629Y0185D02*
X046D01*
Y0182*
X04608Y01822*
X04616Y01826*
X04623Y01833*
X04627Y01841*
X04629Y0185*
G37*
G36*
X0459D02*
X0456D01*
X04562Y01841*
X04566Y01833*
X04573Y01826*
X04581Y01822*
X0459Y0182*
Y0185*
G37*
G36*
X0482Y01898D02*
X04809D01*
X04799Y01896*
X04789Y0189*
X04782Y01883*
X04776Y01873*
X04774Y01863*
Y01852*
X04776Y01842*
X04782Y01832*
X04789Y01825*
X04799Y01819*
X04809Y01817*
X0482*
X0483Y01819*
X0484Y01825*
X04847Y01832*
X04853Y01842*
X04855Y01852*
Y01863*
X04853Y01873*
X04847Y01883*
X0484Y0189*
X0483Y01896*
X0482Y01898*
G37*
G36*
X0382Y01895D02*
X03809D01*
X03799Y01893*
X03789Y01887*
X03782Y0188*
X03776Y0187*
X03774Y0186*
Y01849*
X03776Y01839*
X03782Y01829*
X03789Y01822*
X03799Y01816*
X03809Y01814*
X0382*
X0383Y01816*
X0384Y01822*
X03847Y01829*
X03853Y01839*
X03855Y01849*
Y0186*
X03853Y0187*
X03847Y0188*
X0384Y01887*
X0383Y01893*
X0382Y01895*
G37*
G36*
X0482Y01798D02*
X04809D01*
X04799Y01796*
X04789Y0179*
X04782Y01783*
X04776Y01773*
X04774Y01763*
Y01752*
X04776Y01742*
X04782Y01732*
X04789Y01725*
X04799Y01719*
X04809Y01717*
X0482*
X0483Y01719*
X0484Y01725*
X04847Y01732*
X04853Y01742*
X04855Y01752*
Y01763*
X04853Y01773*
X04847Y01783*
X0484Y0179*
X0483Y01796*
X0482Y01798*
G37*
G36*
X0382Y01795D02*
X03809D01*
X03799Y01793*
X03789Y01787*
X03782Y0178*
X03776Y0177*
X03774Y0176*
Y01749*
X03776Y01739*
X03782Y01729*
X03789Y01722*
X03799Y01716*
X03809Y01714*
X0382*
X0383Y01716*
X0384Y01722*
X03847Y01729*
X03853Y01739*
X03855Y01749*
Y0176*
X03853Y0177*
X03847Y0178*
X0384Y01787*
X0383Y01793*
X0382Y01795*
G37*
G36*
X0469Y016D02*
X04679D01*
X04669Y01598*
X04659Y01592*
X04652Y01585*
X04646Y01575*
X04644Y01565*
Y01554*
X04646Y01544*
X04652Y01534*
X04659Y01527*
X04669Y01521*
X04679Y01519*
X0469*
X047Y01521*
X0471Y01527*
X04717Y01534*
X04723Y01544*
X04725Y01554*
Y01565*
X04723Y01575*
X04717Y01585*
X0471Y01592*
X047Y01598*
X0469Y016*
G37*
G36*
X04625Y01555D02*
X0459D01*
Y01519*
X0459*
X046Y01521*
X0461Y01527*
X04617Y01534*
X04623Y01544*
X04625Y01554*
Y01555*
G37*
G36*
X0458D02*
X04544D01*
Y01554*
X04546Y01544*
X04552Y01534*
X04559Y01527*
X04569Y01521*
X04579Y01519*
X0458*
Y01555*
G37*
G36*
X04025Y016D02*
X03944D01*
Y01519*
X04025*
Y016*
G37*
G36*
X05041Y01305D02*
X05028D01*
X05014Y01302*
X05001Y01297*
X0499Y01289*
X0498Y01279*
X04972Y01268*
X04967Y01255*
X04965Y01241*
Y01228*
X04967Y01214*
X04972Y01201*
X0498Y0119*
X0499Y0118*
X05001Y01172*
X05014Y01167*
X05028Y01165*
X05041*
X05055Y01167*
X05068Y01172*
X05079Y0118*
X05089Y0119*
X05097Y01201*
X05102Y01214*
X05105Y01228*
Y01241*
X05102Y01255*
X05097Y01268*
X05089Y01279*
X05079Y01289*
X05068Y01297*
X05055Y01302*
X05041Y01305*
G37*
G36*
X03821D02*
X03808D01*
X03794Y01302*
X03781Y01297*
X0377Y01289*
X0376Y01279*
X03752Y01268*
X03747Y01255*
X03745Y01241*
Y01228*
X03747Y01214*
X03752Y01201*
X0376Y0119*
X0377Y0118*
X03781Y01172*
X03794Y01167*
X03808Y01165*
X03821*
X03835Y01167*
X03848Y01172*
X03859Y0118*
X03869Y0119*
X03877Y01201*
X03882Y01214*
X03885Y01228*
Y01241*
X03882Y01255*
X03877Y01268*
X03869Y01279*
X03859Y01289*
X03848Y01297*
X03835Y01302*
X03821Y01305*
G37*
%LNpcb1-3*%
%LPD*%
G36*
X04846Y03554D02*
X04847Y03545D01*
X04848Y03542*
X04849Y03538*
X0485Y03534*
X04852Y03531*
X04854Y03528*
X04856Y03526*
X04858Y03523*
X04851Y03516*
X04849Y03518*
X04846Y0352*
X04843Y03522*
X0484Y03523*
X04836Y03525*
X04833Y03525*
X04829Y03526*
X04825Y03527*
X04821Y03527*
X04816Y03527*
X04845Y03559*
X04846Y03554*
G37*
G36*
X04806Y02828D02*
X04802Y02829D01*
X04798Y02829*
X04794Y0283*
X04791Y0283*
X04788Y02829*
X04784Y02828*
X04781Y02827*
X04778Y02825*
X04775Y02823*
X04773Y02821*
X04768Y0283*
X0477Y02832*
X04772Y02834*
X04773Y02837*
X04775Y0284*
X04777Y02844*
X0478Y02851*
X04782Y02856*
X04785Y02866*
X04806Y02828*
G37*
G36*
X04814Y02227D02*
X0481Y02226D01*
X04805Y02226*
X04801Y02226*
X04797Y02225*
X04794Y02224*
X0479Y02222*
X04787Y02221*
X04784Y02219*
X04781Y02217*
X04779Y02215*
X04772Y02222*
X04774Y02224*
X04776Y02227*
X04778Y0223*
X0478Y02233*
X04781Y02237*
X04782Y0224*
X04783Y02244*
X04783Y02248*
X04784Y02253*
X04784Y02257*
X04814Y02227*
G37*
G36*
Y02127D02*
X0481Y02126D01*
X04805Y02126*
X04801Y02126*
X04797Y02125*
X04794Y02124*
X0479Y02122*
X04787Y02121*
X04784Y02119*
X04781Y02117*
X04779Y02115*
X04772Y02122*
X04774Y02124*
X04776Y02127*
X04778Y0213*
X0478Y02133*
X04781Y02137*
X04782Y0214*
X04783Y02144*
X04783Y02148*
X04784Y02153*
X04784Y02157*
X04814Y02127*
G37*
G36*
X04527Y01595D02*
X04525Y01593D01*
X04523Y0159*
X04521Y01587*
X0452Y01584*
X04518Y0158*
X04517Y01577*
X04516Y01573*
X04516Y01569*
X04515Y01564*
X04515Y0156*
X04485Y0159*
X04489Y0159*
X04494Y01591*
X04498Y01591*
X04502Y01592*
X04505Y01593*
X04509Y01595*
X04512Y01596*
X04515Y01598*
X04518Y016*
X0452Y01602*
X04527Y01595*
G37*
G36*
X04427D02*
X04425Y01593D01*
X04423Y0159*
X04421Y01587*
X0442Y01584*
X04418Y0158*
X04417Y01577*
X04416Y01573*
X04416Y01569*
X04415Y01564*
X04415Y0156*
X04385Y0159*
X04389Y0159*
X04394Y01591*
X04398Y01591*
X04402Y01592*
X04405Y01593*
X04409Y01595*
X04412Y01596*
X04415Y01598*
X04418Y016*
X0442Y01602*
X04427Y01595*
G37*
G36*
X04127D02*
X04125Y01593D01*
X04123Y0159*
X04121Y01587*
X0412Y01584*
X04118Y0158*
X04117Y01577*
X04116Y01573*
X04116Y01569*
X04115Y01564*
X04115Y0156*
X04085Y0159*
X04089Y0159*
X04094Y01591*
X04098Y01591*
X04102Y01592*
X04105Y01593*
X04109Y01595*
X04112Y01596*
X04115Y01598*
X04118Y016*
X0412Y01602*
X04127Y01595*
G37*
G36*
X04208Y0158D02*
X04209Y01579D01*
X04211Y01578*
X04213Y01577*
X04216Y01576*
X04218Y01576*
X04221Y01575*
X04223Y01575*
X04226Y01574*
X04229Y01574*
Y01564*
X04227Y01564*
X04225Y01564*
X04223Y01564*
X04221Y01563*
X04219Y01562*
X04218Y01561*
X04217Y0156*
X04216Y01559*
X04215Y01557*
X04215Y01555*
X04206Y01581*
X04208Y0158*
G37*
G36*
X04453Y0165D02*
X04412Y01608D01*
X04411Y01608*
X04409Y01606*
X04407Y01605*
X04405Y01604*
X04402Y01603*
X04399Y01602*
X04396Y01601*
X04393Y01601*
X04389Y01601*
X04385Y01601*
X04384Y016*
X04379*
X04369Y01598*
X04359Y01592*
X04352Y01585*
X04346Y01575*
X04344Y01565*
Y01554*
X04346Y01544*
X04352Y01534*
X04353Y01534*
X04351Y01529*
X04337*
X04333Y01532*
X04333Y01533*
X04331Y01535*
X0433Y01537*
X04329Y01539*
X04328Y01542*
X04327Y01545*
X04326Y01548*
X04326Y01551*
X04326Y01555*
X04326Y01559*
X04325Y0156*
Y01565*
X04323Y01575*
X04317Y01585*
X0431Y01592*
X043Y01598*
X0429Y016*
X04289*
X04287Y01605*
X04336Y01654*
X04451*
X04453Y0165*
G37*
G36*
X04315Y01555D02*
X04316Y0155D01*
X04316Y01546*
X04317Y01542*
X04318Y01539*
X0432Y01535*
X04321Y01532*
X04323Y01529*
X04325Y01526*
X04327Y01524*
X0432Y01517*
X04318Y01519*
X04315Y01521*
X04312Y01523*
X04309Y01525*
X04305Y01526*
X04302Y01527*
X04298Y01528*
X04294Y01528*
X04289Y01529*
X04285Y01529*
X04315Y01559*
X04315Y01555*
G37*
G36*
X04107Y02889D02*
X04107Y02889D01*
X04106Y0289*
X04105Y0289*
X04103Y02889*
X04102Y02889*
X04101Y02888*
X04099Y02887*
X04097Y02885*
X04093Y02882*
X04086Y02889*
X04088Y02891*
X04091Y02895*
X04092Y02896*
X04093Y02898*
X04094Y02899*
X04094Y029*
X04094Y02901*
X04094Y02902*
X04093Y02903*
X04107Y02889*
G37*
G36*
X04025Y02873D02*
X04025Y02873D01*
X04025Y02872*
X04026Y02871*
X04027Y02871*
X04028Y0287*
X04029Y0287*
X04031Y0287*
X04033Y0287*
X04035Y0287*
Y0286*
X04033Y02859*
X04031Y02859*
X04029Y02859*
X04028Y02859*
X04027Y02858*
X04026Y02858*
X04025Y02857*
X04025Y02856*
X04025Y02856*
X04025Y02855*
X04024Y02855*
X04023Y02854*
X04022Y02854*
X04022Y02853*
X04021Y02852*
X04021Y02851*
X0402Y0285*
X0402Y02848*
X0402Y02847*
X0402Y02845*
X0401*
X0401Y02847*
X0401Y02848*
X04009Y0285*
X04009Y02851*
X04009Y02852*
X04008Y02853*
X04007Y02854*
X04007Y02854*
X04006Y02855*
X04005Y02855*
X04025*
Y02874*
X04025Y02873*
G37*
G36*
X04045Y02754D02*
X04045Y02746D01*
X04045Y02746*
X04045Y02746*
X0403Y02746*
X0403Y02746*
X04031Y02746*
X04032Y02747*
X04033Y02747*
X04033Y02748*
X04034Y02749*
X04034Y02751*
X04034Y02752*
X04034Y02754*
X04035Y02756*
X04045*
X04045Y02754*
G37*
G36*
X03555Y0329D02*
X03565Y03286D01*
X03569Y03285*
X03575Y03283*
X03577Y03283*
X0358Y03283*
X03582Y03282*
X03586Y03272*
X03583Y03272*
X0358Y03272*
X03577Y03271*
X03574Y0327*
X03572Y03269*
X0357Y03267*
X03568Y03265*
X03566Y03263*
X03564Y03261*
X03563Y03258*
X03551Y03292*
X03555Y0329*
G37*
G36*
X03783Y0328D02*
X03784Y03278D01*
X03786Y03277*
X03787Y03277*
X03788Y03276*
X03789Y03276*
X03791Y03276*
X03792Y03276*
X03793Y03277*
X03794Y03277*
X03784Y03257*
Y03258*
X03783Y0326*
X03783Y03261*
X03782Y03263*
X03782Y03265*
X0378Y03266*
X03779Y03268*
X03778Y0327*
X03774Y03274*
X03781Y03281*
X03783Y0328*
G37*
G36*
X03842Y03269D02*
X03844Y03267D01*
X03846Y03265*
X03848Y03264*
X0385Y03262*
X03853Y03261*
X03855Y03261*
X03858Y0326*
X03861Y0326*
X03865Y0326*
Y0325*
X03861Y03249*
X03858Y03249*
X03855Y03248*
X03853Y03248*
X0385Y03247*
X03848Y03245*
X03846Y03244*
X03844Y03242*
X03842Y0324*
X03841Y03238*
Y03271*
X03842Y03269*
G37*
G36*
X03919Y03184D02*
X03919Y03182D01*
X03919Y03181*
X03919Y03179*
X0392Y03178*
X0392Y03177*
X03921Y03177*
X03922Y03176*
X03923Y03176*
X03924Y03176*
X03909Y03176*
X03909Y03176*
X03909Y03176*
X03909Y03181*
X03909Y03186*
X03919*
X03919Y03184*
G37*
G36*
X03935Y03113D02*
X03935Y03113D01*
X03934Y03112*
X03933Y03112*
X03933Y03111*
X03932Y0311*
X03932Y03108*
X03932Y03107*
X03931Y03105*
X03931Y03103*
X03921*
X03921Y03105*
X03921Y03107*
X03921Y03108*
X03921Y0311*
X0392Y03111*
X0392Y03112*
X03919Y03112*
X03918Y03113*
X03917Y03113*
X03916Y03113*
X03936*
X03935Y03113*
G37*
G36*
X03931Y03017D02*
X03932Y03016D01*
X03932Y03014*
X03932Y03013*
X03933Y03012*
X03933Y03011*
X03934Y0301*
X03935Y0301*
X03935Y03009*
X03936Y03009*
X03916*
X03917Y03009*
X03918Y0301*
X03919Y0301*
X0392Y03011*
X0392Y03012*
X03921Y03013*
X03921Y03014*
X03921Y03016*
X03921Y03017*
X03921Y03019*
X03931*
X03931Y03017*
G37*
G36*
X03939Y0299D02*
X03938Y02989D01*
X03938Y02989*
X03937Y02988*
X03936Y02987*
X03936Y02986*
X03936Y02985*
X03935Y02983*
X03935Y02982*
X03935Y0298*
X03925*
X03925Y02982*
X03925Y02983*
X03925Y02985*
X03924Y02986*
X03924Y02987*
X03923Y02988*
X03923Y02989*
X03922Y02989*
X03921Y0299*
X0392Y0299*
X0394*
X03939Y0299*
G37*
G36*
X03935Y02882D02*
X03935Y02881D01*
X03936Y02879*
X03936Y02878*
X03936Y02877*
X03937Y02876*
X03938Y02875*
X03938Y02875*
X03939Y02874*
X0394Y02874*
X0392*
X03921Y02874*
X03922Y02875*
X03923Y02875*
X03923Y02876*
X03924Y02877*
X03924Y02878*
X03925Y02879*
X03925Y02881*
X03925Y02882*
X03925Y02884*
X03935*
X03935Y02882*
G37*
G36*
X03939Y02683D02*
X03939Y02673D01*
X03929*
X03929Y02675*
X03929Y02677*
X03929Y02678*
X03928Y0268*
X03928Y02681*
X03927Y02682*
X03927Y02682*
X03926Y02683*
X03925Y02683*
X03924Y02683*
X03939Y02683*
G37*
G36*
X0394Y02656D02*
X0394Y02653D01*
X03941Y02651*
X03942Y02648*
X03943Y02645*
X03944Y02643*
X03946Y0264*
X03948Y02637*
X0395Y02635*
X03952Y02632*
X03917*
X03919Y02635*
X03922Y02637*
X03923Y0264*
X03925Y02643*
X03926Y02645*
X03928Y02648*
X03928Y02651*
X03929Y02653*
X03929Y02656*
X0393Y02659*
X0394*
X0394Y02656*
G37*
G36*
X045Y02484D02*
X045Y02484D01*
X045Y02484*
X045Y02484*
X04501Y02484*
X04502Y02484*
X04505Y02484*
Y02474*
X04497Y02473*
X045Y02484*
X045Y02484*
G37*
G36*
X04495Y02267D02*
X04493Y02265D01*
X04491Y02263*
X04489Y02261*
X04488Y02258*
X04487Y02255*
X04486Y02253*
X04485Y0225*
X04485Y02246*
X04485Y02243*
X04485Y0224*
X0446Y02265*
X04463Y02265*
X04466Y02265*
X0447Y02265*
X04473Y02266*
X04475Y02267*
X04478Y02268*
X04481Y02269*
X04483Y02271*
X04485Y02273*
X04487Y02275*
X04495Y02267*
G37*
G54D14*
X0444Y01569D02*
D01*
X04439Y01565*
X04439Y01562*
X04439Y01559*
X04439Y01556*
X04439Y01553*
X0444Y0155*
X03934Y02661D02*
Y02702D01*
X03935Y02615D02*
Y0266D01*
X03921Y02715D02*
X03934Y02702D01*
Y02661D02*
X03935Y0266D01*
X03914Y03157D02*
Y03205D01*
X03865Y03255D02*
X03914Y03205D01*
X03815Y03255D02*
X03865D01*
X03914Y03157D02*
X03926Y03145D01*
Y03003D02*
Y03145D01*
X04745Y028D02*
X04802Y02857D01*
X04815*
X04745Y0247D02*
Y028D01*
X04769Y02454D02*
Y02789D01*
X0479Y0281*
X04665Y0239D02*
X04745Y0247D01*
X04665Y01785D02*
Y0239D01*
X04685Y0237D02*
X04769Y02454D01*
X04685Y01775D02*
Y0237D01*
X04705Y0176D02*
Y02347D01*
X04375Y0156D02*
X04385D01*
X04705Y02347D02*
X04815Y02457D01*
X0457Y0169D02*
X04665Y01785D01*
X04215Y0169D02*
X0457D01*
X04085Y0156D02*
X04215Y0169D01*
X04815Y03557D02*
X04817D01*
X0486Y03514*
Y02838D02*
Y03514D01*
X0486Y02838D02*
X0486Y02838D01*
X0486Y02825D02*
Y02838D01*
X0479Y0281D02*
X04845D01*
X0486Y02825*
X04185Y01555D02*
X04199Y01569D01*
X04595Y0165D02*
X04705Y0176D01*
X0458Y0167D02*
X04685Y01775D01*
X0433Y0167D02*
X0458D01*
X04229Y01569D02*
X0433Y0167D01*
X04199Y01569D02*
X04229D01*
X04475Y0165D02*
X04595D01*
X04385Y0156D02*
X04475Y0165D01*
X0449Y0163D02*
X04605D01*
X0444Y01579D02*
X0449Y0163D01*
X0433Y01514D02*
X04409D01*
X04285Y0156D02*
X0433Y01514D01*
X04185Y01555D02*
Y0156D01*
X04729Y01754D02*
Y02172D01*
X04815Y02257*
X04605Y0163D02*
X04729Y01754D01*
X0475Y02092D02*
X04815Y02157D01*
X04625Y01605D02*
X0475Y0173D01*
Y02092*
X04485Y0156D02*
X0453Y01605D01*
X04625*
X04409Y01514D02*
X0444Y01545D01*
Y01569D02*
Y01579D01*
Y01545D02*
Y0155D01*
X0448Y02479D02*
X04505D01*
X04475Y02485D02*
X0448Y02479D01*
X0453Y0231D02*
Y02455D01*
X04505Y02479D02*
X0453Y02455D01*
X0446Y0224D02*
X0453Y0231D01*
X0404Y02726D02*
Y0279D01*
X04028Y02715D02*
X0404Y02726D01*
X04009Y02865D02*
X04015D01*
Y02814D02*
Y0286D01*
Y02865D02*
X04069D01*
X04015Y02814D02*
X0404Y0279D01*
X04009Y02865D02*
X0401D01*
X04015Y0286*
X04069Y02865D02*
X04111Y02906D01*
X04125*
X0393Y02865D02*
Y03D01*
X03926Y03003D02*
X0393Y03D01*
X03778Y03277D02*
X038Y03255D01*
X03818*
X03547Y03277D02*
X03778D01*
X0354Y0327D02*
X03547Y03277D01*
G54D39*
X04685Y0156D03*
X04585D03*
X04485D03*
X04385D03*
X04285D03*
X04185D03*
X04085D03*
X03815Y03555D03*
Y03455D03*
Y03355D03*
Y03255D03*
Y03155D03*
Y03055D03*
Y02955D03*
Y02855D03*
Y02755D03*
Y02655D03*
Y02555D03*
Y02455D03*
Y02355D03*
Y02255D03*
Y02155D03*
Y02055D03*
Y01955D03*
Y01855D03*
Y01755D03*
X04815Y03557D03*
Y03457D03*
Y03357D03*
Y03257D03*
Y03157D03*
Y03057D03*
Y02957D03*
Y02857D03*
Y02757D03*
Y02657D03*
Y02557D03*
Y02457D03*
Y02357D03*
Y02257D03*
Y02157D03*
Y02057D03*
Y01957D03*
Y01857D03*
Y01757D03*
X0497Y02685D03*
X0496Y03455D03*
G54D40*
X03985Y0156D03*
G54D41*
X03815Y03655D03*
X04815Y03657D03*
X0497Y02585D03*
X0496Y03555D03*
G54D44*
X03973Y04126D03*
Y04225D03*
X0417Y0393D03*
X04366Y04126D03*
Y04225D03*
G54D45*
X04366Y0393D03*
X03973D03*
G54D46*
X0417Y04126D03*
G54D47*
X0354Y0327D03*
Y03191D03*
Y03348D03*
G54D48*
X0354Y03079D03*
Y0346D03*
G54D49*
X03815Y04285D03*
X05035D03*
Y01235D03*
X03815D03*
G54D50*
X04475Y02485D03*
X0446Y0224D03*
X04595Y01855D03*
X03935Y02615D03*
X0432Y0317D03*
G54D51*
X03921Y02715D03*
X04028D03*
X04033Y03145D03*
X03926D03*
G54D52*
X04009Y02865D03*
X0393D03*
Y03D03*
X04009D03*
G54D53*
X04125Y03013D03*
Y02906D03*
M02*