%FSTAX23Y23*%
%MOIN*%
%SFA1B1*%

%IPPOS*%
%ADD11C,0.007870*%
%ADD12C,0.009840*%
%ADD13C,0.005000*%
%ADD14C,0.010000*%
%LNpcb1-1*%
%LPD*%
G54D11*
X03955Y02687D02*
X03994D01*
X03955Y02742D02*
X03994D01*
X03925Y01508D02*
Y01611D01*
X04744*
Y01508D02*
Y01611D01*
X03925Y01508D02*
X04744D01*
X0396Y03172D02*
X03999D01*
X0396Y03117D02*
X03999D01*
X04097Y0294D02*
Y02979D01*
X04152Y0294D02*
Y02979D01*
G54D12*
X03906Y0156D02*
D01*
X03906Y0156*
X03906Y0156*
X03906Y01561*
X03906Y01561*
X03906Y01561*
X03906Y01562*
X03905Y01562*
X03905Y01562*
X03905Y01562*
X03905Y01563*
X03905Y01563*
X03904Y01563*
X03904Y01563*
X03904Y01564*
X03904Y01564*
X03903Y01564*
X03903Y01564*
X03903Y01564*
X03902Y01564*
X03902Y01564*
X03902Y01564*
X03901Y01564*
X03901*
X03901Y01564*
X039Y01564*
X039Y01564*
X039Y01564*
X03899Y01564*
X03899Y01564*
X03899Y01564*
X03898Y01564*
X03898Y01563*
X03898Y01563*
X03898Y01563*
X03897Y01563*
X03897Y01562*
X03897Y01562*
X03897Y01562*
X03897Y01562*
X03896Y01561*
X03896Y01561*
X03896Y01561*
X03896Y0156*
X03896Y0156*
X03896Y0156*
X03896Y01559*
X03896Y01559*
X03896Y01558*
X03896Y01558*
X03896Y01558*
X03897Y01557*
X03897Y01557*
X03897Y01557*
X03897Y01557*
X03897Y01556*
X03898Y01556*
X03898Y01556*
X03898Y01556*
X03898Y01555*
X03899Y01555*
X03899Y01555*
X03899Y01555*
X039Y01555*
X039Y01555*
X039Y01555*
X03901Y01555*
X03901Y01555*
X03901*
X03902Y01555*
X03902Y01555*
X03902Y01555*
X03903Y01555*
X03903Y01555*
X03903Y01555*
X03904Y01555*
X03904Y01555*
X03904Y01556*
X03904Y01556*
X03905Y01556*
X03905Y01556*
X03905Y01557*
X03905Y01557*
X03905Y01557*
X03906Y01557*
X03906Y01558*
X03906Y01558*
X03906Y01558*
X03906Y01559*
X03906Y01559*
X03906Y0156*
G54D13*
X03618Y03073D02*
Y03466D01*
X03461Y03348D02*
Y03466D01*
Y0327D02*
Y03348D01*
Y03191D02*
Y0327D01*
Y03073D02*
Y03191D01*
X03599Y03073D02*
X03618D01*
X03461D02*
X03481D01*
X03599Y03466D02*
X03618D01*
X03461D02*
X03481D01*
X03976Y02845D02*
Y02884D01*
X0395Y0284D02*
X03995D01*
X0395Y02895D02*
X04D01*
X0395Y02975D02*
X0401D01*
X0395Y0303D02*
X0401D01*
X03961Y02985D02*
Y03014D01*
X0389Y02896D02*
X03903D01*
X03896Y02903D02*
Y0289D01*
X0402Y03046D02*
X04033D01*
X04026Y03053D02*
Y0304D01*
G54D14*
X03959Y02783D02*
Y02812D01*
X03944*
X03939Y02807*
Y02798*
X03944Y02793*
X03959*
X03949D02*
X03939Y02783D01*
X03909D02*
X03929D01*
X03909Y02802*
Y02807*
X03914Y02812*
X03924*
X03929Y02807*
X0369Y0305D02*
X0368Y0304D01*
X0366*
X0365Y0305*
Y0306*
X0366Y0307*
X0368*
X0369Y0308*
Y03089*
X0368Y03099*
X0366*
X0365Y03089*
X03709Y03099D02*
X03729D01*
X03719*
Y0304*
X03709Y0305*
X04395Y01484D02*
X04355D01*
X04375*
Y01425*
X04295Y01484D02*
X04335D01*
Y01454*
X04315*
X04335*
Y01425*
X04275Y01484D02*
X04235D01*
X04255*
Y01425*
X04699Y01635D02*
X04673D01*
X0466Y01648*
X04673Y01661*
X04699*
X04693Y01701D02*
X04699Y01694D01*
Y01681*
X04693Y01674*
X04666*
X0466Y01681*
Y01694*
X04666Y01701*
X04693Y01741D02*
X04699Y01734D01*
Y01721*
X04693Y01714*
X04666*
X0466Y01721*
Y01734*
X04666Y01741*
X04593Y01661D02*
X04599Y01654D01*
Y01641*
X04593Y01635*
X04566*
X0456Y01641*
Y01654*
X04566Y01661*
X04579*
Y01648*
X0456Y01674D02*
X04599D01*
X0456Y01701*
X04599*
Y01714D02*
X0456D01*
Y01734*
X04566Y01741*
X04593*
X04599Y01734*
Y01714*
X04493Y01661D02*
X04499Y01654D01*
Y01641*
X04493Y01635*
X04466*
X0446Y01641*
Y01654*
X04466Y01661*
X04493Y01701D02*
X04499Y01694D01*
Y01681*
X04493Y01674*
X04486*
X04479Y01681*
Y01694*
X04473Y01701*
X04466*
X0446Y01694*
Y01681*
X04466Y01674*
X0436Y01635D02*
X04399D01*
Y01654*
X04393Y01661*
X04379*
X04373Y01654*
Y01635*
Y01648D02*
X0436Y01661D01*
X04393Y01701D02*
X04399Y01694D01*
Y01681*
X04393Y01674*
X04386*
X04379Y01681*
Y01694*
X04373Y01701*
X04366*
X0436Y01694*
Y01681*
X04366Y01674*
X04399Y01714D02*
Y01741D01*
Y01728*
X0436*
X0426Y01635D02*
X04286D01*
X04299Y01648*
X04286Y01661*
X0426*
X04279*
Y01635*
X04293Y01674D02*
X04299Y01681D01*
Y01694*
X04293Y01701*
X04266*
X0426Y01694*
Y01681*
X04266Y01674*
X04293*
X04193Y01661D02*
X04199Y01654D01*
Y01641*
X04193Y01635*
X04186*
X04179Y01641*
Y01654*
X04173Y01661*
X04166*
X0416Y01654*
Y01641*
X04166Y01635*
X04199Y01674D02*
X0416D01*
Y01694*
X04166Y01701*
X04193*
X04199Y01694*
Y01674*
X0416Y01714D02*
X04186D01*
X04199Y01728*
X04186Y01741*
X0416*
X04179*
Y01714*
X04093Y01661D02*
X04099Y01654D01*
Y01641*
X04093Y01635*
X04086*
X04079Y01641*
Y01654*
X04073Y01661*
X04066*
X0406Y01654*
Y01641*
X04066Y01635*
X04093Y01701D02*
X04099Y01694D01*
Y01681*
X04093Y01674*
X04066*
X0406Y01681*
Y01694*
X04066Y01701*
X04099Y01714D02*
X0406D01*
X04073*
X04099Y01741*
X04079Y01721*
X0406Y01741*
X03999Y01635D02*
X0396D01*
Y01661*
X03999Y01701D02*
Y01674D01*
X0396*
Y01701*
X03979Y01674D02*
Y01688D01*
X03999Y01714D02*
X0396D01*
Y01734*
X03966Y01741*
X03993*
X03999Y01734*
Y01714*
X0386Y01649D02*
X03879D01*
X03869*
Y016*
X03879Y0159*
X03889*
X03899Y016*
X0384Y01639D02*
X0383Y01649D01*
X0381*
X038Y01639*
Y0163*
X0381Y0162*
X0382*
X0381*
X038Y0161*
Y016*
X0381Y0159*
X0383*
X0384Y016*
X03695Y0338D02*
X03675D01*
X03665Y0337*
X03675Y0336*
X03695*
X0368*
Y0338*
X03665Y0335D02*
X0369D01*
X03695Y03345*
Y03335*
X0369Y0333*
X03665*
Y0332D02*
X03695Y033D01*
X03665D02*
X03695Y0332D01*
Y0323D02*
X03675D01*
X03665Y0322*
X03675Y0321*
X03695*
X0368*
Y0323*
X03695Y032D02*
X03675D01*
Y03195*
X0368Y0319*
X03695*
X0368*
X03675Y03185*
X0368Y0318*
X03695*
X03705Y0317D02*
X03675D01*
Y03155*
X0368Y0315*
X0369*
X03695Y03155*
Y0317*
X03955Y02952D02*
Y02923D01*
X0394*
X03935Y02928*
Y02947*
X0394Y02952*
X03955*
X03925Y02923D02*
X03915D01*
X0392*
Y02952*
X03925Y02947*
X03989Y03213D02*
Y03242D01*
X03974*
X03969Y03237*
Y03227*
X03974Y03223*
X03989*
X03979D02*
X03969Y03213D01*
X03959D02*
X03949D01*
X03954*
Y03242*
X03959Y03237*
X03914Y03213D02*
X03934D01*
X03914Y03232*
Y03237*
X03919Y03242*
X03929*
X03934Y03237*
X04147Y03066D02*
Y03095D01*
X04132*
X04127Y0309*
Y03081*
X04132Y03076*
X04147*
X04137D02*
X04127Y03066D01*
X04097Y03095D02*
X04107Y0309D01*
X04117Y03081*
Y03071*
X04112Y03066*
X04102*
X04097Y03071*
Y03076*
X04102Y03081*
X04117*
X03965Y03087D02*
Y03058D01*
X0395*
X03945Y03063*
Y03082*
X0395Y03087*
X03965*
X03915Y03058D02*
X03935D01*
X03915Y03077*
Y03082*
X0392Y03087*
X0393*
X03935Y03082*
M02*