G04*
G04 #@! TF.GenerationSoftware,Altium Limited,Altium Designer,22.0.2 (36)*
G04*
G04 Layer_Color=32896*
%FSLAX25Y25*%
%MOIN*%
G70*
G04*
G04 #@! TF.SameCoordinates,7C6212BA-1BE9-4310-A8C3-E6ACAF7CF704*
G04*
G04*
G04 #@! TF.FilePolarity,Positive*
G04*
G01*
G75*
%ADD11C,0.00787*%
%ADD12C,0.00984*%
%ADD13C,0.00500*%
%ADD14C,0.01000*%
D11*
X395532Y268744D02*
X399468D01*
X395532Y274256D02*
X399468D01*
X392516Y150803D02*
Y161197D01*
X474484D01*
Y150803D02*
Y161197D01*
X392516Y150803D02*
X474484D01*
X396031Y317256D02*
X399969D01*
X396031Y311744D02*
X399969D01*
X409744Y294032D02*
Y297969D01*
X415256Y294032D02*
Y297969D01*
D12*
X390646Y156000D02*
G03*
X390646Y156000I-492J0D01*
G01*
D13*
X361874Y307315D02*
Y346685D01*
X346126Y334874D02*
Y346685D01*
Y327000D02*
Y334874D01*
Y319126D02*
Y327000D01*
Y307315D02*
Y319126D01*
X359918Y307315D02*
X361874D01*
X346126D02*
X348182D01*
X359918Y346685D02*
X361874D01*
X346126D02*
X348182D01*
X397638Y284575D02*
Y288425D01*
X395000Y284000D02*
X399500D01*
X395000Y289500D02*
X400000D01*
X395000Y297500D02*
X401000D01*
X395000Y303000D02*
X401000D01*
X396162Y298575D02*
Y301425D01*
X389000Y289666D02*
X390333D01*
X389666Y290333D02*
Y289000D01*
X402000Y304666D02*
X403333D01*
X402666Y305333D02*
Y304000D01*
D14*
X395900Y278300D02*
Y281299D01*
X394401D01*
X393901Y280799D01*
Y279800D01*
X394401Y279300D01*
X395900D01*
X394900D02*
X393901Y278300D01*
X390902D02*
X392901D01*
X390902Y280299D01*
Y280799D01*
X391402Y281299D01*
X392401D01*
X392901Y280799D01*
X369000Y305001D02*
X368000Y304001D01*
X366001D01*
X365001Y305001D01*
Y306000D01*
X366001Y307000D01*
X368000D01*
X369000Y308000D01*
Y308999D01*
X368000Y309999D01*
X366001D01*
X365001Y308999D01*
X370999Y309999D02*
X372999D01*
X371999D01*
Y304001D01*
X370999Y305001D01*
X439500Y148498D02*
X435501D01*
X437501D01*
Y142500D01*
X429503Y148498D02*
X433502D01*
Y145499D01*
X431503D01*
X433502D01*
Y142500D01*
X427504Y148498D02*
X423505D01*
X425504D01*
Y142500D01*
X469999Y163500D02*
X467333D01*
X466000Y164833D01*
X467333Y166166D01*
X469999D01*
X469332Y170165D02*
X469999Y169498D01*
Y168165D01*
X469332Y167499D01*
X466666D01*
X466000Y168165D01*
Y169498D01*
X466666Y170165D01*
X469332Y174163D02*
X469999Y173497D01*
Y172164D01*
X469332Y171497D01*
X466666D01*
X466000Y172164D01*
Y173497D01*
X466666Y174163D01*
X459332Y166166D02*
X459999Y165499D01*
Y164166D01*
X459332Y163500D01*
X456666D01*
X456000Y164166D01*
Y165499D01*
X456666Y166166D01*
X457999D01*
Y164833D01*
X456000Y167499D02*
X459999D01*
X456000Y170165D01*
X459999D01*
Y171497D02*
X456000D01*
Y173497D01*
X456666Y174163D01*
X459332D01*
X459999Y173497D01*
Y171497D01*
X449332Y166166D02*
X449999Y165499D01*
Y164166D01*
X449332Y163500D01*
X446666D01*
X446000Y164166D01*
Y165499D01*
X446666Y166166D01*
X449332Y170165D02*
X449999Y169498D01*
Y168165D01*
X449332Y167499D01*
X448666D01*
X447999Y168165D01*
Y169498D01*
X447333Y170165D01*
X446666D01*
X446000Y169498D01*
Y168165D01*
X446666Y167499D01*
X436000Y163500D02*
X439999D01*
Y165499D01*
X439332Y166166D01*
X437999D01*
X437333Y165499D01*
Y163500D01*
Y164833D02*
X436000Y166166D01*
X439332Y170165D02*
X439999Y169498D01*
Y168165D01*
X439332Y167499D01*
X438666D01*
X437999Y168165D01*
Y169498D01*
X437333Y170165D01*
X436666D01*
X436000Y169498D01*
Y168165D01*
X436666Y167499D01*
X439999Y171497D02*
Y174163D01*
Y172830D01*
X436000D01*
X426000Y163500D02*
X428666D01*
X429999Y164833D01*
X428666Y166166D01*
X426000D01*
X427999D01*
Y163500D01*
X429332Y167499D02*
X429999Y168165D01*
Y169498D01*
X429332Y170165D01*
X426666D01*
X426000Y169498D01*
Y168165D01*
X426666Y167499D01*
X429332D01*
X419332Y166166D02*
X419999Y165499D01*
Y164166D01*
X419332Y163500D01*
X418666D01*
X417999Y164166D01*
Y165499D01*
X417333Y166166D01*
X416666D01*
X416000Y165499D01*
Y164166D01*
X416666Y163500D01*
X419999Y167499D02*
X416000D01*
Y169498D01*
X416666Y170165D01*
X419332D01*
X419999Y169498D01*
Y167499D01*
X416000Y171497D02*
X418666D01*
X419999Y172830D01*
X418666Y174163D01*
X416000D01*
X417999D01*
Y171497D01*
X409332Y166166D02*
X409999Y165499D01*
Y164166D01*
X409332Y163500D01*
X408666D01*
X407999Y164166D01*
Y165499D01*
X407333Y166166D01*
X406666D01*
X406000Y165499D01*
Y164166D01*
X406666Y163500D01*
X409332Y170165D02*
X409999Y169498D01*
Y168165D01*
X409332Y167499D01*
X406666D01*
X406000Y168165D01*
Y169498D01*
X406666Y170165D01*
X409999Y171497D02*
X406000D01*
X407333D01*
X409999Y174163D01*
X407999Y172164D01*
X406000Y174163D01*
X399999Y163500D02*
X396000D01*
Y166166D01*
X399999Y170165D02*
Y167499D01*
X396000D01*
Y170165D01*
X397999Y167499D02*
Y168832D01*
X399999Y171497D02*
X396000D01*
Y173497D01*
X396666Y174163D01*
X399332D01*
X399999Y173497D01*
Y171497D01*
X386000Y164999D02*
X387999D01*
X386999D01*
Y160001D01*
X387999Y159001D01*
X388999D01*
X389998Y160001D01*
X384000Y163999D02*
X383001Y164999D01*
X381001D01*
X380002Y163999D01*
Y163000D01*
X381001Y162000D01*
X382001D01*
X381001D01*
X380002Y161000D01*
Y160001D01*
X381001Y159001D01*
X383001D01*
X384000Y160001D01*
X369500Y338000D02*
X367501D01*
X366501Y337000D01*
X367501Y336001D01*
X369500D01*
X368001D01*
Y338000D01*
X366501Y335001D02*
X369001D01*
X369500Y334501D01*
Y333502D01*
X369001Y333002D01*
X366501D01*
Y332002D02*
X369500Y330003D01*
X366501D02*
X369500Y332002D01*
Y323005D02*
X367501D01*
X366501Y322005D01*
X367501Y321006D01*
X369500D01*
X368001D01*
Y323005D01*
X369500Y320006D02*
X367501D01*
Y319506D01*
X368001Y319006D01*
X369500D01*
X368001D01*
X367501Y318506D01*
X368001Y318006D01*
X369500D01*
X370500Y317007D02*
X367501D01*
Y315507D01*
X368001Y315007D01*
X369001D01*
X369500Y315507D01*
Y317007D01*
X395500Y295299D02*
Y292300D01*
X394001D01*
X393501Y292800D01*
Y294799D01*
X394001Y295299D01*
X395500D01*
X392501Y292300D02*
X391501D01*
X392001D01*
Y295299D01*
X392501Y294799D01*
X398900Y321300D02*
Y324299D01*
X397400D01*
X396901Y323799D01*
Y322799D01*
X397400Y322300D01*
X398900D01*
X397900D02*
X396901Y321300D01*
X395901D02*
X394901D01*
X395401D01*
Y324299D01*
X395901Y323799D01*
X391402Y321300D02*
X393402D01*
X391402Y323299D01*
Y323799D01*
X391902Y324299D01*
X392902D01*
X393402Y323799D01*
X414700Y306600D02*
Y309599D01*
X413201D01*
X412701Y309099D01*
Y308100D01*
X413201Y307600D01*
X414700D01*
X413700D02*
X412701Y306600D01*
X409702Y309599D02*
X410701Y309099D01*
X411701Y308100D01*
Y307100D01*
X411201Y306600D01*
X410202D01*
X409702Y307100D01*
Y307600D01*
X410202Y308100D01*
X411701D01*
X396500Y308799D02*
Y305800D01*
X395001D01*
X394501Y306300D01*
Y308299D01*
X395001Y308799D01*
X396500D01*
X391502Y305800D02*
X393501D01*
X391502Y307799D01*
Y308299D01*
X392002Y308799D01*
X393001D01*
X393501Y308299D01*
M02*
