G04*
G04 #@! TF.GenerationSoftware,Altium Limited,Altium Designer,22.0.2 (36)*
G04*
G04 Layer_Color=65535*
%FSLAX25Y25*%
%MOIN*%
G70*
G04*
G04 #@! TF.SameCoordinates,7C6212BA-1BE9-4310-A8C3-E6ACAF7CF704*
G04*
G04*
G04 #@! TF.FilePolarity,Positive*
G04*
G01*
G75*
%ADD10C,0.01339*%
%ADD11C,0.00787*%
%ADD12C,0.00984*%
%ADD13C,0.00500*%
%ADD14C,0.01000*%
%ADD15C,0.00800*%
D10*
X444441Y412685D02*
G03*
X444441Y412685I-669J0D01*
G01*
D11*
X452236Y234760D02*
G03*
X452236Y234760I-394J0D01*
G01*
X489709Y315018D02*
Y327982D01*
X503291Y315018D02*
Y328082D01*
X442122Y366453D02*
X444878D01*
X442122Y360547D02*
X444878D01*
X449799Y331625D02*
Y346375D01*
X462201Y331625D02*
Y346375D01*
X438189Y332418D02*
Y345400D01*
X424606Y332418D02*
Y345482D01*
X459047Y238622D02*
Y241378D01*
X464953Y238622D02*
Y241378D01*
X455299Y262125D02*
Y276875D01*
X467701Y262125D02*
Y276875D01*
X440319Y217905D02*
X442681D01*
X441500Y216724D02*
Y219087D01*
X432642Y184736D02*
X434118D01*
X448882D02*
X450358D01*
Y214264D01*
X432642D02*
X434118D01*
X448882D02*
X450358D01*
X432642Y184736D02*
Y214264D01*
X421350Y196031D02*
Y199969D01*
X427650Y196031D02*
Y199969D01*
X469291Y207918D02*
Y221082D01*
X455709Y207918D02*
Y221082D01*
X445418Y292709D02*
X458582D01*
X445418Y306291D02*
X458582D01*
X449291Y262918D02*
Y276182D01*
X435709Y262918D02*
Y276182D01*
X459567Y392768D02*
X464067D01*
X453268Y399067D02*
X459567Y392768D01*
X480433D02*
X486732Y399067D01*
X475815Y392768D02*
X480380D01*
X453268Y399067D02*
Y426232D01*
X453268D02*
X464185D01*
X475815D02*
X486732D01*
Y399067D02*
Y426232D01*
X386500Y169000D02*
Y372000D01*
X376500Y169000D02*
X386500D01*
X376500D02*
Y372000D01*
X386500D01*
X486500Y169295D02*
Y372295D01*
X476500Y169295D02*
X486500D01*
X476500D02*
Y372295D01*
X486500D01*
X421350Y242531D02*
Y246468D01*
X427650Y242531D02*
Y246468D01*
X405350Y242531D02*
Y246468D01*
X411650Y242531D02*
Y246468D01*
X491803Y252516D02*
X502197D01*
Y274484D01*
X491803D02*
X502197D01*
X491803Y252516D02*
Y274484D01*
X490803Y361484D02*
X501197D01*
X490803Y339516D02*
Y361484D01*
Y339516D02*
X501197D01*
Y361484D01*
X399709Y332400D02*
Y345418D01*
X413291Y332418D02*
Y345418D01*
D12*
X381992Y374362D02*
G03*
X381992Y374362I-492J0D01*
G01*
X481992Y374658D02*
G03*
X481992Y374658I-492J0D01*
G01*
X497492Y250016D02*
G03*
X497492Y250016I-492J0D01*
G01*
X496492Y363984D02*
G03*
X496492Y363984I-492J0D01*
G01*
D13*
X399284Y426465D02*
Y429614D01*
X434717Y426465D02*
Y429614D01*
X392590Y426465D02*
X399284D01*
X434717D02*
X441409D01*
Y383157D02*
Y426465D01*
X392590Y383157D02*
Y426465D01*
Y383157D02*
X441409D01*
X414295Y222035D02*
X418705D01*
X414295Y228965D02*
X418705D01*
X439441Y244248D02*
X442138D01*
X439441Y232752D02*
Y236079D01*
Y240921D02*
Y244248D01*
Y232752D02*
X442138D01*
D14*
X420751Y212501D02*
Y215499D01*
X422251D01*
X422750Y215000D01*
Y214000D01*
X422251Y213500D01*
X420751D01*
X421751D02*
X422750Y212501D01*
X423750D02*
X424750D01*
X424250D01*
Y215499D01*
X423750Y215000D01*
X426249Y212501D02*
X427249D01*
X426749D01*
Y215499D01*
X426249Y215000D01*
X385499Y148296D02*
X382500D01*
Y143797D01*
X385499D01*
X382500Y146047D02*
X383999D01*
X389998Y147546D02*
X389248Y148296D01*
X387748D01*
X386999Y147546D01*
Y146796D01*
X387748Y146047D01*
X389248D01*
X389998Y145297D01*
Y144547D01*
X389248Y143797D01*
X387748D01*
X386999Y144547D01*
X391497Y143797D02*
Y148296D01*
X393746D01*
X394496Y147546D01*
Y146047D01*
X393746Y145297D01*
X391497D01*
X403493Y147546D02*
X402743Y148296D01*
X401244D01*
X400494Y147546D01*
Y146796D01*
X401244Y146047D01*
X402743D01*
X403493Y145297D01*
Y144547D01*
X402743Y143797D01*
X401244D01*
X400494Y144547D01*
X404993Y142298D02*
Y146796D01*
X407242D01*
X407992Y146047D01*
Y144547D01*
X407242Y143797D01*
X404993D01*
X411741D02*
X410241D01*
X409491Y144547D01*
Y146047D01*
X410241Y146796D01*
X411741D01*
X412490Y146047D01*
Y145297D01*
X409491D01*
X416989Y146796D02*
X414740D01*
X413990Y146047D01*
Y144547D01*
X414740Y143797D01*
X416989D01*
X419238Y147546D02*
Y146796D01*
X418488D01*
X419988D01*
X419238D01*
Y144547D01*
X419988Y143797D01*
X422237Y146796D02*
Y143797D01*
Y145297D01*
X422987Y146047D01*
X423737Y146796D01*
X424486D01*
X426736D02*
Y144547D01*
X427486Y143797D01*
X429735D01*
Y146796D01*
X431234Y143797D02*
Y146796D01*
X431984D01*
X432734Y146047D01*
Y143797D01*
Y146047D01*
X433484Y146796D01*
X434233Y146047D01*
Y143797D01*
X440231D02*
Y146796D01*
X441731Y148296D01*
X443230Y146796D01*
Y143797D01*
Y146047D01*
X440231D01*
X444730Y143797D02*
Y146796D01*
X446979D01*
X447729Y146047D01*
Y143797D01*
X449978Y146796D02*
X451478D01*
X452227Y146047D01*
Y143797D01*
X449978D01*
X449228Y144547D01*
X449978Y145297D01*
X452227D01*
X453727Y143797D02*
X455227D01*
X454477D01*
Y148296D01*
X453727D01*
X457476Y146796D02*
Y144547D01*
X458226Y143797D01*
X460475D01*
Y143047D01*
X459725Y142298D01*
X458975D01*
X460475Y143797D02*
Y146796D01*
X461974D02*
X464973D01*
X461974Y143797D01*
X464973D01*
X468722D02*
X467223D01*
X466473Y144547D01*
Y146047D01*
X467223Y146796D01*
X468722D01*
X469472Y146047D01*
Y145297D01*
X466473D01*
X470971Y146796D02*
Y143797D01*
Y145297D01*
X471721Y146047D01*
X472471Y146796D01*
X473221D01*
X479969D02*
X481468Y143797D01*
X482968Y146796D01*
X484467Y143797D02*
X485967D01*
X485217D01*
Y148296D01*
X484467Y147546D01*
X488216Y143797D02*
Y144547D01*
X488966D01*
Y143797D01*
X488216D01*
X491965Y147546D02*
X492715Y148296D01*
X494214D01*
X494964Y147546D01*
Y144547D01*
X494214Y143797D01*
X492715D01*
X491965Y144547D01*
Y147546D01*
X383999Y134500D02*
X382500Y135999D01*
Y137499D01*
X383999Y138998D01*
X389248Y138248D02*
X388498Y138998D01*
X386999D01*
X386249Y138248D01*
Y135249D01*
X386999Y134500D01*
X388498D01*
X389248Y135249D01*
X390747Y134500D02*
X392247Y135999D01*
Y137499D01*
X390747Y138998D01*
X398995Y134500D02*
Y138998D01*
X401994Y134500D01*
Y138998D01*
X403493Y134500D02*
X404993D01*
X404243D01*
Y137499D01*
X403493D01*
X407242Y134500D02*
X409491D01*
X410241Y135249D01*
X409491Y135999D01*
X407992D01*
X407242Y136749D01*
X407992Y137499D01*
X410241D01*
X414740D02*
X412490D01*
X411741Y136749D01*
Y135249D01*
X412490Y134500D01*
X414740D01*
X416239Y138998D02*
Y134500D01*
Y136749D01*
X416989Y137499D01*
X418488D01*
X419238Y136749D01*
Y134500D01*
X421487Y137499D02*
X422987D01*
X423737Y136749D01*
Y134500D01*
X421487D01*
X420738Y135249D01*
X421487Y135999D01*
X423737D01*
X425236Y137499D02*
Y135249D01*
X425986Y134500D01*
X428235D01*
Y133750D01*
X427486Y133000D01*
X426736D01*
X428235Y134500D02*
Y137499D01*
X437232Y138998D02*
X435733D01*
X436483D01*
Y135249D01*
X435733Y134500D01*
X434983D01*
X434233Y135249D01*
X439482Y134500D02*
X440981D01*
X441731Y135249D01*
Y136749D01*
X440981Y137499D01*
X439482D01*
X438732Y136749D01*
Y135249D01*
X439482Y134500D01*
X443230D02*
X445480D01*
X446229Y135249D01*
X445480Y135999D01*
X443980D01*
X443230Y136749D01*
X443980Y137499D01*
X446229D01*
X447729Y138998D02*
Y134500D01*
Y136749D01*
X448479Y137499D01*
X449978D01*
X450728Y136749D01*
Y134500D01*
X452227D02*
X453727D01*
X452977D01*
Y137499D01*
X452227D01*
X456726Y133750D02*
X457476Y134500D01*
Y135249D01*
X456726D01*
Y134500D01*
X457476D01*
X456726Y133750D01*
X455976Y133000D01*
X467972Y134500D02*
X464973D01*
X467972Y137499D01*
Y138248D01*
X467223Y138998D01*
X465723D01*
X464973Y138248D01*
X469472D02*
X470222Y138998D01*
X471721D01*
X472471Y138248D01*
Y135249D01*
X471721Y134500D01*
X470222D01*
X469472Y135249D01*
Y138248D01*
X476969Y134500D02*
X473971D01*
X476969Y137499D01*
Y138248D01*
X476220Y138998D01*
X474720D01*
X473971Y138248D01*
X481468Y134500D02*
X478469D01*
X481468Y137499D01*
Y138248D01*
X480718Y138998D01*
X479219D01*
X478469Y138248D01*
X382000Y416684D02*
X380001D01*
X381001D01*
Y411686D01*
X380001Y410686D01*
X379001D01*
X378002Y411686D01*
X387998Y416684D02*
X385999Y415684D01*
X384000Y413685D01*
Y411686D01*
X384999Y410686D01*
X386999D01*
X387998Y411686D01*
Y412685D01*
X386999Y413685D01*
X384000D01*
X403500Y425500D02*
Y428832D01*
X405166Y430498D01*
X406832Y428832D01*
Y425500D01*
Y427999D01*
X403500D01*
X408498Y430498D02*
Y426333D01*
X409331Y425500D01*
X410998D01*
X411831Y426333D01*
Y430498D01*
X413497D02*
X416829Y425500D01*
Y430498D02*
X413497Y425500D01*
X423493Y430498D02*
X425160D01*
X424327D01*
Y425500D01*
X423493D01*
X425160D01*
X427659D02*
Y430498D01*
X430991Y425500D01*
Y430498D01*
X501500Y249000D02*
X503499D01*
X502500Y249999D02*
Y248000D01*
X508000Y253500D02*
X505001D01*
X506001Y254500D01*
X505001Y255499D01*
X508000D01*
X505001Y256499D02*
Y257499D01*
Y256999D01*
X508000D01*
Y256499D01*
Y257499D01*
X505501Y260998D02*
X505001Y260498D01*
Y259498D01*
X505501Y258998D01*
X507500D01*
X508000Y259498D01*
Y260498D01*
X507500Y260998D01*
X504001Y343000D02*
X507000D01*
Y344499D01*
X506500Y344999D01*
X506000D01*
X505501Y344499D01*
Y343000D01*
Y344499D01*
X505001Y344999D01*
X504501D01*
X504001Y344499D01*
Y343000D01*
Y345999D02*
Y347998D01*
Y346999D01*
X507000D01*
Y348998D02*
X504001D01*
X507000Y350997D01*
X504001D01*
X494501Y301501D02*
Y304500D01*
X496000D01*
X496500Y304000D01*
Y303000D01*
X496000Y302500D01*
X494501D01*
X495500D02*
X496500Y301501D01*
X497500D02*
X498499D01*
X497999D01*
Y304500D01*
X497500Y304000D01*
X438500Y372000D02*
X438000Y372499D01*
X437001D01*
X436501Y372000D01*
Y370000D01*
X437001Y369500D01*
X438000D01*
X438500Y370000D01*
X440999Y369500D02*
Y372499D01*
X439500Y371000D01*
X441499D01*
X457751Y354501D02*
Y357500D01*
X459251D01*
X459751Y357000D01*
Y356000D01*
X459251Y355500D01*
X457751D01*
X458751D02*
X459751Y354501D01*
X460750D02*
X461750D01*
X461250D01*
Y357500D01*
X460750Y357000D01*
X464749Y354501D02*
Y357500D01*
X463249Y356000D01*
X465249D01*
X424149Y355331D02*
Y358330D01*
X425648D01*
X426148Y357830D01*
Y356831D01*
X425648Y356331D01*
X424149D01*
X425148D02*
X426148Y355331D01*
X427148D02*
X428148D01*
X427648D01*
Y358330D01*
X427148Y357830D01*
X431646Y358330D02*
X429647D01*
Y356831D01*
X430647Y357330D01*
X431147D01*
X431646Y356831D01*
Y355831D01*
X431147Y355331D01*
X430147D01*
X429647Y355831D01*
X427001Y223500D02*
Y226500D01*
X428500D01*
X429000Y226000D01*
Y225000D01*
X428500Y224500D01*
X427001D01*
X428000D02*
X429000Y223500D01*
X430000Y224000D02*
X430500Y223500D01*
X431499D01*
X431999Y224000D01*
Y226000D01*
X431499Y226500D01*
X430500D01*
X430000Y226000D01*
Y225500D01*
X430500Y225000D01*
X431999D01*
X469500Y247000D02*
X469000Y247499D01*
X468001D01*
X467501Y247000D01*
Y245000D01*
X468001Y244500D01*
X469000D01*
X469500Y245000D01*
X472499Y244500D02*
X470500D01*
X472499Y246500D01*
Y247000D01*
X471999Y247499D01*
X471000D01*
X470500Y247000D01*
X453000Y239500D02*
X451000D01*
X450500Y239000D01*
Y238000D01*
X451000Y237501D01*
X453000D01*
X453500Y238000D01*
Y239000D01*
X452500Y238500D02*
X453500Y239500D01*
Y239000D02*
X453000Y239500D01*
X453500Y240500D02*
Y241499D01*
Y241000D01*
X450500D01*
X451000Y240500D01*
X464501Y285000D02*
Y288000D01*
X466000D01*
X466500Y287500D01*
Y286500D01*
X466000Y286000D01*
X464501D01*
X465500D02*
X466500Y285000D01*
X467500Y288000D02*
X469499D01*
Y287500D01*
X467500Y285500D01*
Y285000D01*
X435500Y220500D02*
X435000Y221000D01*
X434001D01*
X433501Y220500D01*
Y218500D01*
X434001Y218001D01*
X435000D01*
X435500Y218500D01*
X436500Y220500D02*
X437000Y221000D01*
X437999D01*
X438499Y220500D01*
Y220000D01*
X437999Y219500D01*
X437500D01*
X437999D01*
X438499Y219000D01*
Y218500D01*
X437999Y218001D01*
X437000D01*
X436500Y218500D01*
X459251Y194501D02*
Y197500D01*
X460751D01*
X461251Y197000D01*
Y196000D01*
X460751Y195500D01*
X459251D01*
X460251D02*
X461251Y194501D01*
X462250D02*
X463250D01*
X462750D01*
Y197500D01*
X462250Y197000D01*
X464749D02*
X465249Y197500D01*
X466249D01*
X466749Y197000D01*
Y195000D01*
X466249Y194501D01*
X465249D01*
X464749Y195000D01*
Y197000D01*
X442501Y310000D02*
Y313000D01*
X444000D01*
X444500Y312500D01*
Y311500D01*
X444000Y311000D01*
X442501D01*
X443501D02*
X444500Y310000D01*
X445500Y312500D02*
X446000Y313000D01*
X446999D01*
X447499Y312500D01*
Y312000D01*
X446999Y311500D01*
X446499D01*
X446999D01*
X447499Y311000D01*
Y310500D01*
X446999Y310000D01*
X446000D01*
X445500Y310500D01*
X434501Y285000D02*
Y288000D01*
X436000D01*
X436500Y287500D01*
Y286500D01*
X436000Y286000D01*
X434501D01*
X435500D02*
X436500Y285000D01*
X437500Y287500D02*
X438000Y288000D01*
X438999D01*
X439499Y287500D01*
Y287000D01*
X438999Y286500D01*
X439499Y286000D01*
Y285500D01*
X438999Y285000D01*
X438000D01*
X437500Y285500D01*
Y286000D01*
X438000Y286500D01*
X437500Y287000D01*
Y287500D01*
X438000Y286500D02*
X438999D01*
X455500Y433999D02*
X454500Y434999D01*
X452501D01*
X451501Y433999D01*
Y430001D01*
X452501Y429001D01*
X454500D01*
X455500Y430001D01*
X457499Y429001D02*
X459499D01*
X458499D01*
Y434999D01*
X457499Y433999D01*
X393000Y368999D02*
X391001D01*
X392000D01*
Y364001D01*
X391001Y363001D01*
X390001D01*
X389001Y364001D01*
X394999Y363001D02*
X396999D01*
X395999D01*
Y368999D01*
X394999Y367999D01*
X466500Y369499D02*
X464501D01*
X465501D01*
Y364501D01*
X464501Y363501D01*
X463501D01*
X462502Y364501D01*
X472498Y363501D02*
X468500D01*
X472498Y367500D01*
Y368499D01*
X471499Y369499D01*
X469499D01*
X468500Y368499D01*
X419900Y258000D02*
Y260999D01*
X421399D01*
X421899Y260499D01*
Y259500D01*
X421399Y259000D01*
X419900D01*
X420900D02*
X421899Y258000D01*
X424898Y260999D02*
X422899D01*
Y259500D01*
X423899Y259999D01*
X424399D01*
X424898Y259500D01*
Y258500D01*
X424399Y258000D01*
X423399D01*
X422899Y258500D01*
X403900Y258000D02*
Y260999D01*
X405400D01*
X405899Y260499D01*
Y259500D01*
X405400Y259000D01*
X403900D01*
X404900D02*
X405899Y258000D01*
X408398D02*
Y260999D01*
X406899Y259500D01*
X408898D01*
X495999Y284298D02*
X493999D01*
X494999D01*
Y279300D01*
X493999Y278300D01*
X493000D01*
X492000Y279300D01*
X500997Y278300D02*
Y284298D01*
X497998Y281299D01*
X501997D01*
X494999Y373998D02*
X492999D01*
X493999D01*
Y369000D01*
X492999Y368000D01*
X492000D01*
X491000Y369000D01*
X500997Y373998D02*
X496998D01*
Y370999D01*
X498997Y371999D01*
X499997D01*
X500997Y370999D01*
Y369000D01*
X499997Y368000D01*
X497998D01*
X496998Y369000D01*
X399900Y356200D02*
Y359199D01*
X401400D01*
X401899Y358699D01*
Y357699D01*
X401400Y357200D01*
X399900D01*
X400900D02*
X401899Y356200D01*
X402899D02*
X403899D01*
X403399D01*
Y359199D01*
X402899Y358699D01*
X405398D02*
X405898Y359199D01*
X406898D01*
X407398Y358699D01*
Y358199D01*
X406898Y357699D01*
X406398D01*
X406898D01*
X407398Y357200D01*
Y356700D01*
X406898Y356200D01*
X405898D01*
X405398Y356700D01*
X402500Y178499D02*
Y175583D01*
X403083Y175000D01*
X404249D01*
X404833Y175583D01*
Y178499D01*
X408331Y177916D02*
X407748Y178499D01*
X406582D01*
X405999Y177916D01*
Y177333D01*
X406582Y176749D01*
X407748D01*
X408331Y176166D01*
Y175583D01*
X407748Y175000D01*
X406582D01*
X405999Y175583D01*
X409498Y178499D02*
Y175000D01*
X411247D01*
X411830Y175583D01*
Y176166D01*
X411247Y176749D01*
X409498D01*
X411247D01*
X411830Y177333D01*
Y177916D01*
X411247Y178499D01*
X409498D01*
X416496Y175000D02*
Y178499D01*
X418245D01*
X418828Y177916D01*
Y176749D01*
X418245Y176166D01*
X416496D01*
X421744Y178499D02*
X420577D01*
X419994Y177916D01*
Y175583D01*
X420577Y175000D01*
X421744D01*
X422327Y175583D01*
Y177916D01*
X421744Y178499D01*
X423493Y175000D02*
Y178499D01*
X425243D01*
X425826Y177916D01*
Y176749D01*
X425243Y176166D01*
X423493D01*
X424659D02*
X425826Y175000D01*
X426992Y178499D02*
X429325D01*
X428158D01*
Y175000D01*
X433990Y178499D02*
X436322D01*
X435156D01*
Y175000D01*
X437489Y178499D02*
Y175000D01*
Y176749D01*
X439821D01*
Y178499D01*
Y175000D01*
X440988Y178499D02*
X442154D01*
X441571D01*
Y175000D01*
X440988D01*
X442154D01*
X446236Y177916D02*
X445653Y178499D01*
X444486D01*
X443903Y177916D01*
Y177333D01*
X444486Y176749D01*
X445653D01*
X446236Y176166D01*
Y175583D01*
X445653Y175000D01*
X444486D01*
X443903Y175583D01*
X453234Y177916D02*
X452650Y178499D01*
X451484D01*
X450901Y177916D01*
Y177333D01*
X451484Y176749D01*
X452650D01*
X453234Y176166D01*
Y175583D01*
X452650Y175000D01*
X451484D01*
X450901Y175583D01*
X454400Y178499D02*
X455566D01*
X454983D01*
Y175000D01*
X454400D01*
X455566D01*
X457316Y178499D02*
Y175000D01*
X459065D01*
X459648Y175583D01*
Y177916D01*
X459065Y178499D01*
X457316D01*
X463147D02*
X460815D01*
Y175000D01*
X463147D01*
X460815Y176749D02*
X461981D01*
D15*
X487800Y395799D02*
X489799D01*
X488800Y396799D02*
Y394800D01*
X490799Y396299D02*
X491799Y394300D01*
X492798Y396299D01*
X495298Y394300D02*
X494298D01*
X493798Y394800D01*
Y395799D01*
X494298Y396299D01*
X495298D01*
X495797Y395799D01*
Y395300D01*
X493798D01*
M02*
