G04*
G04 #@! TF.GenerationSoftware,Altium Limited,Altium Designer,22.0.2 (36)*
G04*
G04 Layer_Color=16711935*
%FSLAX25Y25*%
%MOIN*%
G70*
G04*
G04 #@! TF.SameCoordinates,7C6212BA-1BE9-4310-A8C3-E6ACAF7CF704*
G04*
G04*
G04 #@! TF.FilePolarity,Negative*
G04*
G01*
G75*
%ADD34C,0.05524*%
%ADD35O,0.05950X0.11099*%
%ADD36O,0.11099X0.05950*%
%ADD37C,0.05950*%
%ADD38C,0.09658*%
%ADD39C,0.06181*%
%ADD40R,0.06181X0.06181*%
%ADD41R,0.06181X0.06181*%
%ADD42C,0.12800*%
%ADD43C,0.05800*%
%ADD54R,0.04343X0.07099*%
%ADD55R,0.03950X0.02769*%
%ADD56R,0.07099X0.04343*%
D34*
X397315Y412685D02*
D03*
Y422528D02*
D03*
X417000Y393000D02*
D03*
X436685Y412685D02*
D03*
Y422528D02*
D03*
D35*
Y393000D02*
D03*
X397315D02*
D03*
D36*
X417000Y412685D02*
D03*
D37*
X354000Y327000D02*
D03*
Y319126D02*
D03*
Y334874D02*
D03*
D38*
Y307906D02*
D03*
Y346094D02*
D03*
D39*
X468500Y156000D02*
D03*
X458500D02*
D03*
X448500D02*
D03*
X438500D02*
D03*
X428500D02*
D03*
X418500D02*
D03*
X408500D02*
D03*
X381500Y355500D02*
D03*
Y345500D02*
D03*
Y335500D02*
D03*
Y325500D02*
D03*
Y315500D02*
D03*
Y305500D02*
D03*
Y295500D02*
D03*
Y285500D02*
D03*
Y275500D02*
D03*
Y265500D02*
D03*
Y255500D02*
D03*
Y245500D02*
D03*
Y235500D02*
D03*
Y225500D02*
D03*
Y215500D02*
D03*
Y205500D02*
D03*
Y195500D02*
D03*
Y185500D02*
D03*
Y175500D02*
D03*
X481500Y355795D02*
D03*
Y345795D02*
D03*
Y335795D02*
D03*
Y325795D02*
D03*
Y315795D02*
D03*
Y305795D02*
D03*
Y295795D02*
D03*
Y285795D02*
D03*
Y275795D02*
D03*
Y265795D02*
D03*
Y255795D02*
D03*
Y245795D02*
D03*
Y235795D02*
D03*
Y225795D02*
D03*
Y215795D02*
D03*
Y205795D02*
D03*
Y195795D02*
D03*
Y185795D02*
D03*
Y175795D02*
D03*
X497000Y268500D02*
D03*
X496000Y345500D02*
D03*
D40*
X398500Y156000D02*
D03*
D41*
X381500Y365500D02*
D03*
X481500Y365795D02*
D03*
X497000Y258500D02*
D03*
X496000Y355500D02*
D03*
D42*
X381500Y428500D02*
D03*
X503500D02*
D03*
Y123500D02*
D03*
X381500D02*
D03*
D43*
X447500Y248500D02*
D03*
X446000Y224000D02*
D03*
X459500Y185500D02*
D03*
X393500Y261500D02*
D03*
X432000Y317000D02*
D03*
D54*
X392185Y271500D02*
D03*
X402815D02*
D03*
X403315Y314500D02*
D03*
X392685D02*
D03*
D55*
X400937Y286500D02*
D03*
X393063D02*
D03*
Y300000D02*
D03*
X400937D02*
D03*
D56*
X412500Y301315D02*
D03*
Y290685D02*
D03*
M02*
