G04*
G04 #@! TF.GenerationSoftware,Altium Limited,Altium Designer,22.0.2 (36)*
G04*
G04 Layer_Physical_Order=2*
G04 Layer_Color=16711680*
%FSLAX25Y25*%
%MOIN*%
G70*
G04*
G04 #@! TF.SameCoordinates,7C6212BA-1BE9-4310-A8C3-E6ACAF7CF704*
G04*
G04*
G04 #@! TF.FilePolarity,Positive*
G04*
G01*
G75*
%ADD14C,0.01000*%
%ADD39C,0.06181*%
%ADD40R,0.06181X0.06181*%
%ADD41R,0.06181X0.06181*%
%ADD44C,0.04724*%
%ADD45O,0.05150X0.10299*%
%ADD46O,0.10299X0.05150*%
%ADD47C,0.05150*%
%ADD48C,0.08858*%
%ADD49C,0.12000*%
%ADD50C,0.05000*%
%ADD51R,0.03543X0.06299*%
%ADD52R,0.03150X0.01968*%
%ADD53R,0.06299X0.03543*%
G36*
X504176Y441883D02*
X508471Y440288D01*
X510956Y438882D01*
X513068Y437218D01*
X515346Y434708D01*
X517112Y431838D01*
X518265Y428883D01*
X518626Y427432D01*
X518884Y425817D01*
X518814Y126141D01*
X518180Y123334D01*
X517112Y120662D01*
X515543Y118059D01*
X513606Y115794D01*
X511319Y113870D01*
X508471Y112212D01*
X505423Y111107D01*
X502283Y110563D01*
X380683Y110616D01*
X377583Y111245D01*
X374847Y112298D01*
X372181Y113870D01*
X369894Y115794D01*
X367957Y118059D01*
X366298Y120847D01*
X365245Y123583D01*
X364616Y126683D01*
X364434Y288585D01*
X364196Y290004D01*
X363686Y291239D01*
X362953Y292545D01*
X362028Y293696D01*
X360917Y294687D01*
X359512Y295556D01*
X358078Y296123D01*
X356563Y296437D01*
X349573Y296548D01*
X348141Y296815D01*
X346880Y297260D01*
X345678Y297901D01*
X344605Y298699D01*
X343509Y299832D01*
X342632Y301130D01*
X341981Y302598D01*
X341608Y304113D01*
X341500Y348000D01*
X341664Y349708D01*
X342182Y351437D01*
X343032Y353022D01*
X344111Y354339D01*
X345478Y355468D01*
X347063Y356318D01*
X348792Y356836D01*
X350500Y357000D01*
X355500Y357000D01*
X357412Y357205D01*
X359163Y357779D01*
X360806Y358731D01*
X362168Y359955D01*
X363311Y361529D01*
X364077Y363273D01*
X364428Y365159D01*
X364434Y367085D01*
X364616Y425817D01*
X365371Y429325D01*
X366795Y432613D01*
X368811Y435533D01*
X371140Y437833D01*
X373492Y439480D01*
X376449Y440880D01*
X379398Y441691D01*
X382499Y442000D01*
X502283Y442000D01*
X504176Y441883D01*
D02*
G37*
%LPC*%
G36*
X504189Y435500D02*
X502811D01*
X501458Y435231D01*
X500184Y434703D01*
X499038Y433937D01*
X498063Y432962D01*
X497297Y431816D01*
X496769Y430542D01*
X496500Y429189D01*
Y427811D01*
X496769Y426458D01*
X497297Y425184D01*
X498063Y424038D01*
X499038Y423063D01*
X500184Y422297D01*
X501458Y421769D01*
X502811Y421500D01*
X504189D01*
X505542Y421769D01*
X506816Y422297D01*
X507962Y423063D01*
X508937Y424038D01*
X509703Y425184D01*
X510231Y426458D01*
X510500Y427811D01*
Y429189D01*
X510231Y430542D01*
X509703Y431816D01*
X508937Y432962D01*
X507962Y433937D01*
X506816Y434703D01*
X505542Y435231D01*
X504189Y435500D01*
D02*
G37*
G36*
X382189D02*
X380811D01*
X379458Y435231D01*
X378184Y434703D01*
X377038Y433937D01*
X376063Y432962D01*
X375297Y431816D01*
X374769Y430542D01*
X374500Y429189D01*
Y427811D01*
X374769Y426458D01*
X375297Y425184D01*
X376063Y424038D01*
X377038Y423063D01*
X378184Y422297D01*
X379458Y421769D01*
X380811Y421500D01*
X382189D01*
X383542Y421769D01*
X384816Y422297D01*
X385962Y423063D01*
X386937Y424038D01*
X387703Y425184D01*
X388231Y426458D01*
X388500Y427811D01*
Y429189D01*
X388231Y430542D01*
X387703Y431816D01*
X386937Y432962D01*
X385962Y433937D01*
X384816Y434703D01*
X383542Y435231D01*
X382189Y435500D01*
D02*
G37*
G36*
X437128Y425890D02*
X436242D01*
X435387Y425661D01*
X434621Y425218D01*
X433995Y424592D01*
X433552Y423825D01*
X433323Y422970D01*
Y422085D01*
X433552Y421230D01*
X433995Y420463D01*
X434621Y419837D01*
X435387Y419394D01*
X436242Y419165D01*
X437128D01*
X437983Y419394D01*
X438750Y419837D01*
X439375Y420463D01*
X439818Y421230D01*
X440047Y422085D01*
Y422970D01*
X439818Y423825D01*
X439375Y424592D01*
X438750Y425218D01*
X437983Y425661D01*
X437128Y425890D01*
D02*
G37*
G36*
X397758D02*
X396872D01*
X396017Y425661D01*
X395251Y425218D01*
X394624Y424592D01*
X394182Y423825D01*
X393953Y422970D01*
Y422085D01*
X394182Y421230D01*
X394624Y420463D01*
X395251Y419837D01*
X396017Y419394D01*
X396872Y419165D01*
X397758D01*
X398613Y419394D01*
X399379Y419837D01*
X400005Y420463D01*
X400448Y421230D01*
X400677Y422085D01*
Y422970D01*
X400448Y423825D01*
X400005Y424592D01*
X399379Y425218D01*
X398613Y425661D01*
X397758Y425890D01*
D02*
G37*
G36*
X419575Y416291D02*
X417500D01*
Y413185D01*
X423115D01*
X423058Y413618D01*
X422697Y414488D01*
X422124Y415235D01*
X421378Y415808D01*
X420508Y416168D01*
X419575Y416291D01*
D02*
G37*
G36*
X416500D02*
X414425D01*
X413492Y416168D01*
X412622Y415808D01*
X411876Y415235D01*
X411303Y414488D01*
X410942Y413618D01*
X410885Y413185D01*
X416500D01*
Y416291D01*
D02*
G37*
G36*
X437128Y416047D02*
X436242D01*
X435387Y415818D01*
X434621Y415376D01*
X433995Y414749D01*
X433552Y413983D01*
X433323Y413128D01*
Y412242D01*
X433552Y411387D01*
X433995Y410621D01*
X434621Y409995D01*
X435387Y409552D01*
X436242Y409323D01*
X437128D01*
X437983Y409552D01*
X438750Y409995D01*
X439375Y410621D01*
X439818Y411387D01*
X440047Y412242D01*
Y413128D01*
X439818Y413983D01*
X439375Y414749D01*
X438750Y415376D01*
X437983Y415818D01*
X437128Y416047D01*
D02*
G37*
G36*
X397758D02*
X396872D01*
X396017Y415818D01*
X395251Y415376D01*
X394624Y414749D01*
X394182Y413983D01*
X393953Y413128D01*
Y412242D01*
X394182Y411387D01*
X394624Y410621D01*
X395251Y409995D01*
X396017Y409552D01*
X396872Y409323D01*
X397758D01*
X398613Y409552D01*
X399379Y409995D01*
X400005Y410621D01*
X400448Y411387D01*
X400677Y412242D01*
Y413128D01*
X400448Y413983D01*
X400005Y414749D01*
X399379Y415376D01*
X398613Y415818D01*
X397758Y416047D01*
D02*
G37*
G36*
X423115Y412185D02*
X417500D01*
Y409079D01*
X419575D01*
X420508Y409202D01*
X421378Y409562D01*
X422124Y410136D01*
X422697Y410882D01*
X423058Y411752D01*
X423115Y412185D01*
D02*
G37*
G36*
X416500D02*
X410885D01*
X410942Y411752D01*
X411303Y410882D01*
X411876Y410136D01*
X412622Y409562D01*
X413492Y409202D01*
X414425Y409079D01*
X416500D01*
Y412185D01*
D02*
G37*
G36*
X417443Y396362D02*
X416557D01*
X415702Y396133D01*
X414936Y395690D01*
X414310Y395064D01*
X413867Y394298D01*
X413638Y393443D01*
Y392557D01*
X413867Y391702D01*
X414310Y390936D01*
X414936Y390310D01*
X415702Y389867D01*
X416557Y389638D01*
X417443D01*
X418298Y389867D01*
X419064Y390310D01*
X419690Y390936D01*
X420133Y391702D01*
X420362Y392557D01*
Y393443D01*
X420133Y394298D01*
X419690Y395064D01*
X419064Y395690D01*
X418298Y396133D01*
X417443Y396362D01*
D02*
G37*
G36*
X436685Y399181D02*
X435752Y399058D01*
X434882Y398697D01*
X434135Y398124D01*
X433563Y397378D01*
X433202Y396508D01*
X433079Y395575D01*
Y390425D01*
X433202Y389492D01*
X433563Y388622D01*
X434135Y387876D01*
X434882Y387303D01*
X435752Y386942D01*
X436685Y386820D01*
X437618Y386942D01*
X438488Y387303D01*
X439235Y387876D01*
X439808Y388622D01*
X440168Y389492D01*
X440291Y390425D01*
Y395575D01*
X440168Y396508D01*
X439808Y397378D01*
X439235Y398124D01*
X438488Y398697D01*
X437618Y399058D01*
X436685Y399181D01*
D02*
G37*
G36*
X397315D02*
X396382Y399058D01*
X395512Y398697D01*
X394765Y398124D01*
X394192Y397378D01*
X393832Y396508D01*
X393709Y395575D01*
Y390425D01*
X393832Y389492D01*
X394192Y388622D01*
X394765Y387876D01*
X395512Y387303D01*
X396382Y386942D01*
X397315Y386820D01*
X398248Y386942D01*
X399118Y387303D01*
X399865Y387876D01*
X400437Y388622D01*
X400798Y389492D01*
X400921Y390425D01*
Y395575D01*
X400798Y396508D01*
X400437Y397378D01*
X399865Y398124D01*
X399118Y398697D01*
X398248Y399058D01*
X397315Y399181D01*
D02*
G37*
G36*
X485591Y369886D02*
X477410D01*
Y361705D01*
X485591D01*
Y369886D01*
D02*
G37*
G36*
X385591Y369590D02*
X377410D01*
Y361409D01*
X385591D01*
Y369590D01*
D02*
G37*
G36*
X500091Y359591D02*
X491910D01*
Y351410D01*
X500091D01*
Y359591D01*
D02*
G37*
G36*
X382038D02*
X380961D01*
X379921Y359312D01*
X378988Y358773D01*
X378227Y358012D01*
X377688Y357079D01*
X377410Y356038D01*
Y354961D01*
X377688Y353921D01*
X378227Y352988D01*
X378988Y352227D01*
X379921Y351688D01*
X380961Y351410D01*
X382038D01*
X383079Y351688D01*
X384012Y352227D01*
X384773Y352988D01*
X385312Y353921D01*
X385591Y354961D01*
Y356038D01*
X385312Y357079D01*
X384773Y358012D01*
X384012Y358773D01*
X383079Y359312D01*
X382038Y359591D01*
D02*
G37*
G36*
X482038Y359886D02*
X480962D01*
X479921Y359607D01*
X478988Y359068D01*
X478227Y358307D01*
X477688Y357374D01*
X477410Y356334D01*
Y355257D01*
X477688Y354216D01*
X478227Y353284D01*
X478988Y352522D01*
X479921Y351983D01*
X480962Y351705D01*
X481621D01*
X481704Y351691D01*
X482118Y351702D01*
X482475Y351690D01*
X482805Y351656D01*
X483108Y351602D01*
X483384Y351529D01*
X483636Y351438D01*
X483866Y351330D01*
X484076Y351206D01*
X484268Y351064D01*
X484319Y351018D01*
X484561Y350776D01*
Y349172D01*
X484099Y348981D01*
X484012Y349068D01*
X483079Y349607D01*
X482038Y349886D01*
X480962D01*
X479921Y349607D01*
X478988Y349068D01*
X478227Y348307D01*
X477688Y347374D01*
X477410Y346334D01*
Y345257D01*
X477688Y344216D01*
X478227Y343284D01*
X478988Y342522D01*
X479921Y341984D01*
X480962Y341705D01*
X482038D01*
X483079Y341984D01*
X484012Y342522D01*
X484099Y342610D01*
X484561Y342418D01*
Y339172D01*
X484099Y338981D01*
X484012Y339069D01*
X483079Y339607D01*
X482038Y339886D01*
X480962D01*
X479921Y339607D01*
X478988Y339069D01*
X478227Y338307D01*
X477688Y337374D01*
X477410Y336334D01*
Y335257D01*
X477688Y334216D01*
X478227Y333284D01*
X478988Y332522D01*
X479921Y331983D01*
X480962Y331705D01*
X482038D01*
X483079Y331983D01*
X484012Y332522D01*
X484099Y332610D01*
X484561Y332418D01*
Y329172D01*
X484099Y328981D01*
X484012Y329068D01*
X483079Y329607D01*
X482038Y329886D01*
X480962D01*
X479921Y329607D01*
X478988Y329068D01*
X478227Y328307D01*
X477688Y327374D01*
X477410Y326334D01*
Y325257D01*
X477688Y324216D01*
X478227Y323284D01*
X478988Y322522D01*
X479921Y321984D01*
X480962Y321705D01*
X482038D01*
X483079Y321984D01*
X484012Y322522D01*
X484099Y322610D01*
X484561Y322418D01*
Y319172D01*
X484099Y318981D01*
X484012Y319069D01*
X483079Y319607D01*
X482038Y319886D01*
X480962D01*
X479921Y319607D01*
X478988Y319069D01*
X478227Y318307D01*
X477688Y317374D01*
X477410Y316334D01*
Y315257D01*
X477688Y314216D01*
X478227Y313284D01*
X478988Y312522D01*
X479921Y311983D01*
X480962Y311705D01*
X482038D01*
X483079Y311983D01*
X484012Y312522D01*
X484099Y312610D01*
X484561Y312418D01*
Y309172D01*
X484099Y308981D01*
X484012Y309068D01*
X483079Y309607D01*
X482038Y309886D01*
X480962D01*
X479921Y309607D01*
X478988Y309068D01*
X478227Y308307D01*
X477688Y307374D01*
X477410Y306334D01*
Y305257D01*
X477688Y304216D01*
X478227Y303284D01*
X478988Y302522D01*
X479921Y301983D01*
X480962Y301705D01*
X482038D01*
X483079Y301983D01*
X484012Y302522D01*
X484099Y302610D01*
X484561Y302418D01*
Y299172D01*
X484099Y298981D01*
X484012Y299068D01*
X483079Y299607D01*
X482038Y299886D01*
X480962D01*
X479921Y299607D01*
X478988Y299068D01*
X478227Y298307D01*
X477688Y297374D01*
X477410Y296334D01*
Y295257D01*
X477688Y294216D01*
X478227Y293284D01*
X478988Y292522D01*
X479921Y291984D01*
X480962Y291705D01*
X482038D01*
X483079Y291984D01*
X484012Y292522D01*
X484099Y292610D01*
X484561Y292418D01*
Y289172D01*
X484099Y288981D01*
X484012Y289069D01*
X483079Y289607D01*
X482038Y289886D01*
X480962D01*
X479921Y289607D01*
X478988Y289069D01*
X478227Y288307D01*
X477688Y287374D01*
X477585Y286988D01*
X477545Y286915D01*
X477254Y285959D01*
X477115Y285568D01*
X476812Y284844D01*
X476668Y284558D01*
X476521Y284301D01*
X476377Y284082D01*
X476239Y283903D01*
X476233Y283896D01*
X473419Y281081D01*
X473087Y280585D01*
X472971Y280000D01*
Y247634D01*
X465419Y240081D01*
X465087Y239585D01*
X464971Y239000D01*
Y179133D01*
X456366Y170529D01*
X421500D01*
X420915Y170413D01*
X420419Y170081D01*
X411201Y160864D01*
X411154Y160822D01*
X410962Y160679D01*
X410749Y160551D01*
X410514Y160438D01*
X410253Y160339D01*
X409967Y160257D01*
X409653Y160191D01*
X409310Y160144D01*
X408939Y160117D01*
X408514Y160110D01*
X408425Y160091D01*
X407962D01*
X406921Y159812D01*
X405988Y159273D01*
X405227Y158512D01*
X404688Y157579D01*
X404410Y156538D01*
Y155462D01*
X404688Y154421D01*
X405227Y153488D01*
X405988Y152727D01*
X406921Y152188D01*
X407962Y151909D01*
X409038D01*
X410079Y152188D01*
X411012Y152727D01*
X411773Y153488D01*
X412312Y154421D01*
X412591Y155462D01*
Y155925D01*
X412610Y156014D01*
X412617Y156439D01*
X412644Y156810D01*
X412691Y157153D01*
X412756Y157467D01*
X412839Y157754D01*
X412937Y158014D01*
X413051Y158249D01*
X413179Y158462D01*
X413322Y158654D01*
X413364Y158701D01*
X422133Y167471D01*
X430662D01*
X430854Y167009D01*
X422392Y158547D01*
X422270Y158562D01*
X422076Y158599D01*
X421907Y158643D01*
X421763Y158693D01*
X421642Y158746D01*
X421544Y158801D01*
X421465Y158858D01*
X421357Y158953D01*
X421296Y158989D01*
X421012Y159273D01*
X420079Y159812D01*
X419038Y160091D01*
X417962D01*
X416921Y159812D01*
X415988Y159273D01*
X415227Y158512D01*
X414688Y157579D01*
X414409Y156538D01*
Y155462D01*
X414688Y154421D01*
X415227Y153488D01*
X415988Y152727D01*
X416921Y152188D01*
X417962Y151909D01*
X419038D01*
X420079Y152188D01*
X421012Y152727D01*
X421773Y153488D01*
X422312Y154421D01*
X422580Y155421D01*
X422600Y155428D01*
X422693Y155449D01*
X422803Y155462D01*
X422999D01*
X423585Y155578D01*
X423910Y155795D01*
X424409Y155570D01*
Y155462D01*
X424688Y154421D01*
X425227Y153488D01*
X425988Y152727D01*
X426921Y152188D01*
X427961Y151909D01*
X428425D01*
X428514Y151890D01*
X428939Y151883D01*
X429310Y151856D01*
X429653Y151809D01*
X429967Y151743D01*
X430254Y151661D01*
X430514Y151562D01*
X430749Y151449D01*
X430962Y151321D01*
X431154Y151178D01*
X431201Y151136D01*
X432009Y150328D01*
X432505Y149996D01*
X433090Y149880D01*
X440909D01*
X441495Y149996D01*
X441991Y150328D01*
X444855Y153192D01*
X445116Y153400D01*
X445528Y153187D01*
X445988Y152727D01*
X446921Y152188D01*
X447962Y151909D01*
X449039D01*
X450079Y152188D01*
X451012Y152727D01*
X451773Y153488D01*
X452312Y154421D01*
X452591Y155462D01*
Y155925D01*
X452610Y156014D01*
X452617Y156439D01*
X452644Y156810D01*
X452691Y157153D01*
X452757Y157467D01*
X452839Y157754D01*
X452938Y158014D01*
X453051Y158249D01*
X453179Y158462D01*
X453322Y158654D01*
X453364Y158701D01*
X453724Y159061D01*
X455123D01*
X455314Y158599D01*
X455227Y158512D01*
X454688Y157579D01*
X454410Y156538D01*
Y156500D01*
X462591D01*
Y156538D01*
X462312Y157579D01*
X461773Y158512D01*
X461686Y158599D01*
X461877Y159061D01*
X462591D01*
X463176Y159178D01*
X463672Y159509D01*
X476081Y171919D01*
X476413Y172415D01*
X476529Y173000D01*
Y208662D01*
X478799Y210931D01*
X478846Y210974D01*
X479038Y211116D01*
X479251Y211244D01*
X479486Y211358D01*
X479746Y211456D01*
X480033Y211539D01*
X480347Y211604D01*
X480690Y211651D01*
X481061Y211678D01*
X481486Y211685D01*
X481575Y211705D01*
X482038D01*
X483079Y211983D01*
X484012Y212522D01*
X484773Y213284D01*
X485312Y214216D01*
X485591Y215257D01*
Y216334D01*
X485312Y217374D01*
X484773Y218307D01*
X484012Y219069D01*
X483079Y219607D01*
X482038Y219886D01*
X480962D01*
X479921Y219607D01*
X478988Y219069D01*
X478227Y218307D01*
X477688Y217374D01*
X477410Y216334D01*
Y215870D01*
X477390Y215781D01*
X477383Y215356D01*
X477356Y214985D01*
X477309Y214643D01*
X477244Y214328D01*
X477161Y214042D01*
X477063Y213782D01*
X476949Y213546D01*
X476821Y213334D01*
X476678Y213141D01*
X476636Y213094D01*
X474972Y211430D01*
X474510Y211621D01*
Y216642D01*
X478799Y220931D01*
X478846Y220974D01*
X479038Y221116D01*
X479251Y221244D01*
X479486Y221358D01*
X479746Y221456D01*
X480033Y221539D01*
X480347Y221604D01*
X480690Y221651D01*
X481061Y221678D01*
X481486Y221685D01*
X481575Y221705D01*
X482038D01*
X483079Y221984D01*
X484012Y222522D01*
X484773Y223284D01*
X485312Y224216D01*
X485591Y225257D01*
Y226334D01*
X485312Y227374D01*
X484773Y228307D01*
X484012Y229068D01*
X483079Y229607D01*
X482038Y229886D01*
X480962D01*
X479921Y229607D01*
X478988Y229068D01*
X478227Y228307D01*
X477688Y227374D01*
X477410Y226334D01*
Y225870D01*
X477390Y225781D01*
X477383Y225356D01*
X477356Y224985D01*
X477309Y224643D01*
X477244Y224328D01*
X477161Y224042D01*
X477063Y223782D01*
X476949Y223546D01*
X476821Y223334D01*
X476678Y223141D01*
X476636Y223094D01*
X472491Y218950D01*
X472029Y219141D01*
Y234162D01*
X479877Y242009D01*
X479921Y241984D01*
X480962Y241705D01*
X482038D01*
X483079Y241984D01*
X484012Y242522D01*
X484773Y243284D01*
X485312Y244216D01*
X485591Y245257D01*
Y246334D01*
X485312Y247374D01*
X484773Y248307D01*
X484012Y249068D01*
X483079Y249607D01*
X482038Y249886D01*
X480962D01*
X479921Y249607D01*
X478988Y249068D01*
X478901Y248981D01*
X478439Y249172D01*
Y252418D01*
X478901Y252610D01*
X478988Y252522D01*
X479921Y251983D01*
X480962Y251705D01*
X482038D01*
X483079Y251983D01*
X484012Y252522D01*
X484773Y253284D01*
X485312Y254216D01*
X485591Y255257D01*
Y256334D01*
X485312Y257374D01*
X484773Y258307D01*
X484012Y259068D01*
X483079Y259607D01*
X482038Y259886D01*
X480962D01*
X479921Y259607D01*
X478988Y259068D01*
X478901Y258981D01*
X478439Y259172D01*
Y262418D01*
X478901Y262610D01*
X478988Y262522D01*
X479921Y261983D01*
X480962Y261705D01*
X482038D01*
X483079Y261983D01*
X484012Y262522D01*
X484773Y263284D01*
X485312Y264216D01*
X485591Y265257D01*
Y266334D01*
X485312Y267374D01*
X484773Y268307D01*
X484012Y269069D01*
X483079Y269607D01*
X482038Y269886D01*
X480962D01*
X479921Y269607D01*
X478988Y269069D01*
X478901Y268981D01*
X478439Y269172D01*
Y272418D01*
X478901Y272610D01*
X478988Y272522D01*
X479921Y271984D01*
X480962Y271705D01*
X482038D01*
X483079Y271984D01*
X484012Y272522D01*
X484773Y273284D01*
X485312Y274216D01*
X485591Y275257D01*
Y276334D01*
X485312Y277374D01*
X484773Y278307D01*
X484110Y278971D01*
X484248Y279471D01*
X484500D01*
X485085Y279587D01*
X485581Y279919D01*
X487081Y281419D01*
X487413Y281915D01*
X487529Y282500D01*
Y283439D01*
X487620Y283894D01*
Y351410D01*
X487503Y351995D01*
X487172Y352491D01*
X486446Y353217D01*
X486408Y353259D01*
X486264Y353452D01*
X486133Y353667D01*
X486014Y353907D01*
X485907Y354175D01*
X485815Y354471D01*
X485741Y354782D01*
X485632Y355549D01*
X485606Y355971D01*
X485591Y356031D01*
Y356334D01*
X485312Y357374D01*
X484773Y358307D01*
X484012Y359068D01*
X483079Y359607D01*
X482038Y359886D01*
D02*
G37*
G36*
X496538Y349590D02*
X495462D01*
X494421Y349312D01*
X493488Y348773D01*
X492727Y348012D01*
X492188Y347079D01*
X491910Y346039D01*
Y344962D01*
X492188Y343921D01*
X492727Y342988D01*
X493488Y342227D01*
X494421Y341688D01*
X495462Y341409D01*
X496538D01*
X497579Y341688D01*
X498512Y342227D01*
X499273Y342988D01*
X499812Y343921D01*
X500091Y344962D01*
Y346039D01*
X499812Y347079D01*
X499273Y348012D01*
X498512Y348773D01*
X497579Y349312D01*
X496538Y349590D01*
D02*
G37*
G36*
X382038D02*
X380961D01*
X379921Y349312D01*
X378988Y348773D01*
X378227Y348012D01*
X377688Y347079D01*
X377410Y346039D01*
Y344962D01*
X377688Y343921D01*
X378227Y342988D01*
X378988Y342227D01*
X379921Y341688D01*
X380961Y341409D01*
X382038D01*
X383079Y341688D01*
X384012Y342227D01*
X384773Y342988D01*
X385312Y343921D01*
X385591Y344962D01*
Y346039D01*
X385312Y347079D01*
X384773Y348012D01*
X384012Y348773D01*
X383079Y349312D01*
X382038Y349590D01*
D02*
G37*
G36*
X354715Y351524D02*
X353285D01*
X351904Y351154D01*
X350666Y350439D01*
X349656Y349428D01*
X348941Y348190D01*
X348571Y346809D01*
Y345380D01*
X348941Y343999D01*
X349656Y342761D01*
X350666Y341750D01*
X351904Y341035D01*
X353285Y340665D01*
X354715D01*
X356096Y341035D01*
X357334Y341750D01*
X358344Y342761D01*
X359059Y343999D01*
X359429Y345380D01*
Y346809D01*
X359059Y348190D01*
X358344Y349428D01*
X357334Y350439D01*
X356096Y351154D01*
X354715Y351524D01*
D02*
G37*
G36*
X382038Y339591D02*
X380961D01*
X379921Y339312D01*
X378988Y338773D01*
X378227Y338012D01*
X377688Y337079D01*
X377410Y336038D01*
Y334962D01*
X377688Y333921D01*
X378227Y332988D01*
X378988Y332227D01*
X379921Y331688D01*
X380961Y331410D01*
X382038D01*
X383079Y331688D01*
X384012Y332227D01*
X384773Y332988D01*
X385312Y333921D01*
X385591Y334962D01*
Y336038D01*
X385312Y337079D01*
X384773Y338012D01*
X384012Y338773D01*
X383079Y339312D01*
X382038Y339591D01*
D02*
G37*
G36*
X354471Y338449D02*
X353529D01*
X352620Y338205D01*
X351805Y337735D01*
X351139Y337069D01*
X350669Y336254D01*
X350425Y335345D01*
Y334403D01*
X350669Y333494D01*
X351139Y332679D01*
X351805Y332014D01*
X352620Y331543D01*
X353529Y331299D01*
X354471D01*
X355380Y331543D01*
X356195Y332014D01*
X356861Y332679D01*
X357331Y333494D01*
X357575Y334403D01*
Y335345D01*
X357331Y336254D01*
X356861Y337069D01*
X356195Y337735D01*
X355380Y338205D01*
X354471Y338449D01*
D02*
G37*
G36*
X432500Y320490D02*
Y317500D01*
X435490D01*
X435261Y318351D01*
X434801Y319149D01*
X434149Y319801D01*
X433351Y320262D01*
X432500Y320490D01*
D02*
G37*
G36*
X431500D02*
X430649Y320262D01*
X429851Y319801D01*
X429199Y319149D01*
X428738Y318351D01*
X428511Y317500D01*
X431500D01*
Y320490D01*
D02*
G37*
G36*
X354471Y322701D02*
X353529D01*
X352620Y322457D01*
X351805Y321987D01*
X351139Y321321D01*
X350669Y320506D01*
X350425Y319597D01*
Y318655D01*
X350669Y317746D01*
X351139Y316931D01*
X351805Y316265D01*
X352620Y315795D01*
X353529Y315551D01*
X354471D01*
X355380Y315795D01*
X356195Y316265D01*
X356861Y316931D01*
X357331Y317746D01*
X357575Y318655D01*
Y319597D01*
X357331Y320506D01*
X356861Y321321D01*
X356195Y321987D01*
X355380Y322457D01*
X354471Y322701D01*
D02*
G37*
G36*
X406087Y318650D02*
X403815D01*
Y315000D01*
X406087D01*
Y318650D01*
D02*
G37*
G36*
X402815D02*
X400543D01*
Y315000D01*
X402815D01*
Y318650D01*
D02*
G37*
G36*
X435490Y316500D02*
X432500D01*
Y313510D01*
X433351Y313738D01*
X434149Y314199D01*
X434801Y314851D01*
X435261Y315649D01*
X435490Y316500D01*
D02*
G37*
G36*
X431500D02*
X428511D01*
X428738Y315649D01*
X429199Y314851D01*
X429851Y314199D01*
X430649Y313738D01*
X431500Y313510D01*
Y316500D01*
D02*
G37*
G36*
X382038Y319590D02*
X380961D01*
X379921Y319312D01*
X378988Y318773D01*
X378227Y318012D01*
X377688Y317079D01*
X377410Y316038D01*
Y314962D01*
X377688Y313921D01*
X378227Y312988D01*
X378988Y312227D01*
X379921Y311688D01*
X380961Y311409D01*
X382038D01*
X383079Y311688D01*
X384012Y312227D01*
X384773Y312988D01*
X385312Y313921D01*
X385591Y314962D01*
Y316038D01*
X385312Y317079D01*
X384773Y318012D01*
X384012Y318773D01*
X383079Y319312D01*
X382038Y319590D01*
D02*
G37*
G36*
X406087Y314000D02*
X403815D01*
Y310350D01*
X406087D01*
Y314000D01*
D02*
G37*
G36*
X402815D02*
X400543D01*
Y310350D01*
X402815D01*
Y314000D01*
D02*
G37*
G36*
X354715Y313335D02*
X353285D01*
X351904Y312965D01*
X350666Y312250D01*
X349656Y311239D01*
X348941Y310001D01*
X348571Y308620D01*
Y307191D01*
X348941Y305810D01*
X349656Y304572D01*
X350666Y303561D01*
X351904Y302846D01*
X353285Y302476D01*
X354715D01*
X356096Y302846D01*
X357334Y303561D01*
X358344Y304572D01*
X359059Y305810D01*
X359429Y307191D01*
Y308620D01*
X359059Y310001D01*
X358344Y311239D01*
X357334Y312250D01*
X356096Y312965D01*
X354715Y313335D01*
D02*
G37*
G36*
X416650Y304087D02*
X413000D01*
Y301815D01*
X416650D01*
Y304087D01*
D02*
G37*
G36*
X412000D02*
X408350D01*
Y301815D01*
X412000D01*
Y304087D01*
D02*
G37*
G36*
X382038Y309591D02*
X380961D01*
X379921Y309312D01*
X378988Y308773D01*
X378227Y308012D01*
X377688Y307079D01*
X377410Y306038D01*
Y304961D01*
X377688Y303921D01*
X378227Y302988D01*
X378988Y302227D01*
X379921Y301688D01*
X380961Y301410D01*
X382038D01*
X383079Y301688D01*
X384012Y302227D01*
X384773Y302988D01*
X385312Y303921D01*
X385591Y304961D01*
Y306038D01*
X385312Y307079D01*
X384773Y308012D01*
X384012Y308773D01*
X383079Y309312D01*
X382038Y309591D01*
D02*
G37*
G36*
X403512Y301984D02*
X401437D01*
Y300500D01*
X403512D01*
Y301984D01*
D02*
G37*
G36*
X400437D02*
X398362D01*
Y300500D01*
X400437D01*
Y301984D01*
D02*
G37*
G36*
X416650Y300815D02*
X413000D01*
Y298543D01*
X416650D01*
Y300815D01*
D02*
G37*
G36*
X412000D02*
X408350D01*
Y298543D01*
X412000D01*
Y300815D01*
D02*
G37*
G36*
X403512Y299500D02*
X401437D01*
Y298016D01*
X403512D01*
Y299500D01*
D02*
G37*
G36*
X400437D02*
X398362D01*
Y298016D01*
X400437D01*
Y299500D01*
D02*
G37*
G36*
X382038Y299590D02*
X380961D01*
X379921Y299312D01*
X378988Y298773D01*
X378227Y298012D01*
X377688Y297079D01*
X377410Y296039D01*
Y294962D01*
X377688Y293921D01*
X378227Y292988D01*
X378988Y292227D01*
X379921Y291688D01*
X380961Y291409D01*
X382038D01*
X383079Y291688D01*
X384012Y292227D01*
X384773Y292988D01*
X385312Y293921D01*
X385591Y294962D01*
Y296039D01*
X385312Y297079D01*
X384773Y298012D01*
X384012Y298773D01*
X383079Y299312D01*
X382038Y299590D01*
D02*
G37*
G36*
X416650Y293457D02*
X408350D01*
Y290113D01*
X408143Y289869D01*
X406304Y288029D01*
X403512D01*
Y288484D01*
X402538D01*
X402500Y288492D01*
X402462Y288484D01*
X402402D01*
X402387Y288486D01*
X402383Y288484D01*
X398362D01*
Y284516D01*
X400014D01*
Y281457D01*
X400130Y280871D01*
X400462Y280375D01*
X402471Y278366D01*
Y275650D01*
X400043D01*
Y267350D01*
X405587D01*
Y274606D01*
X405594Y274645D01*
X405587Y274682D01*
Y275650D01*
X405529D01*
Y279000D01*
X405413Y279585D01*
X405081Y280081D01*
X403073Y282090D01*
Y284516D01*
X403512D01*
Y284971D01*
X406937D01*
X407522Y285087D01*
X408018Y285419D01*
X410269Y287669D01*
X410428Y287817D01*
X410548Y287913D01*
X416650D01*
Y293457D01*
D02*
G37*
G36*
X354471Y330575D02*
X353529D01*
X352620Y330331D01*
X351805Y329861D01*
X351139Y329195D01*
X350669Y328380D01*
X350425Y327471D01*
Y326529D01*
X350669Y325620D01*
X351139Y324805D01*
X351805Y324139D01*
X352620Y323669D01*
X353529Y323425D01*
X354471D01*
X355380Y323669D01*
X356195Y324139D01*
X356861Y324805D01*
X357143Y325295D01*
X357196Y325357D01*
X357324Y325587D01*
X357434Y325745D01*
X357546Y325875D01*
X357662Y325981D01*
X357782Y326067D01*
X357912Y326137D01*
X358056Y326193D01*
X358219Y326236D01*
X358406Y326263D01*
X358430Y326265D01*
X377136D01*
X377155Y326241D01*
X377248Y326112D01*
X377317Y326001D01*
X377363Y325912D01*
X377389Y325849D01*
X377399Y325814D01*
X377400Y325808D01*
X377400Y325745D01*
X377410Y325695D01*
Y324961D01*
X377688Y323921D01*
X378227Y322988D01*
X378988Y322227D01*
X379921Y321688D01*
X380961Y321410D01*
X382038D01*
X383079Y321688D01*
X384012Y322227D01*
X384773Y322988D01*
X384901Y323209D01*
X384929Y323235D01*
X385057Y323414D01*
X385160Y323530D01*
X385271Y323630D01*
X385391Y323716D01*
X385524Y323790D01*
X385674Y323853D01*
X385845Y323906D01*
X385917Y323920D01*
X389884Y319953D01*
Y315772D01*
X389913Y315624D01*
Y310350D01*
X391156D01*
Y301984D01*
X390488D01*
Y298016D01*
X391534D01*
Y288484D01*
X390488D01*
Y284516D01*
X395638D01*
Y288484D01*
X394592D01*
Y298016D01*
X395638D01*
Y301984D01*
X394214D01*
Y310350D01*
X395457D01*
Y318650D01*
X392943D01*
Y320587D01*
X392826Y321172D01*
X392495Y321668D01*
X387581Y326581D01*
X387085Y326913D01*
X386500Y327029D01*
X386255D01*
X386039Y327055D01*
X385845Y327094D01*
X385674Y327147D01*
X385524Y327210D01*
X385391Y327284D01*
X385271Y327370D01*
X385160Y327470D01*
X385057Y327586D01*
X384929Y327765D01*
X384901Y327791D01*
X384773Y328012D01*
X384012Y328773D01*
X383079Y329312D01*
X382038Y329591D01*
X380961D01*
X379921Y329312D01*
X378988Y328773D01*
X378988Y328773D01*
X378885Y328875D01*
X378389Y329207D01*
X377804Y329323D01*
X358097D01*
X357924Y329343D01*
X357724Y329379D01*
X357208Y329517D01*
X356963Y329601D01*
X355997Y330018D01*
X355654Y330191D01*
X355593Y330208D01*
X355380Y330331D01*
X354471Y330575D01*
D02*
G37*
G36*
X382038Y289591D02*
X380961D01*
X379921Y289312D01*
X378988Y288773D01*
X378227Y288012D01*
X377688Y287079D01*
X377410Y286038D01*
Y284962D01*
X377688Y283921D01*
X378227Y282988D01*
X378988Y282227D01*
X379921Y281688D01*
X380961Y281410D01*
X382038D01*
X383079Y281688D01*
X384012Y282227D01*
X384773Y282988D01*
X385312Y283921D01*
X385591Y284962D01*
Y286038D01*
X385312Y287079D01*
X384773Y288012D01*
X384012Y288773D01*
X383079Y289312D01*
X382038Y289591D01*
D02*
G37*
G36*
Y279591D02*
X380961D01*
X379921Y279312D01*
X378988Y278773D01*
X378227Y278012D01*
X377688Y277079D01*
X377410Y276039D01*
Y274961D01*
X377688Y273921D01*
X378227Y272988D01*
X378988Y272227D01*
X379921Y271688D01*
X380961Y271410D01*
X382038D01*
X383079Y271688D01*
X384012Y272227D01*
X384773Y272988D01*
X385312Y273921D01*
X385591Y274961D01*
Y276039D01*
X385312Y277079D01*
X384773Y278012D01*
X384012Y278773D01*
X383079Y279312D01*
X382038Y279591D01*
D02*
G37*
G36*
X497539Y272590D02*
X497500D01*
Y269000D01*
X501090D01*
Y269039D01*
X500812Y270079D01*
X500273Y271012D01*
X499512Y271773D01*
X498579Y272312D01*
X497539Y272590D01*
D02*
G37*
G36*
X496500D02*
X496461D01*
X495421Y272312D01*
X494488Y271773D01*
X493727Y271012D01*
X493188Y270079D01*
X492909Y269039D01*
Y269000D01*
X496500D01*
Y272590D01*
D02*
G37*
G36*
X501090Y268000D02*
X497500D01*
Y264409D01*
X497539D01*
X498579Y264688D01*
X499512Y265227D01*
X500273Y265988D01*
X500812Y266921D01*
X501090Y267962D01*
Y268000D01*
D02*
G37*
G36*
X496500D02*
X492909D01*
Y267962D01*
X493188Y266921D01*
X493727Y265988D01*
X494488Y265227D01*
X495421Y264688D01*
X496461Y264409D01*
X496500D01*
Y268000D01*
D02*
G37*
G36*
X382038Y269590D02*
X380961D01*
X379921Y269312D01*
X378988Y268773D01*
X378227Y268012D01*
X377688Y267079D01*
X377410Y266038D01*
Y264962D01*
X377688Y263921D01*
X378227Y262988D01*
X378988Y262227D01*
X379921Y261688D01*
X380961Y261409D01*
X382038D01*
X383079Y261688D01*
X384012Y262227D01*
X384773Y262988D01*
X385312Y263921D01*
X385591Y264962D01*
Y266038D01*
X385312Y267079D01*
X384773Y268012D01*
X384012Y268773D01*
X383079Y269312D01*
X382038Y269590D01*
D02*
G37*
G36*
X394957Y275650D02*
X389413D01*
Y267350D01*
X391927D01*
Y266121D01*
X391971Y265903D01*
Y265752D01*
X391945Y265562D01*
X391903Y265374D01*
X391843Y265186D01*
X391763Y264997D01*
X391664Y264806D01*
X391543Y264612D01*
X391399Y264415D01*
X391230Y264215D01*
X391015Y263992D01*
X390966Y263916D01*
X390699Y263649D01*
X390238Y262851D01*
X390000Y261961D01*
Y261039D01*
X390238Y260149D01*
X390699Y259351D01*
X391351Y258699D01*
X392149Y258239D01*
X393039Y258000D01*
X393961D01*
X394851Y258239D01*
X395649Y258699D01*
X396301Y259351D01*
X396761Y260149D01*
X397000Y261039D01*
Y261961D01*
X396761Y262851D01*
X396301Y263649D01*
X396034Y263916D01*
X395985Y263992D01*
X395770Y264215D01*
X395602Y264415D01*
X395457Y264612D01*
X395336Y264806D01*
X395236Y264997D01*
X395157Y265186D01*
X395097Y265374D01*
X395055Y265562D01*
X395029Y265752D01*
Y266077D01*
X394986Y266295D01*
Y270228D01*
X394957Y270376D01*
Y275650D01*
D02*
G37*
G36*
X501090Y262591D02*
X492909D01*
Y254410D01*
X501090D01*
Y262591D01*
D02*
G37*
G36*
X382038Y259591D02*
X380961D01*
X379921Y259312D01*
X378988Y258773D01*
X378227Y258012D01*
X377688Y257079D01*
X377410Y256038D01*
Y254961D01*
X377688Y253921D01*
X378227Y252988D01*
X378988Y252227D01*
X379921Y251688D01*
X380961Y251410D01*
X382038D01*
X383079Y251688D01*
X384012Y252227D01*
X384773Y252988D01*
X385312Y253921D01*
X385591Y254961D01*
Y256038D01*
X385312Y257079D01*
X384773Y258012D01*
X384012Y258773D01*
X383079Y259312D01*
X382038Y259591D01*
D02*
G37*
G36*
Y249590D02*
X380961D01*
X379921Y249312D01*
X378988Y248773D01*
X378227Y248012D01*
X377688Y247079D01*
X377410Y246039D01*
Y244962D01*
X377688Y243921D01*
X378227Y242988D01*
X378988Y242227D01*
X379921Y241688D01*
X380961Y241409D01*
X382038D01*
X383079Y241688D01*
X384012Y242227D01*
X384773Y242988D01*
X385312Y243921D01*
X385591Y244962D01*
Y246039D01*
X385312Y247079D01*
X384773Y248012D01*
X384012Y248773D01*
X383079Y249312D01*
X382038Y249590D01*
D02*
G37*
G36*
Y239591D02*
X382000D01*
Y236000D01*
X385591D01*
Y236038D01*
X385312Y237079D01*
X384773Y238012D01*
X384012Y238773D01*
X383079Y239312D01*
X382038Y239591D01*
D02*
G37*
G36*
X381000D02*
X380961D01*
X379921Y239312D01*
X378988Y238773D01*
X378227Y238012D01*
X377688Y237079D01*
X377410Y236038D01*
Y236000D01*
X381000D01*
Y239591D01*
D02*
G37*
G36*
X482038Y239886D02*
X480962D01*
X479921Y239607D01*
X478988Y239069D01*
X478227Y238307D01*
X477688Y237374D01*
X477410Y236334D01*
Y235257D01*
X477688Y234216D01*
X478227Y233284D01*
X478988Y232522D01*
X479921Y231983D01*
X480962Y231705D01*
X482038D01*
X483079Y231983D01*
X484012Y232522D01*
X484773Y233284D01*
X485312Y234216D01*
X485591Y235257D01*
Y236334D01*
X485312Y237374D01*
X484773Y238307D01*
X484012Y239069D01*
X483079Y239607D01*
X482038Y239886D01*
D02*
G37*
G36*
X385591Y235000D02*
X382000D01*
Y231410D01*
X382038D01*
X383079Y231688D01*
X384012Y232227D01*
X384773Y232988D01*
X385312Y233921D01*
X385591Y234962D01*
Y235000D01*
D02*
G37*
G36*
X381000D02*
X377410D01*
Y234962D01*
X377688Y233921D01*
X378227Y232988D01*
X378988Y232227D01*
X379921Y231688D01*
X380961Y231410D01*
X381000D01*
Y235000D01*
D02*
G37*
G36*
X382038Y229591D02*
X380961D01*
X379921Y229312D01*
X378988Y228773D01*
X378227Y228012D01*
X377688Y227079D01*
X377410Y226039D01*
Y224961D01*
X377688Y223921D01*
X378227Y222988D01*
X378988Y222227D01*
X379921Y221688D01*
X380961Y221410D01*
X382038D01*
X383079Y221688D01*
X384012Y222227D01*
X384773Y222988D01*
X385312Y223921D01*
X385591Y224961D01*
Y226039D01*
X385312Y227079D01*
X384773Y228012D01*
X384012Y228773D01*
X383079Y229312D01*
X382038Y229591D01*
D02*
G37*
G36*
X447961Y252000D02*
X447039D01*
X446149Y251762D01*
X445351Y251301D01*
X444699Y250649D01*
X444239Y249851D01*
X444000Y248961D01*
Y248039D01*
X444239Y247149D01*
X444699Y246351D01*
X445351Y245699D01*
X446149Y245238D01*
X447039Y245000D01*
X447961D01*
X448851Y245238D01*
X449649Y245699D01*
X450143Y246194D01*
X451471Y244866D01*
Y231633D01*
X447925Y228088D01*
X447773Y227972D01*
X447610Y227869D01*
X447434Y227778D01*
X447245Y227701D01*
X447040Y227636D01*
X446817Y227585D01*
X446575Y227547D01*
X446315Y227525D01*
X446005Y227519D01*
X445917Y227500D01*
X445539D01*
X444649Y227261D01*
X443851Y226801D01*
X443199Y226149D01*
X442738Y225351D01*
X442500Y224461D01*
Y223539D01*
X442738Y222649D01*
X443199Y221851D01*
X443851Y221199D01*
X444649Y220739D01*
X445539Y220500D01*
X446461D01*
X447351Y220739D01*
X448149Y221199D01*
X448801Y221851D01*
X449262Y222649D01*
X449500Y223539D01*
Y223917D01*
X449519Y224005D01*
X449525Y224315D01*
X449547Y224575D01*
X449584Y224817D01*
X449636Y225040D01*
X449701Y225245D01*
X449778Y225434D01*
X449869Y225610D01*
X449972Y225773D01*
X450088Y225925D01*
X454081Y229919D01*
X454413Y230415D01*
X454529Y231000D01*
Y245500D01*
X454413Y246085D01*
X454081Y246581D01*
X451660Y249003D01*
X451164Y249335D01*
X450885Y249390D01*
X450762Y249851D01*
X450301Y250649D01*
X449649Y251301D01*
X448851Y251762D01*
X447961Y252000D01*
D02*
G37*
G36*
X382038Y219590D02*
X380961D01*
X379921Y219312D01*
X378988Y218773D01*
X378227Y218012D01*
X377688Y217079D01*
X377410Y216038D01*
Y214962D01*
X377688Y213921D01*
X378227Y212988D01*
X378988Y212227D01*
X379921Y211688D01*
X380961Y211409D01*
X382038D01*
X383079Y211688D01*
X384012Y212227D01*
X384773Y212988D01*
X385312Y213921D01*
X385591Y214962D01*
Y216038D01*
X385312Y217079D01*
X384773Y218012D01*
X384012Y218773D01*
X383079Y219312D01*
X382038Y219590D01*
D02*
G37*
G36*
X482038Y209886D02*
X480962D01*
X479921Y209607D01*
X478988Y209068D01*
X478227Y208307D01*
X477688Y207374D01*
X477410Y206334D01*
Y205257D01*
X477688Y204216D01*
X478227Y203284D01*
X478988Y202522D01*
X479921Y201983D01*
X480962Y201705D01*
X482038D01*
X483079Y201983D01*
X484012Y202522D01*
X484773Y203284D01*
X485312Y204216D01*
X485591Y205257D01*
Y206334D01*
X485312Y207374D01*
X484773Y208307D01*
X484012Y209068D01*
X483079Y209607D01*
X482038Y209886D01*
D02*
G37*
G36*
X382038Y209591D02*
X380961D01*
X379921Y209312D01*
X378988Y208773D01*
X378227Y208012D01*
X377688Y207079D01*
X377410Y206038D01*
Y204961D01*
X377688Y203921D01*
X378227Y202988D01*
X378988Y202227D01*
X379921Y201688D01*
X380961Y201409D01*
X382038D01*
X383079Y201688D01*
X384012Y202227D01*
X384773Y202988D01*
X385312Y203921D01*
X385591Y204961D01*
Y206038D01*
X385312Y207079D01*
X384773Y208012D01*
X384012Y208773D01*
X383079Y209312D01*
X382038Y209591D01*
D02*
G37*
G36*
X482038Y199886D02*
X480962D01*
X479921Y199607D01*
X478988Y199068D01*
X478227Y198307D01*
X477688Y197374D01*
X477410Y196334D01*
Y195257D01*
X477688Y194216D01*
X478227Y193284D01*
X478988Y192522D01*
X479921Y191983D01*
X480962Y191705D01*
X482038D01*
X483079Y191983D01*
X484012Y192522D01*
X484773Y193284D01*
X485312Y194216D01*
X485591Y195257D01*
Y196334D01*
X485312Y197374D01*
X484773Y198307D01*
X484012Y199068D01*
X483079Y199607D01*
X482038Y199886D01*
D02*
G37*
G36*
X382038Y199591D02*
X380961D01*
X379921Y199312D01*
X378988Y198773D01*
X378227Y198012D01*
X377688Y197079D01*
X377410Y196038D01*
Y194962D01*
X377688Y193921D01*
X378227Y192988D01*
X378988Y192227D01*
X379921Y191688D01*
X380961Y191409D01*
X382038D01*
X383079Y191688D01*
X384012Y192227D01*
X384773Y192988D01*
X385312Y193921D01*
X385591Y194962D01*
Y196038D01*
X385312Y197079D01*
X384773Y198012D01*
X384012Y198773D01*
X383079Y199312D01*
X382038Y199591D01*
D02*
G37*
G36*
X460000Y188989D02*
Y186000D01*
X462990D01*
X462761Y186851D01*
X462301Y187649D01*
X461649Y188301D01*
X460851Y188761D01*
X460000Y188989D01*
D02*
G37*
G36*
X459000D02*
X458149Y188761D01*
X457351Y188301D01*
X456699Y187649D01*
X456239Y186851D01*
X456010Y186000D01*
X459000D01*
Y188989D01*
D02*
G37*
G36*
X462990Y185000D02*
X460000D01*
Y182010D01*
X460851Y182238D01*
X461649Y182699D01*
X462301Y183351D01*
X462761Y184149D01*
X462990Y185000D01*
D02*
G37*
G36*
X459000D02*
X456010D01*
X456239Y184149D01*
X456699Y183351D01*
X457351Y182699D01*
X458149Y182238D01*
X459000Y182010D01*
Y185000D01*
D02*
G37*
G36*
X482038Y189886D02*
X480962D01*
X479921Y189607D01*
X478988Y189068D01*
X478227Y188307D01*
X477688Y187374D01*
X477410Y186334D01*
Y185257D01*
X477688Y184216D01*
X478227Y183284D01*
X478988Y182522D01*
X479921Y181983D01*
X480962Y181705D01*
X482038D01*
X483079Y181983D01*
X484012Y182522D01*
X484773Y183284D01*
X485312Y184216D01*
X485591Y185257D01*
Y186334D01*
X485312Y187374D01*
X484773Y188307D01*
X484012Y189068D01*
X483079Y189607D01*
X482038Y189886D01*
D02*
G37*
G36*
X382038Y189591D02*
X380961D01*
X379921Y189312D01*
X378988Y188773D01*
X378227Y188012D01*
X377688Y187079D01*
X377410Y186038D01*
Y184961D01*
X377688Y183921D01*
X378227Y182988D01*
X378988Y182227D01*
X379921Y181688D01*
X380961Y181409D01*
X382038D01*
X383079Y181688D01*
X384012Y182227D01*
X384773Y182988D01*
X385312Y183921D01*
X385591Y184961D01*
Y186038D01*
X385312Y187079D01*
X384773Y188012D01*
X384012Y188773D01*
X383079Y189312D01*
X382038Y189591D01*
D02*
G37*
G36*
X482038Y179886D02*
X480962D01*
X479921Y179607D01*
X478988Y179069D01*
X478227Y178307D01*
X477688Y177374D01*
X477410Y176334D01*
Y175257D01*
X477688Y174216D01*
X478227Y173284D01*
X478988Y172522D01*
X479921Y171984D01*
X480962Y171705D01*
X482038D01*
X483079Y171984D01*
X484012Y172522D01*
X484773Y173284D01*
X485312Y174216D01*
X485591Y175257D01*
Y176334D01*
X485312Y177374D01*
X484773Y178307D01*
X484012Y179069D01*
X483079Y179607D01*
X482038Y179886D01*
D02*
G37*
G36*
X382038Y179591D02*
X380961D01*
X379921Y179312D01*
X378988Y178773D01*
X378227Y178012D01*
X377688Y177079D01*
X377410Y176039D01*
Y174961D01*
X377688Y173921D01*
X378227Y172988D01*
X378988Y172227D01*
X379921Y171688D01*
X380961Y171409D01*
X382038D01*
X383079Y171688D01*
X384012Y172227D01*
X384773Y172988D01*
X385312Y173921D01*
X385591Y174961D01*
Y176039D01*
X385312Y177079D01*
X384773Y178012D01*
X384012Y178773D01*
X383079Y179312D01*
X382038Y179591D01*
D02*
G37*
G36*
X469038Y160091D02*
X467962D01*
X466921Y159812D01*
X465988Y159273D01*
X465227Y158512D01*
X464688Y157579D01*
X464409Y156538D01*
Y155462D01*
X464688Y154421D01*
X465227Y153488D01*
X465988Y152727D01*
X466921Y152188D01*
X467962Y151909D01*
X469038D01*
X470079Y152188D01*
X471012Y152727D01*
X471773Y153488D01*
X472312Y154421D01*
X472590Y155462D01*
Y156538D01*
X472312Y157579D01*
X471773Y158512D01*
X471012Y159273D01*
X470079Y159812D01*
X469038Y160091D01*
D02*
G37*
G36*
X462591Y155500D02*
X459000D01*
Y151909D01*
X459038D01*
X460079Y152188D01*
X461012Y152727D01*
X461773Y153488D01*
X462312Y154421D01*
X462591Y155462D01*
Y155500D01*
D02*
G37*
G36*
X458000D02*
X454410D01*
Y155462D01*
X454688Y154421D01*
X455227Y153488D01*
X455988Y152727D01*
X456921Y152188D01*
X457962Y151909D01*
X458000D01*
Y155500D01*
D02*
G37*
G36*
X402591Y160091D02*
X394409D01*
Y151909D01*
X402591D01*
Y160091D01*
D02*
G37*
G36*
X504189Y130500D02*
X502811D01*
X501458Y130231D01*
X500184Y129703D01*
X499038Y128937D01*
X498063Y127962D01*
X497297Y126816D01*
X496769Y125542D01*
X496500Y124189D01*
Y122811D01*
X496769Y121458D01*
X497297Y120184D01*
X498063Y119038D01*
X499038Y118063D01*
X500184Y117297D01*
X501458Y116769D01*
X502811Y116500D01*
X504189D01*
X505542Y116769D01*
X506816Y117297D01*
X507962Y118063D01*
X508937Y119038D01*
X509703Y120184D01*
X510231Y121458D01*
X510500Y122811D01*
Y124189D01*
X510231Y125542D01*
X509703Y126816D01*
X508937Y127962D01*
X507962Y128937D01*
X506816Y129703D01*
X505542Y130231D01*
X504189Y130500D01*
D02*
G37*
G36*
X382189D02*
X380811D01*
X379458Y130231D01*
X378184Y129703D01*
X377038Y128937D01*
X376063Y127962D01*
X375297Y126816D01*
X374769Y125542D01*
X374500Y124189D01*
Y122811D01*
X374769Y121458D01*
X375297Y120184D01*
X376063Y119038D01*
X377038Y118063D01*
X378184Y117297D01*
X379458Y116769D01*
X380811Y116500D01*
X382189D01*
X383542Y116769D01*
X384816Y117297D01*
X385962Y118063D01*
X386937Y119038D01*
X387703Y120184D01*
X388231Y121458D01*
X388500Y122811D01*
Y124189D01*
X388231Y125542D01*
X387703Y126816D01*
X386937Y127962D01*
X385962Y128937D01*
X384816Y129703D01*
X383542Y130231D01*
X382189Y130500D01*
D02*
G37*
%LPD*%
G36*
X484617Y355446D02*
X484738Y354591D01*
X484831Y354201D01*
X484946Y353834D01*
X485082Y353492D01*
X485239Y353174D01*
X485418Y352880D01*
X485619Y352611D01*
X485842Y352366D01*
X485168Y351625D01*
X484914Y351854D01*
X484640Y352057D01*
X484344Y352233D01*
X484026Y352381D01*
X483688Y352503D01*
X483328Y352598D01*
X482947Y352667D01*
X482544Y352708D01*
X482121Y352722D01*
X481676Y352710D01*
X484588Y355909D01*
X484617Y355446D01*
D02*
G37*
G36*
X480618Y282833D02*
X480228Y282932D01*
X479851Y282994D01*
X479488Y283018D01*
X479139Y283004D01*
X478803Y282952D01*
X478481Y282862D01*
X478173Y282734D01*
X477879Y282569D01*
X477599Y282366D01*
X477332Y282125D01*
X476831Y283038D01*
X477022Y283248D01*
X477209Y283491D01*
X477390Y283767D01*
X477567Y284076D01*
X477738Y284418D01*
X478066Y285199D01*
X478223Y285639D01*
X478521Y286617D01*
X480618Y282833D01*
D02*
G37*
G36*
X481469Y222705D02*
X481015Y222697D01*
X480583Y222666D01*
X480174Y222609D01*
X479788Y222529D01*
X479424Y222425D01*
X479084Y222296D01*
X478766Y222142D01*
X478471Y221965D01*
X478198Y221763D01*
X477949Y221537D01*
X477242Y222244D01*
X477468Y222494D01*
X477669Y222766D01*
X477847Y223061D01*
X478000Y223379D01*
X478129Y223720D01*
X478234Y224083D01*
X478314Y224469D01*
X478370Y224878D01*
X478402Y225310D01*
X478410Y225764D01*
X481469Y222705D01*
D02*
G37*
G36*
Y212705D02*
X481015Y212697D01*
X480583Y212666D01*
X480174Y212610D01*
X479788Y212529D01*
X479424Y212424D01*
X479084Y212296D01*
X478766Y212142D01*
X478471Y211965D01*
X478198Y211763D01*
X477949Y211537D01*
X477242Y212244D01*
X477468Y212494D01*
X477669Y212766D01*
X477847Y213061D01*
X478000Y213379D01*
X478129Y213720D01*
X478234Y214083D01*
X478314Y214469D01*
X478370Y214878D01*
X478402Y215310D01*
X478410Y215764D01*
X481469Y212705D01*
D02*
G37*
G36*
X452758Y159551D02*
X452532Y159302D01*
X452330Y159029D01*
X452153Y158734D01*
X452000Y158416D01*
X451871Y158075D01*
X451766Y157712D01*
X451686Y157326D01*
X451630Y156917D01*
X451598Y156485D01*
X451590Y156031D01*
X448531Y159090D01*
X448985Y159098D01*
X449417Y159130D01*
X449826Y159186D01*
X450212Y159266D01*
X450576Y159371D01*
X450916Y159500D01*
X451234Y159653D01*
X451529Y159830D01*
X451802Y160032D01*
X452051Y160258D01*
X452758Y159551D01*
D02*
G37*
G36*
X442758D02*
X442532Y159302D01*
X442331Y159029D01*
X442153Y158734D01*
X442000Y158416D01*
X441871Y158075D01*
X441766Y157712D01*
X441686Y157326D01*
X441630Y156917D01*
X441598Y156485D01*
X441590Y156031D01*
X438531Y159090D01*
X438985Y159098D01*
X439417Y159130D01*
X439826Y159186D01*
X440212Y159266D01*
X440576Y159371D01*
X440916Y159500D01*
X441234Y159653D01*
X441529Y159830D01*
X441802Y160032D01*
X442051Y160258D01*
X442758Y159551D01*
D02*
G37*
G36*
X412758D02*
X412532Y159302D01*
X412330Y159029D01*
X412153Y158734D01*
X412000Y158416D01*
X411871Y158075D01*
X411766Y157712D01*
X411686Y157326D01*
X411630Y156917D01*
X411598Y156485D01*
X411590Y156031D01*
X408531Y159090D01*
X408985Y159098D01*
X409417Y159130D01*
X409826Y159186D01*
X410212Y159266D01*
X410576Y159371D01*
X410916Y159500D01*
X411234Y159653D01*
X411529Y159830D01*
X411802Y160032D01*
X412051Y160258D01*
X412758Y159551D01*
D02*
G37*
G36*
X420830Y158058D02*
X420998Y157939D01*
X421184Y157834D01*
X421388Y157743D01*
X421611Y157666D01*
X421852Y157603D01*
X422112Y157554D01*
X422389Y157519D01*
X422685Y157498D01*
X422999Y157491D01*
Y156491D01*
X422749Y156482D01*
X422521Y156455D01*
X422318Y156410D01*
X422139Y156346D01*
X421983Y156265D01*
X421851Y156165D01*
X421743Y156047D01*
X421659Y155911D01*
X421599Y155757D01*
X421562Y155585D01*
X420680Y158191D01*
X420830Y158058D01*
D02*
G37*
G36*
X445346Y165009D02*
X441201Y160864D01*
X441154Y160822D01*
X440962Y160679D01*
X440749Y160551D01*
X440514Y160438D01*
X440253Y160339D01*
X439967Y160257D01*
X439653Y160191D01*
X439310Y160144D01*
X438939Y160117D01*
X438514Y160110D01*
X438425Y160091D01*
X437961D01*
X436921Y159812D01*
X435988Y159273D01*
X435227Y158512D01*
X434688Y157579D01*
X434410Y156538D01*
Y155462D01*
X434688Y154421D01*
X435227Y153488D01*
X435314Y153401D01*
X435123Y152939D01*
X433724D01*
X433364Y153299D01*
X433322Y153346D01*
X433179Y153538D01*
X433051Y153751D01*
X432937Y153986D01*
X432839Y154246D01*
X432757Y154533D01*
X432691Y154847D01*
X432644Y155190D01*
X432617Y155561D01*
X432610Y155986D01*
X432590Y156075D01*
Y156538D01*
X432312Y157579D01*
X431773Y158512D01*
X431012Y159273D01*
X430079Y159812D01*
X429038Y160091D01*
X428915D01*
X428723Y160553D01*
X433641Y165471D01*
X445154D01*
X445346Y165009D01*
D02*
G37*
G36*
X431598Y155515D02*
X431630Y155083D01*
X431686Y154674D01*
X431766Y154288D01*
X431871Y153925D01*
X432000Y153584D01*
X432153Y153266D01*
X432331Y152971D01*
X432532Y152698D01*
X432758Y152449D01*
X432051Y151742D01*
X431802Y151968D01*
X431529Y152170D01*
X431234Y152347D01*
X430916Y152500D01*
X430576Y152629D01*
X430212Y152734D01*
X429826Y152814D01*
X429417Y152870D01*
X428985Y152902D01*
X428531Y152910D01*
X431590Y155969D01*
X431598Y155515D01*
D02*
G37*
G36*
X410777Y288937D02*
X410700Y288993D01*
X410609Y289020D01*
X410503Y289019D01*
X410384Y288989D01*
X410249Y288931D01*
X410101Y288845D01*
X409938Y288731D01*
X409760Y288588D01*
X409362Y288218D01*
X408655Y288925D01*
X408854Y289131D01*
X409168Y289501D01*
X409282Y289664D01*
X409368Y289812D01*
X409426Y289947D01*
X409456Y290066D01*
X409457Y290172D01*
X409430Y290263D01*
X409374Y290340D01*
X410777Y288937D01*
D02*
G37*
G36*
X402510Y287383D02*
X402540Y287302D01*
X402590Y287231D01*
X402660Y287170D01*
X402750Y287118D01*
X402860Y287076D01*
X402990Y287042D01*
X403140Y287019D01*
X403310Y287005D01*
X403500Y287000D01*
Y286000D01*
X403310Y285995D01*
X403140Y285981D01*
X402990Y285958D01*
X402860Y285924D01*
X402750Y285882D01*
X402660Y285830D01*
X402590Y285769D01*
X402540Y285698D01*
X402510Y285617D01*
X402500Y285528D01*
X402413Y285518D01*
X402336Y285488D01*
X402267Y285438D01*
X402208Y285368D01*
X402157Y285278D01*
X402116Y285168D01*
X402084Y285038D01*
X402062Y284888D01*
X402048Y284718D01*
X402043Y284528D01*
X401043D01*
X401038Y284718D01*
X401023Y284888D01*
X400998Y285038D01*
X400963Y285168D01*
X400918Y285278D01*
X400863Y285368D01*
X400798Y285438D01*
X400723Y285488D01*
X400638Y285518D01*
X400543Y285528D01*
X402500D01*
Y287472D01*
X402510Y287383D01*
D02*
G37*
G36*
X404501Y275448D02*
X404548Y274678D01*
X404560Y274648D01*
X404575Y274638D01*
X403000Y274626D01*
X403095Y274636D01*
X403180Y274667D01*
X403255Y274718D01*
X403320Y274789D01*
X403375Y274881D01*
X403420Y274992D01*
X403455Y275123D01*
X403480Y275274D01*
X403495Y275446D01*
X403500Y275638D01*
X404500D01*
X404501Y275448D01*
D02*
G37*
G36*
X355564Y329094D02*
X356594Y328649D01*
X356910Y328541D01*
X357502Y328383D01*
X357777Y328333D01*
X358038Y328304D01*
X358286Y328294D01*
X358618Y327294D01*
X358308Y327280D01*
X358015Y327236D01*
X357740Y327164D01*
X357482Y327063D01*
X357242Y326934D01*
X357019Y326775D01*
X356815Y326588D01*
X356627Y326371D01*
X356457Y326126D01*
X356305Y325852D01*
X355193Y329282D01*
X355564Y329094D01*
D02*
G37*
G36*
X378312Y328002D02*
X378461Y327881D01*
X378603Y327785D01*
X378740Y327713D01*
X378871Y327666D01*
X378995Y327643D01*
X379114Y327645D01*
X379226Y327672D01*
X379333Y327722D01*
X379433Y327798D01*
X378419Y325745D01*
X378419Y325883D01*
X378398Y326028D01*
X378355Y326180D01*
X378290Y326339D01*
X378204Y326505D01*
X378096Y326678D01*
X377967Y326858D01*
X377816Y327045D01*
X377450Y327440D01*
X378158Y328148D01*
X378312Y328002D01*
D02*
G37*
G36*
X384259Y326948D02*
X384437Y326749D01*
X384632Y326574D01*
X384845Y326421D01*
X385076Y326293D01*
X385325Y326187D01*
X385592Y326105D01*
X385877Y326047D01*
X386179Y326012D01*
X386500Y326000D01*
Y325000D01*
X386179Y324988D01*
X385877Y324953D01*
X385592Y324895D01*
X385325Y324813D01*
X385076Y324707D01*
X384845Y324578D01*
X384632Y324426D01*
X384437Y324251D01*
X384259Y324052D01*
X384100Y323829D01*
Y327171D01*
X384259Y326948D01*
D02*
G37*
G36*
X391918Y318446D02*
X391933Y318275D01*
X391958Y318123D01*
X391993Y317992D01*
X392038Y317881D01*
X392093Y317790D01*
X392158Y317718D01*
X392233Y317667D01*
X392318Y317636D01*
X392413Y317626D01*
X390925Y317638D01*
X390923Y317648D01*
X390921Y317678D01*
X390915Y318128D01*
X390913Y318638D01*
X391913D01*
X391918Y318446D01*
D02*
G37*
G36*
X393590Y311364D02*
X393505Y311334D01*
X393430Y311283D01*
X393365Y311212D01*
X393310Y311121D01*
X393265Y311010D01*
X393230Y310878D01*
X393205Y310727D01*
X393190Y310555D01*
X393185Y310362D01*
X392185D01*
X392180Y310555D01*
X392165Y310727D01*
X392140Y310878D01*
X392105Y311010D01*
X392060Y311121D01*
X392005Y311212D01*
X391940Y311283D01*
X391865Y311334D01*
X391780Y311364D01*
X391685Y311374D01*
X393685D01*
X393590Y311364D01*
D02*
G37*
G36*
X393190Y301782D02*
X393205Y301612D01*
X393230Y301462D01*
X393265Y301332D01*
X393310Y301222D01*
X393365Y301132D01*
X393430Y301062D01*
X393505Y301012D01*
X393590Y300982D01*
X393685Y300972D01*
X391685D01*
X391780Y300982D01*
X391865Y301012D01*
X391940Y301062D01*
X392005Y301132D01*
X392060Y301222D01*
X392105Y301332D01*
X392140Y301462D01*
X392165Y301612D01*
X392180Y301782D01*
X392185Y301972D01*
X393185D01*
X393190Y301782D01*
D02*
G37*
G36*
X393968Y299030D02*
X393883Y298999D01*
X393808Y298949D01*
X393743Y298878D01*
X393688Y298787D01*
X393643Y298675D01*
X393608Y298544D01*
X393583Y298392D01*
X393568Y298220D01*
X393563Y298028D01*
X392563D01*
X392558Y298220D01*
X392543Y298392D01*
X392518Y298544D01*
X392483Y298675D01*
X392438Y298787D01*
X392383Y298878D01*
X392318Y298949D01*
X392243Y298999D01*
X392158Y299030D01*
X392063Y299040D01*
X394063D01*
X393968Y299030D01*
D02*
G37*
G36*
X393568Y288280D02*
X393583Y288108D01*
X393608Y287956D01*
X393643Y287825D01*
X393688Y287713D01*
X393743Y287622D01*
X393808Y287551D01*
X393883Y287501D01*
X393968Y287470D01*
X394063Y287460D01*
X392063D01*
X392158Y287470D01*
X392243Y287501D01*
X392318Y287551D01*
X392383Y287622D01*
X392438Y287713D01*
X392483Y287825D01*
X392518Y287956D01*
X392543Y288108D01*
X392558Y288280D01*
X392563Y288472D01*
X393563D01*
X393568Y288280D01*
D02*
G37*
G36*
X393945Y268362D02*
X393957Y267362D01*
X392957D01*
X392952Y267554D01*
X392937Y267725D01*
X392912Y267877D01*
X392877Y268008D01*
X392832Y268119D01*
X392777Y268211D01*
X392712Y268282D01*
X392637Y268333D01*
X392552Y268363D01*
X392457Y268374D01*
X393945Y268362D01*
D02*
G37*
G36*
X394012Y265664D02*
X394050Y265383D01*
X394112Y265105D01*
X394200Y264833D01*
X394313Y264564D01*
X394450Y264300D01*
X394613Y264040D01*
X394800Y263784D01*
X395012Y263532D01*
X395250Y263285D01*
X391750D01*
X391987Y263532D01*
X392200Y263784D01*
X392388Y264040D01*
X392550Y264300D01*
X392688Y264564D01*
X392800Y264833D01*
X392887Y265105D01*
X392950Y265383D01*
X392987Y265664D01*
X393000Y265950D01*
X394000D01*
X394012Y265664D01*
D02*
G37*
G36*
X450006Y248474D02*
X450023Y248463D01*
X450052Y248453D01*
X450092Y248445D01*
X450144Y248438D01*
X450283Y248427D01*
X450578Y248422D01*
Y247422D01*
X449738Y247386D01*
X450000Y248487D01*
X450006Y248474D01*
D02*
G37*
G36*
X449500Y226793D02*
X449307Y226582D01*
X449134Y226356D01*
X448982Y226116D01*
X448851Y225862D01*
X448741Y225592D01*
X448652Y225308D01*
X448583Y225009D01*
X448534Y224696D01*
X448507Y224368D01*
X448500Y224025D01*
X446025Y226500D01*
X446368Y226507D01*
X446696Y226534D01*
X447009Y226583D01*
X447308Y226652D01*
X447592Y226741D01*
X447861Y226852D01*
X448116Y226982D01*
X448356Y227134D01*
X448582Y227307D01*
X448793Y227500D01*
X449500Y226793D01*
D02*
G37*
D14*
X444000Y156907D02*
G03*
X444000Y155093I4500J-907D01*
G01*
X393457Y266121D02*
Y270228D01*
X393500Y261500D02*
Y266077D01*
X392185Y271500D02*
X393457Y270228D01*
Y266121D02*
X393500Y266077D01*
X391413Y315772D02*
Y320587D01*
X386500Y325500D02*
X391413Y320587D01*
X381500Y325500D02*
X386500D01*
X391413Y315772D02*
X392685Y314500D01*
Y300378D02*
Y314500D01*
X474500Y280000D02*
X480295Y285795D01*
X481500D01*
X474500Y247000D02*
Y280000D01*
X476909Y245409D02*
Y278909D01*
X479000Y281000D01*
X466500Y239000D02*
X474500Y247000D01*
X466500Y178500D02*
Y239000D01*
X468500Y237000D02*
X476909Y245409D01*
X468500Y177500D02*
Y237000D01*
X470500Y176000D02*
Y234795D01*
X437500Y156000D02*
X438500D01*
X470500Y234795D02*
X481500Y245795D01*
X457000Y169000D02*
X466500Y178500D01*
X421500Y169000D02*
X457000D01*
X408500Y156000D02*
X421500Y169000D01*
X481500Y355795D02*
X481705D01*
X486091Y351410D01*
Y283894D02*
Y351410D01*
X486000Y283803D02*
X486091Y283894D01*
X486000Y282500D02*
Y283803D01*
X479000Y281000D02*
X484500D01*
X486000Y282500D01*
X418500Y155500D02*
X419991Y156991D01*
X459500Y165000D02*
X470500Y176000D01*
X458000Y167000D02*
X468500Y177500D01*
X433008Y167000D02*
X458000D01*
X422999Y156991D02*
X433008Y167000D01*
X419991Y156991D02*
X422999D01*
X447500Y165000D02*
X459500D01*
X438500Y156000D02*
X447500Y165000D01*
X449008Y163000D02*
X460500D01*
X444000Y157992D02*
X449008Y163000D01*
X433090Y151409D02*
X440909D01*
X428500Y156000D02*
X433090Y151409D01*
X418500Y155500D02*
Y156000D01*
X472980Y175480D02*
Y217276D01*
X481500Y225795D01*
X460500Y163000D02*
X472980Y175480D01*
X475000Y209295D02*
X481500Y215795D01*
X462591Y160591D02*
X475000Y173000D01*
Y209295D01*
X448500Y156000D02*
X453090Y160591D01*
X462591D01*
X440909Y151409D02*
X444000Y154500D01*
Y156907D02*
Y157992D01*
Y154500D02*
Y155093D01*
X448078Y247922D02*
X450578D01*
X447500Y248500D02*
X448078Y247922D01*
X453000Y231000D02*
Y245500D01*
X450578Y247922D02*
X453000Y245500D01*
X446000Y224000D02*
X453000Y231000D01*
X404000Y272685D02*
Y279000D01*
X402815Y271500D02*
X404000Y272685D01*
X400937Y286500D02*
X401543D01*
Y281457D02*
Y286016D01*
Y286500D02*
X406937D01*
X401543Y281457D02*
X404000Y279000D01*
X400937Y286500D02*
X401059D01*
X401543Y286016D01*
X406937Y286500D02*
X411122Y290685D01*
X412500D01*
X393063Y286500D02*
Y300000D01*
X392685Y300378D02*
X393063Y300000D01*
X377804Y327794D02*
X380098Y325500D01*
X381836D01*
X354794Y327794D02*
X377804D01*
X354000Y327000D02*
X354794Y327794D01*
D39*
X468500Y156000D02*
D03*
X458500D02*
D03*
X448500D02*
D03*
X438500D02*
D03*
X428500D02*
D03*
X418500D02*
D03*
X408500D02*
D03*
X381500Y355500D02*
D03*
Y345500D02*
D03*
Y335500D02*
D03*
Y325500D02*
D03*
Y315500D02*
D03*
Y305500D02*
D03*
Y295500D02*
D03*
Y285500D02*
D03*
Y275500D02*
D03*
Y265500D02*
D03*
Y255500D02*
D03*
Y245500D02*
D03*
Y235500D02*
D03*
Y225500D02*
D03*
Y215500D02*
D03*
Y205500D02*
D03*
Y195500D02*
D03*
Y185500D02*
D03*
Y175500D02*
D03*
X481500Y355795D02*
D03*
Y345795D02*
D03*
Y335795D02*
D03*
Y325795D02*
D03*
Y315795D02*
D03*
Y305795D02*
D03*
Y295795D02*
D03*
Y285795D02*
D03*
Y275795D02*
D03*
Y265795D02*
D03*
Y255795D02*
D03*
Y245795D02*
D03*
Y235795D02*
D03*
Y225795D02*
D03*
Y215795D02*
D03*
Y205795D02*
D03*
Y195795D02*
D03*
Y185795D02*
D03*
Y175795D02*
D03*
X497000Y268500D02*
D03*
X496000Y345500D02*
D03*
D40*
X398500Y156000D02*
D03*
D41*
X381500Y365500D02*
D03*
X481500Y365795D02*
D03*
X497000Y258500D02*
D03*
X496000Y355500D02*
D03*
D44*
X397315Y412685D02*
D03*
Y422528D02*
D03*
X417000Y393000D02*
D03*
X436685Y412685D02*
D03*
Y422528D02*
D03*
D45*
Y393000D02*
D03*
X397315D02*
D03*
D46*
X417000Y412685D02*
D03*
D47*
X354000Y327000D02*
D03*
Y319126D02*
D03*
Y334874D02*
D03*
D48*
Y307906D02*
D03*
Y346094D02*
D03*
D49*
X381500Y428500D02*
D03*
X503500D02*
D03*
Y123500D02*
D03*
X381500D02*
D03*
D50*
X447500Y248500D02*
D03*
X446000Y224000D02*
D03*
X459500Y185500D02*
D03*
X393500Y261500D02*
D03*
X432000Y317000D02*
D03*
D51*
X392185Y271500D02*
D03*
X402815D02*
D03*
X403315Y314500D02*
D03*
X392685D02*
D03*
D52*
X400937Y286500D02*
D03*
X393063D02*
D03*
Y300000D02*
D03*
X400937D02*
D03*
D53*
X412500Y301315D02*
D03*
Y290685D02*
D03*
M02*
