G04*
G04 #@! TF.GenerationSoftware,Altium Limited,Altium Designer,22.0.2 (36)*
G04*
G04 Layer_Physical_Order=1*
G04 Layer_Color=255*
%FSLAX25Y25*%
%MOIN*%
G70*
G04*
G04 #@! TF.SameCoordinates,7C6212BA-1BE9-4310-A8C3-E6ACAF7CF704*
G04*
G04*
G04 #@! TF.FilePolarity,Positive*
G04*
G01*
G75*
%ADD14C,0.01000*%
%ADD16R,0.13209X0.05135*%
%ADD17R,0.04331X0.06693*%
%ADD18R,0.12631X0.04547*%
%ADD19R,0.04449X0.06969*%
%ADD20R,0.06693X0.04331*%
G04:AMPARAMS|DCode=21|XSize=51.97mil|YSize=23.23mil|CornerRadius=2.9mil|HoleSize=0mil|Usage=FLASHONLY|Rotation=180.000|XOffset=0mil|YOffset=0mil|HoleType=Round|Shape=RoundedRectangle|*
%AMROUNDEDRECTD21*
21,1,0.05197,0.01742,0,0,180.0*
21,1,0.04616,0.02323,0,0,180.0*
1,1,0.00581,-0.02308,0.00871*
1,1,0.00581,0.02308,0.00871*
1,1,0.00581,0.02308,-0.00871*
1,1,0.00581,-0.02308,-0.00871*
%
%ADD21ROUNDEDRECTD21*%
%ADD22R,0.11811X0.07874*%
%ADD23R,0.07087X0.05118*%
%ADD24R,0.05135X0.13209*%
%ADD25R,0.08268X0.16535*%
%ADD26R,0.07087X0.04921*%
%ADD39C,0.06181*%
%ADD40R,0.06181X0.06181*%
%ADD41R,0.06181X0.06181*%
%ADD44C,0.04724*%
%ADD45O,0.05150X0.10299*%
%ADD46O,0.10299X0.05150*%
%ADD47C,0.05150*%
%ADD48C,0.08858*%
%ADD49C,0.12000*%
%ADD50C,0.05000*%
G36*
X506385Y441110D02*
X509072Y439994D01*
X511410Y438565D01*
X513656Y436656D01*
X515565Y434410D01*
X517146Y431769D01*
X518272Y428859D01*
X519000Y426000D01*
X519500Y305500D01*
X519000Y164219D01*
X519000Y128000D01*
X518811Y125638D01*
X518741Y125220D01*
X517501Y121194D01*
X515888Y118553D01*
X513925Y116118D01*
X511410Y113935D01*
X508561Y112254D01*
X505434Y111109D01*
X502477Y110580D01*
X381023D01*
X377390Y111303D01*
X374092Y112682D01*
X371176Y114638D01*
X368856Y116915D01*
X367062Y119422D01*
X365687Y122270D01*
X364824Y125315D01*
X364500Y128500D01*
X364304Y237132D01*
X364451Y288436D01*
X364183Y289866D01*
X363697Y291216D01*
X362871Y292577D01*
X361892Y293836D01*
X360729Y294825D01*
X359400Y295611D01*
X357996Y296147D01*
X356401Y296500D01*
X349457Y296561D01*
X347801Y296914D01*
X346215Y297586D01*
X344747Y298579D01*
X343588Y299736D01*
X342695Y301019D01*
X342039Y302433D01*
X341771Y303179D01*
X341500Y304712D01*
Y305500D01*
X341545Y348903D01*
X341832Y350654D01*
X342529Y352179D01*
X342903Y352826D01*
X343334Y353445D01*
X343807Y354017D01*
X344326Y354548D01*
X344909Y355091D01*
X345611Y355557D01*
X346903Y356250D01*
X347655Y356570D01*
X348402Y356752D01*
X349084Y356888D01*
X349756Y356969D01*
X355500Y357000D01*
X357135Y357150D01*
X358710Y357592D01*
X360189Y358318D01*
X361548Y359335D01*
X362792Y360724D01*
X363733Y362364D01*
X364304Y364135D01*
X364451Y365065D01*
X364500Y366000D01*
Y426500D01*
X365508Y429737D01*
X366797Y432617D01*
X368665Y435358D01*
X370864Y437601D01*
X373423Y439438D01*
X376409Y440865D01*
X379457Y441702D01*
X382499Y442000D01*
X503500D01*
X506385Y441110D01*
D02*
G37*
%LPC*%
G36*
X504189Y435500D02*
X502811D01*
X501458Y435231D01*
X500184Y434703D01*
X499038Y433937D01*
X498063Y432962D01*
X497297Y431816D01*
X496769Y430542D01*
X496500Y429189D01*
Y427811D01*
X496769Y426458D01*
X497297Y425184D01*
X498063Y424038D01*
X499038Y423063D01*
X500184Y422297D01*
X501458Y421769D01*
X502811Y421500D01*
X504189D01*
X505542Y421769D01*
X506816Y422297D01*
X507962Y423063D01*
X508937Y424038D01*
X509703Y425184D01*
X510231Y426458D01*
X510500Y427811D01*
Y429189D01*
X510231Y430542D01*
X509703Y431816D01*
X508937Y432962D01*
X507962Y433937D01*
X506816Y434703D01*
X505542Y435231D01*
X504189Y435500D01*
D02*
G37*
G36*
X382189D02*
X380811D01*
X379458Y435231D01*
X378184Y434703D01*
X377038Y433937D01*
X376063Y432962D01*
X375297Y431816D01*
X374769Y430542D01*
X374500Y429189D01*
Y427811D01*
X374769Y426458D01*
X375297Y425184D01*
X376063Y424038D01*
X377038Y423063D01*
X378184Y422297D01*
X379458Y421769D01*
X380811Y421500D01*
X382189D01*
X383542Y421769D01*
X384816Y422297D01*
X385962Y423063D01*
X386937Y424038D01*
X387703Y425184D01*
X388231Y426458D01*
X388500Y427811D01*
Y429189D01*
X388231Y430542D01*
X387703Y431816D01*
X386937Y432962D01*
X385962Y433937D01*
X384816Y434703D01*
X383542Y435231D01*
X382189Y435500D01*
D02*
G37*
G36*
X437128Y425890D02*
X436242D01*
X435387Y425661D01*
X434621Y425218D01*
X433995Y424592D01*
X433552Y423825D01*
X433323Y422970D01*
Y422085D01*
X433552Y421230D01*
X433995Y420463D01*
X434621Y419837D01*
X435387Y419394D01*
X436242Y419165D01*
X437128D01*
X437983Y419394D01*
X438750Y419837D01*
X439375Y420463D01*
X439818Y421230D01*
X440047Y422085D01*
Y422970D01*
X439818Y423825D01*
X439375Y424592D01*
X438750Y425218D01*
X437983Y425661D01*
X437128Y425890D01*
D02*
G37*
G36*
X397758D02*
X396872D01*
X396017Y425661D01*
X395251Y425218D01*
X394624Y424592D01*
X394182Y423825D01*
X393953Y422970D01*
Y422085D01*
X394182Y421230D01*
X394624Y420463D01*
X395251Y419837D01*
X396017Y419394D01*
X396872Y419165D01*
X397758D01*
X398613Y419394D01*
X399379Y419837D01*
X400005Y420463D01*
X400448Y421230D01*
X400677Y422085D01*
Y422970D01*
X400448Y423825D01*
X400005Y424592D01*
X399379Y425218D01*
X398613Y425661D01*
X397758Y425890D01*
D02*
G37*
G36*
X475134Y433236D02*
X464866D01*
Y424464D01*
X464367Y424365D01*
X463870Y424033D01*
X446867Y407029D01*
X419633D01*
X418529Y408134D01*
Y409079D01*
X419575D01*
X420508Y409202D01*
X421378Y409562D01*
X422124Y410136D01*
X422697Y410882D01*
X423058Y411752D01*
X423180Y412685D01*
X423058Y413618D01*
X422697Y414488D01*
X422124Y415235D01*
X421378Y415808D01*
X420508Y416168D01*
X419575Y416291D01*
X414425D01*
X413492Y416168D01*
X412622Y415808D01*
X411876Y415235D01*
X411303Y414488D01*
X410942Y413618D01*
X410819Y412685D01*
X410942Y411752D01*
X411303Y410882D01*
X411876Y410136D01*
X412622Y409562D01*
X413492Y409202D01*
X414425Y409079D01*
X415471D01*
Y407500D01*
X415587Y406915D01*
X415919Y406419D01*
X417919Y404419D01*
X418415Y404087D01*
X419000Y403971D01*
X447500D01*
X448085Y404087D01*
X448581Y404419D01*
X464404Y420241D01*
X464866Y420050D01*
Y414701D01*
X475134D01*
Y433236D01*
D02*
G37*
G36*
X437128Y416047D02*
X436242D01*
X435387Y415818D01*
X434621Y415376D01*
X433995Y414749D01*
X433552Y413983D01*
X433323Y413128D01*
Y412242D01*
X433552Y411387D01*
X433995Y410621D01*
X434621Y409995D01*
X435387Y409552D01*
X436242Y409323D01*
X437128D01*
X437983Y409552D01*
X438750Y409995D01*
X439375Y410621D01*
X439818Y411387D01*
X440047Y412242D01*
Y413128D01*
X439818Y413983D01*
X439375Y414749D01*
X438750Y415376D01*
X437983Y415818D01*
X437128Y416047D01*
D02*
G37*
G36*
X397758D02*
X396872D01*
X396017Y415818D01*
X395251Y415376D01*
X394624Y414749D01*
X394182Y413983D01*
X393953Y413128D01*
Y412242D01*
X394182Y411387D01*
X394624Y410621D01*
X395251Y409995D01*
X396017Y409552D01*
X396872Y409323D01*
X397758D01*
X398613Y409552D01*
X399379Y409995D01*
X400005Y410621D01*
X400448Y411387D01*
X400677Y412242D01*
Y413128D01*
X400448Y413983D01*
X400005Y414749D01*
X399379Y415376D01*
X398613Y415818D01*
X397758Y416047D01*
D02*
G37*
G36*
X475134Y404299D02*
X470500D01*
Y395532D01*
X475134D01*
Y404299D01*
D02*
G37*
G36*
X469500D02*
X464866D01*
Y395532D01*
X469500D01*
Y404299D01*
D02*
G37*
G36*
X417443Y396362D02*
X416557D01*
X415702Y396133D01*
X414936Y395690D01*
X414310Y395064D01*
X413867Y394298D01*
X413638Y393443D01*
Y392557D01*
X413867Y391702D01*
X414310Y390936D01*
X414936Y390310D01*
X415702Y389867D01*
X416557Y389638D01*
X417443D01*
X418298Y389867D01*
X419064Y390310D01*
X419690Y390936D01*
X420133Y391702D01*
X420362Y392557D01*
Y393443D01*
X420133Y394298D01*
X419690Y395064D01*
X419064Y395690D01*
X418298Y396133D01*
X417443Y396362D01*
D02*
G37*
G36*
X397315Y399181D02*
X396382Y399058D01*
X395512Y398697D01*
X394765Y398124D01*
X394192Y397378D01*
X393832Y396508D01*
X393709Y395575D01*
Y390425D01*
X393832Y389492D01*
X394192Y388622D01*
X394765Y387876D01*
X395512Y387303D01*
X396382Y386942D01*
X397315Y386820D01*
X398248Y386942D01*
X399118Y387303D01*
X399865Y387876D01*
X400437Y388622D01*
X400798Y389492D01*
X400921Y390425D01*
Y395575D01*
X400798Y396508D01*
X400437Y397378D01*
X399865Y398124D01*
X399118Y398697D01*
X398248Y399058D01*
X397315Y399181D01*
D02*
G37*
G36*
X475134Y394531D02*
X470500D01*
Y385764D01*
X475134D01*
Y394531D01*
D02*
G37*
G36*
X469500D02*
X464866D01*
Y385764D01*
X469500D01*
Y394531D01*
D02*
G37*
G36*
X385591Y369590D02*
X382000D01*
Y366000D01*
X385591D01*
Y369590D01*
D02*
G37*
G36*
X381000D02*
X377410D01*
Y366000D01*
X381000D01*
Y369590D01*
D02*
G37*
G36*
X485591Y369886D02*
X477410D01*
Y361705D01*
X485591D01*
Y369886D01*
D02*
G37*
G36*
X385591Y365000D02*
X382000D01*
Y361409D01*
X385591D01*
Y365000D01*
D02*
G37*
G36*
X381000D02*
X377410D01*
Y361409D01*
X381000D01*
Y365000D01*
D02*
G37*
G36*
X441547Y367846D02*
X435217D01*
Y361618D01*
X435209Y361580D01*
X435217Y361542D01*
Y361355D01*
X435006Y361106D01*
X430316Y356416D01*
X429985Y355920D01*
X429868Y355335D01*
Y353398D01*
X423793D01*
Y351360D01*
X414104D01*
Y353398D01*
X398896D01*
Y351360D01*
X392323D01*
X391737Y351243D01*
X391241Y350912D01*
X386052Y345723D01*
X385591Y345915D01*
Y346039D01*
X385312Y347079D01*
X384773Y348012D01*
X384012Y348773D01*
X383079Y349312D01*
X382038Y349590D01*
X380961D01*
X379921Y349312D01*
X378988Y348773D01*
X378227Y348012D01*
X377688Y347079D01*
X377410Y346039D01*
Y344962D01*
X377688Y343921D01*
X378227Y342988D01*
X378314Y342901D01*
X378123Y342439D01*
X360035D01*
X359450Y342322D01*
X358954Y341991D01*
X356022Y339059D01*
X356019Y339056D01*
X355861Y338936D01*
X355691Y338829D01*
X355508Y338736D01*
X355310Y338656D01*
X355094Y338589D01*
X354860Y338535D01*
X354606Y338497D01*
X354331Y338474D01*
X354006Y338468D01*
X353918Y338449D01*
X353529D01*
X352620Y338205D01*
X351805Y337735D01*
X351139Y337069D01*
X350669Y336254D01*
X350425Y335345D01*
Y334403D01*
X350669Y333494D01*
X351139Y332679D01*
X351805Y332014D01*
X352620Y331543D01*
X353529Y331299D01*
X354471D01*
X355380Y331543D01*
X356195Y332014D01*
X356861Y332679D01*
X357331Y333494D01*
X357575Y334403D01*
Y334792D01*
X357594Y334880D01*
X357600Y335205D01*
X357623Y335480D01*
X357662Y335734D01*
X357715Y335968D01*
X357782Y336184D01*
X357862Y336382D01*
X357955Y336565D01*
X358062Y336735D01*
X358182Y336893D01*
X358185Y336896D01*
X360669Y339380D01*
X379039D01*
X379173Y338880D01*
X378988Y338773D01*
X378227Y338012D01*
X377688Y337079D01*
X377410Y336038D01*
Y334962D01*
X377688Y333921D01*
X378227Y332988D01*
X378988Y332227D01*
X379921Y331688D01*
X380961Y331410D01*
X382038D01*
X383079Y331688D01*
X384012Y332227D01*
X384773Y332988D01*
X385312Y333921D01*
X385591Y334962D01*
Y336038D01*
X385312Y337079D01*
X384773Y338012D01*
X384012Y338773D01*
X383730Y338936D01*
X383817Y339463D01*
X383987Y339496D01*
X384483Y339828D01*
X392956Y348301D01*
X398896D01*
Y346263D01*
X414104D01*
Y348301D01*
X423793D01*
Y346263D01*
X439002D01*
Y353398D01*
X432927D01*
Y354701D01*
X437130Y358904D01*
X437291Y359053D01*
X437411Y359150D01*
X437417Y359154D01*
X437605D01*
X437643Y359146D01*
X437681Y359154D01*
X441547D01*
Y367846D01*
D02*
G37*
G36*
X500091Y359591D02*
X496500D01*
Y356000D01*
X500091D01*
Y359591D01*
D02*
G37*
G36*
X495500D02*
X491910D01*
Y356000D01*
X495500D01*
Y359591D01*
D02*
G37*
G36*
X482038Y359886D02*
X480962D01*
X479921Y359607D01*
X478988Y359068D01*
X478227Y358307D01*
X477688Y357374D01*
X477410Y356334D01*
Y355257D01*
X477688Y354216D01*
X478227Y353284D01*
X478988Y352522D01*
X479921Y351983D01*
X480962Y351705D01*
X482038D01*
X483079Y351983D01*
X484012Y352522D01*
X484773Y353284D01*
X485312Y354216D01*
X485591Y355257D01*
Y356334D01*
X485312Y357374D01*
X484773Y358307D01*
X484012Y359068D01*
X483079Y359607D01*
X482038Y359886D01*
D02*
G37*
G36*
X500091Y355000D02*
X496500D01*
Y351410D01*
X500091D01*
Y355000D01*
D02*
G37*
G36*
X495500D02*
X491910D01*
Y351410D01*
X495500D01*
Y355000D01*
D02*
G37*
G36*
X382038Y359591D02*
X380961D01*
X379921Y359312D01*
X378988Y358773D01*
X378227Y358012D01*
X377688Y357079D01*
X377410Y356038D01*
Y354961D01*
X377688Y353921D01*
X378227Y352988D01*
X378988Y352227D01*
X379921Y351688D01*
X380961Y351410D01*
X382038D01*
X383079Y351688D01*
X384012Y352227D01*
X384773Y352988D01*
X385312Y353921D01*
X385591Y354961D01*
Y356038D01*
X385312Y357079D01*
X384773Y358012D01*
X384012Y358773D01*
X383079Y359312D01*
X382038Y359591D01*
D02*
G37*
G36*
X436685Y399181D02*
X435752Y399058D01*
X434882Y398697D01*
X434135Y398124D01*
X433563Y397378D01*
X433202Y396508D01*
X433079Y395575D01*
Y390425D01*
X433202Y389492D01*
X433563Y388622D01*
X434135Y387876D01*
X434827Y387345D01*
X434841Y387212D01*
Y385130D01*
X434957Y384545D01*
X435289Y384049D01*
X447419Y371919D01*
X447471Y371884D01*
Y367846D01*
X445453D01*
Y359154D01*
X449584D01*
X449828Y358946D01*
X454471Y354304D01*
Y353398D01*
X448685D01*
Y346851D01*
X463315D01*
Y353398D01*
X457529D01*
Y354937D01*
X457413Y355522D01*
X457081Y356018D01*
X452028Y361072D01*
X451880Y361231D01*
X451784Y361351D01*
Y367846D01*
X450529D01*
Y373000D01*
X450413Y373585D01*
X450081Y374081D01*
X449585Y374413D01*
X449167Y374496D01*
X437899Y385763D01*
Y387059D01*
X438488Y387303D01*
X439235Y387876D01*
X439808Y388622D01*
X440168Y389492D01*
X440291Y390425D01*
Y395575D01*
X440168Y396508D01*
X439808Y397378D01*
X439235Y398124D01*
X438488Y398697D01*
X437618Y399058D01*
X436685Y399181D01*
D02*
G37*
G36*
X354715Y351524D02*
X353285D01*
X351904Y351154D01*
X350666Y350439D01*
X349656Y349428D01*
X348941Y348190D01*
X348571Y346809D01*
Y345380D01*
X348941Y343999D01*
X349656Y342761D01*
X350666Y341750D01*
X351904Y341035D01*
X353285Y340665D01*
X354715D01*
X356096Y341035D01*
X357334Y341750D01*
X358344Y342761D01*
X359059Y343999D01*
X359429Y345380D01*
Y346809D01*
X359059Y348190D01*
X358344Y349428D01*
X357334Y350439D01*
X356096Y351154D01*
X354715Y351524D01*
D02*
G37*
G36*
X482038Y339886D02*
X480962D01*
X479921Y339607D01*
X478988Y339069D01*
X478227Y338307D01*
X477688Y337374D01*
X477410Y336334D01*
Y335257D01*
X477688Y334216D01*
X478227Y333284D01*
X478988Y332522D01*
X479921Y331983D01*
X480962Y331705D01*
X482038D01*
X483079Y331983D01*
X484012Y332522D01*
X484773Y333284D01*
X485312Y334216D01*
X485591Y335257D01*
Y336334D01*
X485312Y337374D01*
X484773Y338307D01*
X484012Y339069D01*
X483079Y339607D01*
X482038Y339886D01*
D02*
G37*
G36*
Y349886D02*
X480962D01*
X479921Y349607D01*
X478988Y349068D01*
X478227Y348307D01*
X477688Y347374D01*
X477410Y346334D01*
Y345257D01*
X477688Y344216D01*
X478227Y343284D01*
X478988Y342522D01*
X479921Y341984D01*
X480962Y341705D01*
X482038D01*
X483079Y341984D01*
X484012Y342522D01*
X484224Y342734D01*
X484276Y342765D01*
X484605Y343055D01*
X484907Y343295D01*
X485201Y343503D01*
X485486Y343678D01*
X485761Y343822D01*
X486026Y343936D01*
X486280Y344022D01*
X486526Y344081D01*
X486763Y344115D01*
X486819Y344118D01*
X490628D01*
X490697Y344115D01*
X490933Y344079D01*
X491170Y344019D01*
X491408Y343933D01*
X491650Y343818D01*
X491897Y343674D01*
X492149Y343499D01*
X492406Y343289D01*
X492667Y343045D01*
X492951Y342745D01*
X493019Y342696D01*
X493054Y342661D01*
X493104Y342584D01*
X493400Y342278D01*
X493643Y341997D01*
X493852Y341722D01*
X494027Y341453D01*
X494172Y341192D01*
X494286Y340938D01*
X494372Y340692D01*
X494432Y340451D01*
X494467Y340214D01*
X494471Y340151D01*
Y335898D01*
X488896D01*
Y328763D01*
X504104D01*
Y335898D01*
X497529D01*
Y340151D01*
X497533Y340214D01*
X497568Y340451D01*
X497628Y340692D01*
X497714Y340938D01*
X497828Y341192D01*
X497973Y341453D01*
X498148Y341721D01*
X498357Y341997D01*
X498600Y342278D01*
X498896Y342584D01*
X498946Y342661D01*
X499273Y342988D01*
X499812Y343921D01*
X500091Y344962D01*
Y346039D01*
X499812Y347079D01*
X499273Y348012D01*
X498512Y348773D01*
X497579Y349312D01*
X496538Y349590D01*
X495462D01*
X494421Y349312D01*
X493488Y348773D01*
X493276Y348561D01*
X493224Y348531D01*
X492896Y348240D01*
X492593Y348000D01*
X492299Y347793D01*
X492014Y347617D01*
X491739Y347474D01*
X491474Y347359D01*
X491220Y347274D01*
X490974Y347214D01*
X490737Y347180D01*
X490681Y347177D01*
X486872D01*
X486803Y347181D01*
X486567Y347216D01*
X486330Y347277D01*
X486092Y347363D01*
X485850Y347477D01*
X485603Y347621D01*
X485351Y347797D01*
X485094Y348006D01*
X484833Y348250D01*
X484549Y348551D01*
X484481Y348599D01*
X484012Y349068D01*
X483079Y349607D01*
X482038Y349886D01*
D02*
G37*
G36*
X414104Y331737D02*
X407000D01*
Y328669D01*
X414104D01*
Y331737D01*
D02*
G37*
G36*
X406000D02*
X398896D01*
Y328669D01*
X406000D01*
Y331737D01*
D02*
G37*
G36*
X414104Y327669D02*
X407000D01*
Y324602D01*
X414104D01*
Y327669D01*
D02*
G37*
G36*
X406000D02*
X398896D01*
Y324602D01*
X406000D01*
Y327669D01*
D02*
G37*
G36*
X439002Y331737D02*
X423793D01*
Y324602D01*
X430471D01*
Y321252D01*
X430445Y321062D01*
X430403Y320874D01*
X430343Y320686D01*
X430264Y320497D01*
X430164Y320306D01*
X430043Y320112D01*
X429899Y319915D01*
X429730Y319715D01*
X429515Y319492D01*
X429466Y319416D01*
X429199Y319149D01*
X428738Y318351D01*
X428500Y317461D01*
Y316539D01*
X428738Y315649D01*
X429199Y314851D01*
X429851Y314199D01*
X430649Y313738D01*
X431539Y313500D01*
X432461D01*
X433351Y313738D01*
X434149Y314199D01*
X434416Y314466D01*
X434492Y314515D01*
X434716Y314730D01*
X434915Y314898D01*
X435112Y315043D01*
X435306Y315164D01*
X435497Y315264D01*
X435686Y315343D01*
X435874Y315403D01*
X436062Y315445D01*
X436252Y315471D01*
X441083D01*
X441668Y315587D01*
X442164Y315919D01*
X450598Y324353D01*
X450759Y324502D01*
X450880Y324599D01*
X450885Y324602D01*
X451073D01*
X451111Y324594D01*
X451149Y324602D01*
X463315D01*
Y331149D01*
X448685D01*
Y327066D01*
X448677Y327028D01*
X448685Y326990D01*
Y326803D01*
X448474Y326554D01*
X440449Y318529D01*
X436252D01*
X436062Y318555D01*
X435874Y318597D01*
X435686Y318657D01*
X435497Y318737D01*
X435306Y318836D01*
X435112Y318957D01*
X434915Y319102D01*
X434716Y319270D01*
X434492Y319485D01*
X434488Y319488D01*
X434485Y319492D01*
X434270Y319715D01*
X434101Y319915D01*
X433957Y320112D01*
X433836Y320306D01*
X433737Y320497D01*
X433657Y320686D01*
X433597Y320874D01*
X433555Y321062D01*
X433529Y321252D01*
Y324602D01*
X439002D01*
Y331737D01*
D02*
G37*
G36*
X354471Y330575D02*
X353529D01*
X352620Y330331D01*
X351805Y329861D01*
X351139Y329195D01*
X350669Y328380D01*
X350425Y327471D01*
Y326529D01*
X350669Y325620D01*
X351139Y324805D01*
X351805Y324139D01*
X352620Y323669D01*
X353529Y323425D01*
X354471D01*
X355380Y323669D01*
X356195Y324139D01*
X356861Y324805D01*
X357331Y325620D01*
X357575Y326529D01*
Y327471D01*
X357331Y328380D01*
X356861Y329195D01*
X356195Y329861D01*
X355380Y330331D01*
X354471Y330575D01*
D02*
G37*
G36*
X482038Y329886D02*
X480962D01*
X479921Y329607D01*
X478988Y329068D01*
X478227Y328307D01*
X477688Y327374D01*
X477410Y326334D01*
Y325257D01*
X477688Y324216D01*
X478227Y323284D01*
X478988Y322522D01*
X479921Y321984D01*
X480962Y321705D01*
X482038D01*
X483079Y321984D01*
X484012Y322522D01*
X484773Y323284D01*
X485312Y324216D01*
X485591Y325257D01*
Y326334D01*
X485312Y327374D01*
X484773Y328307D01*
X484012Y329068D01*
X483079Y329607D01*
X482038Y329886D01*
D02*
G37*
G36*
X382038Y329591D02*
X380961D01*
X379921Y329312D01*
X378988Y328773D01*
X378227Y328012D01*
X377688Y327079D01*
X377410Y326039D01*
Y324961D01*
X377688Y323921D01*
X378227Y322988D01*
X378988Y322227D01*
X379921Y321688D01*
X380961Y321410D01*
X382038D01*
X383079Y321688D01*
X384012Y322227D01*
X384773Y322988D01*
X385312Y323921D01*
X385591Y324961D01*
Y326039D01*
X385312Y327079D01*
X384773Y328012D01*
X384012Y328773D01*
X383079Y329312D01*
X382038Y329591D01*
D02*
G37*
G36*
X482038Y319886D02*
X480962D01*
X479921Y319607D01*
X478988Y319069D01*
X478227Y318307D01*
X477688Y317374D01*
X477410Y316334D01*
Y315257D01*
X477688Y314216D01*
X478227Y313284D01*
X478988Y312522D01*
X479921Y311983D01*
X480962Y311705D01*
X482038D01*
X483079Y311983D01*
X484012Y312522D01*
X484773Y313284D01*
X485312Y314216D01*
X485591Y315257D01*
Y316334D01*
X485312Y317374D01*
X484773Y318307D01*
X484012Y319069D01*
X483079Y319607D01*
X482038Y319886D01*
D02*
G37*
G36*
X382038Y319590D02*
X380961D01*
X379921Y319312D01*
X378988Y318773D01*
X378227Y318012D01*
X377688Y317079D01*
X377410Y316038D01*
Y314962D01*
X377688Y313921D01*
X378227Y312988D01*
X378988Y312227D01*
X379921Y311688D01*
X380961Y311409D01*
X382038D01*
X383079Y311688D01*
X384012Y312227D01*
X384773Y312988D01*
X385312Y313921D01*
X385591Y314962D01*
Y316038D01*
X385312Y317079D01*
X384773Y318012D01*
X384012Y318773D01*
X383079Y319312D01*
X382038Y319590D01*
D02*
G37*
G36*
X354715Y313335D02*
X353285D01*
X351904Y312965D01*
X350666Y312250D01*
X349656Y311239D01*
X348941Y310001D01*
X348571Y308620D01*
Y307191D01*
X348941Y305810D01*
X349656Y304572D01*
X350666Y303561D01*
X351904Y302846D01*
X353285Y302476D01*
X354715D01*
X356096Y302846D01*
X357334Y303561D01*
X358344Y304572D01*
X359059Y305810D01*
X359429Y307191D01*
Y308620D01*
X359059Y310001D01*
X358344Y311239D01*
X357334Y312250D01*
X356096Y312965D01*
X354715Y313335D01*
D02*
G37*
G36*
X482038Y309886D02*
X480962D01*
X479921Y309607D01*
X478988Y309068D01*
X478227Y308307D01*
X477688Y307374D01*
X477410Y306334D01*
Y305257D01*
X477688Y304216D01*
X478227Y303284D01*
X478988Y302522D01*
X479921Y301983D01*
X480962Y301705D01*
X482038D01*
X483079Y301983D01*
X484012Y302522D01*
X484773Y303284D01*
X485312Y304216D01*
X485591Y305257D01*
Y306334D01*
X485312Y307374D01*
X484773Y308307D01*
X484012Y309068D01*
X483079Y309607D01*
X482038Y309886D01*
D02*
G37*
G36*
X382038Y309591D02*
X380961D01*
X379921Y309312D01*
X378988Y308773D01*
X378227Y308012D01*
X377688Y307079D01*
X377410Y306038D01*
Y304961D01*
X377688Y303921D01*
X378227Y302988D01*
X378988Y302227D01*
X379921Y301688D01*
X380961Y301410D01*
X382038D01*
X383079Y301688D01*
X384012Y302227D01*
X384773Y302988D01*
X385312Y303921D01*
X385591Y304961D01*
Y306038D01*
X385312Y307079D01*
X384773Y308012D01*
X384012Y308773D01*
X383079Y309312D01*
X382038Y309591D01*
D02*
G37*
G36*
X466398Y307104D02*
X463331D01*
Y300000D01*
X466398D01*
Y307104D01*
D02*
G37*
G36*
X462331D02*
X459263D01*
Y300000D01*
X462331D01*
Y307104D01*
D02*
G37*
G36*
X466398Y299000D02*
X463331D01*
Y291896D01*
X466398D01*
Y299000D01*
D02*
G37*
G36*
X462331D02*
X459263D01*
Y291896D01*
X462331D01*
Y299000D01*
D02*
G37*
G36*
X482038Y299886D02*
X480962D01*
X479921Y299607D01*
X478988Y299068D01*
X478227Y298307D01*
X477688Y297374D01*
X477410Y296334D01*
Y295257D01*
X477688Y294216D01*
X478227Y293284D01*
X478988Y292522D01*
X479921Y291984D01*
X480962Y291705D01*
X482038D01*
X483079Y291984D01*
X484012Y292522D01*
X484773Y293284D01*
X485312Y294216D01*
X485591Y295257D01*
Y296334D01*
X485312Y297374D01*
X484773Y298307D01*
X484012Y299068D01*
X483079Y299607D01*
X482038Y299886D01*
D02*
G37*
G36*
X382038Y299590D02*
X380961D01*
X379921Y299312D01*
X378988Y298773D01*
X378227Y298012D01*
X377688Y297079D01*
X377410Y296039D01*
Y294962D01*
X377688Y293921D01*
X378227Y292988D01*
X378988Y292227D01*
X379921Y291688D01*
X380961Y291409D01*
X382038D01*
X383079Y291688D01*
X384012Y292227D01*
X384773Y292988D01*
X385312Y293921D01*
X385591Y294962D01*
Y296039D01*
X385312Y297079D01*
X384773Y298012D01*
X384012Y298773D01*
X383079Y299312D01*
X382038Y299590D01*
D02*
G37*
G36*
X482038Y289886D02*
X480962D01*
X479921Y289607D01*
X478988Y289069D01*
X478227Y288307D01*
X477688Y287374D01*
X477410Y286334D01*
Y285257D01*
X477688Y284216D01*
X478227Y283284D01*
X478988Y282522D01*
X479921Y281983D01*
X480962Y281705D01*
X482038D01*
X483079Y281983D01*
X484012Y282522D01*
X484773Y283284D01*
X485312Y284216D01*
X485591Y285257D01*
Y286334D01*
X485312Y287374D01*
X484773Y288307D01*
X484012Y289069D01*
X483079Y289607D01*
X482038Y289886D01*
D02*
G37*
G36*
X382038Y289591D02*
X380961D01*
X379921Y289312D01*
X378988Y288773D01*
X378227Y288012D01*
X377688Y287079D01*
X377410Y286038D01*
Y284962D01*
X377688Y283921D01*
X378227Y282988D01*
X378988Y282227D01*
X379921Y281688D01*
X380961Y281410D01*
X382038D01*
X383079Y281688D01*
X384012Y282227D01*
X384773Y282988D01*
X385312Y283921D01*
X385591Y284962D01*
Y286038D01*
X385312Y287079D01*
X384773Y288012D01*
X384012Y288773D01*
X383079Y289312D01*
X382038Y289591D01*
D02*
G37*
G36*
X468815Y283898D02*
X462000D01*
Y281125D01*
X468815D01*
Y283898D01*
D02*
G37*
G36*
X461000D02*
X454185D01*
Y281125D01*
X461000D01*
Y283898D01*
D02*
G37*
G36*
X468815Y280125D02*
X462000D01*
Y277351D01*
X468815D01*
Y280125D01*
D02*
G37*
G36*
X461000D02*
X454185D01*
Y277351D01*
X461000D01*
Y280125D01*
D02*
G37*
G36*
X444737Y307104D02*
X437602D01*
Y291896D01*
X440971D01*
Y283898D01*
X434896D01*
Y276763D01*
X450104D01*
Y283898D01*
X444029D01*
Y291896D01*
X444737D01*
Y307104D01*
D02*
G37*
G36*
X482038Y279886D02*
X480962D01*
X479921Y279607D01*
X478988Y279068D01*
X478227Y278307D01*
X477688Y277374D01*
X477410Y276334D01*
Y275257D01*
X477688Y274216D01*
X478227Y273284D01*
X478988Y272522D01*
X479921Y271984D01*
X480962Y271705D01*
X482038D01*
X483079Y271984D01*
X484012Y272522D01*
X484773Y273284D01*
X485312Y274216D01*
X485591Y275257D01*
Y276334D01*
X485312Y277374D01*
X484773Y278307D01*
X484012Y279068D01*
X483079Y279607D01*
X482038Y279886D01*
D02*
G37*
G36*
X382038Y279591D02*
X380961D01*
X379921Y279312D01*
X378988Y278773D01*
X378227Y278012D01*
X377688Y277079D01*
X377410Y276039D01*
Y274961D01*
X377688Y273921D01*
X378227Y272988D01*
X378988Y272227D01*
X379921Y271688D01*
X380961Y271410D01*
X382038D01*
X383079Y271688D01*
X384012Y272227D01*
X384773Y272988D01*
X385312Y273921D01*
X385591Y274961D01*
Y276039D01*
X385312Y277079D01*
X384773Y278012D01*
X384012Y278773D01*
X383079Y279312D01*
X382038Y279591D01*
D02*
G37*
G36*
X504104Y314237D02*
X488896D01*
Y307102D01*
X495471D01*
Y273849D01*
X495468Y273786D01*
X495432Y273549D01*
X495372Y273308D01*
X495286Y273062D01*
X495172Y272808D01*
X495027Y272547D01*
X494851Y272279D01*
X494642Y272003D01*
X494400Y271722D01*
X494104Y271416D01*
X494054Y271339D01*
X493727Y271012D01*
X493188Y270079D01*
X492909Y269039D01*
Y267962D01*
X493188Y266921D01*
X493727Y265988D01*
X494488Y265227D01*
X495421Y264688D01*
X496461Y264409D01*
X497539D01*
X498579Y264688D01*
X499512Y265227D01*
X500273Y265988D01*
X500812Y266921D01*
X501090Y267962D01*
Y269039D01*
X500812Y270079D01*
X500273Y271012D01*
X499946Y271339D01*
X499896Y271416D01*
X499600Y271722D01*
X499358Y272003D01*
X499149Y272278D01*
X498973Y272547D01*
X498828Y272808D01*
X498714Y273062D01*
X498628Y273308D01*
X498568Y273549D01*
X498532Y273786D01*
X498529Y273849D01*
Y307102D01*
X504104D01*
Y314237D01*
D02*
G37*
G36*
X394000Y264989D02*
Y262000D01*
X396989D01*
X396761Y262851D01*
X396301Y263649D01*
X395649Y264301D01*
X394851Y264761D01*
X394000Y264989D01*
D02*
G37*
G36*
X393000D02*
X392149Y264761D01*
X391351Y264301D01*
X390699Y263649D01*
X390238Y262851D01*
X390010Y262000D01*
X393000D01*
Y264989D01*
D02*
G37*
G36*
X382038Y269590D02*
X380961D01*
X379921Y269312D01*
X378988Y268773D01*
X378227Y268012D01*
X377688Y267079D01*
X377410Y266038D01*
Y264962D01*
X377688Y263921D01*
X378227Y262988D01*
X378988Y262227D01*
X379921Y261688D01*
X380961Y261409D01*
X382038D01*
X383079Y261688D01*
X384012Y262227D01*
X384773Y262988D01*
X385312Y263921D01*
X385591Y264962D01*
Y266038D01*
X385312Y267079D01*
X384773Y268012D01*
X384012Y268773D01*
X383079Y269312D01*
X382038Y269590D01*
D02*
G37*
G36*
X482038Y269886D02*
X480962D01*
X479921Y269607D01*
X478988Y269069D01*
X478227Y268307D01*
X477688Y267374D01*
X477410Y266334D01*
Y265257D01*
X477688Y264216D01*
X478227Y263284D01*
X478643Y262867D01*
X478436Y262367D01*
X478103D01*
X477518Y262251D01*
X477022Y261919D01*
X475008Y259905D01*
X468815D01*
Y261649D01*
X454185D01*
Y255102D01*
X459971D01*
Y248284D01*
X457767Y248284D01*
X457436Y248566D01*
X457361Y248662D01*
X457082Y249081D01*
X450104Y256059D01*
Y256068D01*
X450112Y256104D01*
X450104Y256144D01*
Y256154D01*
X450109Y256192D01*
X450104Y256209D01*
Y262237D01*
X434896D01*
Y255102D01*
X447099D01*
X447149Y254853D01*
X447480Y254357D01*
X454471Y247366D01*
Y245750D01*
Y239000D01*
X454587Y238415D01*
X454919Y237919D01*
X456086Y236751D01*
X455895Y236289D01*
X449416D01*
X449234Y236561D01*
X448808Y236846D01*
X448304Y236947D01*
X443688D01*
X443185Y236846D01*
X442758Y236561D01*
X442473Y236134D01*
X442372Y235631D01*
Y233889D01*
X442473Y233385D01*
X442758Y232959D01*
X443185Y232673D01*
X443688Y232573D01*
X448304D01*
X448808Y232673D01*
X449234Y232959D01*
X449416Y233230D01*
X457654D01*
Y231716D01*
X460971D01*
Y228898D01*
X454896D01*
Y221763D01*
X470104D01*
Y228898D01*
X464029D01*
Y231716D01*
X466347D01*
Y238047D01*
X459301D01*
X459154Y238077D01*
X459086D01*
X457529Y239633D01*
Y241504D01*
X457654Y241953D01*
X458029Y241953D01*
X466347D01*
Y248284D01*
X463029D01*
Y255102D01*
X468815D01*
Y256846D01*
X475641D01*
X476226Y256962D01*
X476723Y257294D01*
X477532Y258103D01*
X477932Y257796D01*
X477688Y257374D01*
X477410Y256334D01*
Y255257D01*
X477688Y254216D01*
X478227Y253284D01*
X478988Y252522D01*
X479921Y251983D01*
X480962Y251705D01*
X482038D01*
X483079Y251983D01*
X484012Y252522D01*
X484773Y253284D01*
X485312Y254216D01*
X485591Y255257D01*
Y256334D01*
X485312Y257374D01*
X484773Y258307D01*
X484272Y258808D01*
X484479Y259308D01*
X486086D01*
X487976Y257419D01*
X488472Y257087D01*
X489057Y256971D01*
X492909D01*
Y254410D01*
X501090D01*
Y262591D01*
X492909D01*
Y260029D01*
X489691D01*
X487801Y261919D01*
X487305Y262251D01*
X486720Y262367D01*
X484564D01*
X484357Y262867D01*
X484773Y263284D01*
X485312Y264216D01*
X485591Y265257D01*
Y266334D01*
X485312Y267374D01*
X484773Y268307D01*
X484012Y269069D01*
X483079Y269607D01*
X482038Y269886D01*
D02*
G37*
G36*
X396989Y261000D02*
X394000D01*
Y258011D01*
X394851Y258239D01*
X395649Y258699D01*
X396301Y259351D01*
X396761Y260149D01*
X396989Y261000D01*
D02*
G37*
G36*
X393000D02*
X390010D01*
X390238Y260149D01*
X390699Y259351D01*
X391351Y258699D01*
X392149Y258239D01*
X393000Y258011D01*
Y261000D01*
D02*
G37*
G36*
X429043Y253965D02*
X425000D01*
Y251004D01*
X429043D01*
Y253965D01*
D02*
G37*
G36*
X413043D02*
X409000D01*
Y251004D01*
X413043D01*
Y253965D01*
D02*
G37*
G36*
X424000D02*
X419957D01*
Y251004D01*
X424000D01*
Y253965D01*
D02*
G37*
G36*
X408000D02*
X403957D01*
Y251004D01*
X408000D01*
Y253965D01*
D02*
G37*
G36*
X429043Y250004D02*
X425000D01*
Y247043D01*
X429043D01*
Y250004D01*
D02*
G37*
G36*
X424000D02*
X419957D01*
Y247043D01*
X424000D01*
Y250004D01*
D02*
G37*
G36*
X413043D02*
X409000D01*
Y247043D01*
X413043D01*
Y250004D01*
D02*
G37*
G36*
X408000D02*
X403957D01*
Y247043D01*
X408000D01*
Y250004D01*
D02*
G37*
G36*
X482038Y249886D02*
X480962D01*
X479921Y249607D01*
X478988Y249068D01*
X478227Y248307D01*
X477688Y247374D01*
X477410Y246334D01*
Y245257D01*
X477688Y244216D01*
X478227Y243284D01*
X478988Y242522D01*
X479921Y241984D01*
X480962Y241705D01*
X482038D01*
X483079Y241984D01*
X484012Y242522D01*
X484773Y243284D01*
X485312Y244216D01*
X485591Y245257D01*
Y246334D01*
X485312Y247374D01*
X484773Y248307D01*
X484012Y249068D01*
X483079Y249607D01*
X482038Y249886D01*
D02*
G37*
G36*
X447961Y252000D02*
X447039D01*
X446149Y251762D01*
X445351Y251301D01*
X444699Y250649D01*
X444239Y249851D01*
X444000Y248961D01*
Y248039D01*
X444239Y247149D01*
X444699Y246351D01*
X444966Y246084D01*
X445015Y246008D01*
X445230Y245784D01*
X445399Y245585D01*
X445543Y245388D01*
X445664Y245194D01*
X445763Y245003D01*
X445795Y244927D01*
X445667Y244634D01*
X445488Y244449D01*
X445435Y244427D01*
X443688D01*
X443185Y244327D01*
X442758Y244041D01*
X442473Y243615D01*
X442372Y243111D01*
Y241369D01*
X442473Y240866D01*
X442758Y240439D01*
X443185Y240154D01*
X443688Y240054D01*
X448304D01*
X448808Y240154D01*
X449234Y240439D01*
X449520Y240866D01*
X449620Y241369D01*
Y243111D01*
X449520Y243615D01*
X449234Y244041D01*
X449029Y244179D01*
Y244248D01*
X449055Y244438D01*
X449097Y244626D01*
X449157Y244814D01*
X449236Y245003D01*
X449336Y245194D01*
X449457Y245388D01*
X449602Y245585D01*
X449770Y245784D01*
X449985Y246008D01*
X450034Y246084D01*
X450301Y246351D01*
X450762Y247149D01*
X451000Y248039D01*
Y248961D01*
X450762Y249851D01*
X450301Y250649D01*
X449649Y251301D01*
X448851Y251762D01*
X447961Y252000D01*
D02*
G37*
G36*
X429043Y241957D02*
X419957D01*
Y240025D01*
X413043D01*
Y241957D01*
X403957D01*
Y235035D01*
X413043D01*
Y236967D01*
X419957D01*
Y235035D01*
X424971D01*
Y231704D01*
X423500Y230234D01*
X423339Y230084D01*
X423218Y229988D01*
X423213Y229984D01*
X423025D01*
X422987Y229992D01*
X422949Y229984D01*
X418965D01*
Y221016D01*
X425413D01*
Y227520D01*
X425421Y227558D01*
X425413Y227596D01*
Y227783D01*
X425624Y228032D01*
X427581Y229989D01*
X427913Y230486D01*
X428029Y231071D01*
Y235035D01*
X429043D01*
Y236971D01*
X434584D01*
X434766Y236699D01*
X435192Y236414D01*
X435696Y236313D01*
X440312D01*
X440815Y236414D01*
X441242Y236699D01*
X441528Y237125D01*
X441628Y237629D01*
Y239371D01*
X441528Y239875D01*
X441242Y240301D01*
X440815Y240586D01*
X440312Y240687D01*
X435696D01*
X435192Y240586D01*
X434766Y240301D01*
X434584Y240029D01*
X429043D01*
Y241957D01*
D02*
G37*
G36*
X482038Y239886D02*
X480962D01*
X479921Y239607D01*
X478988Y239069D01*
X478227Y238307D01*
X477688Y237374D01*
X477410Y236334D01*
Y235257D01*
X477688Y234216D01*
X478227Y233284D01*
X478988Y232522D01*
X479921Y231983D01*
X480962Y231705D01*
X482038D01*
X483079Y231983D01*
X484012Y232522D01*
X484773Y233284D01*
X485312Y234216D01*
X485591Y235257D01*
Y236334D01*
X485312Y237374D01*
X484773Y238307D01*
X484012Y239069D01*
X483079Y239607D01*
X482038Y239886D01*
D02*
G37*
G36*
X382038Y239591D02*
X380961D01*
X379921Y239312D01*
X378988Y238773D01*
X378227Y238012D01*
X377688Y237079D01*
X377410Y236038D01*
Y234962D01*
X377688Y233921D01*
X378227Y232988D01*
X378988Y232227D01*
X379921Y231688D01*
X380961Y231410D01*
X382038D01*
X383079Y231688D01*
X384012Y232227D01*
X384773Y232988D01*
X385312Y233921D01*
X385591Y234962D01*
Y236038D01*
X385312Y237079D01*
X384773Y238012D01*
X384012Y238773D01*
X383079Y239312D01*
X382038Y239591D01*
D02*
G37*
G36*
X482038Y229886D02*
X480962D01*
X479921Y229607D01*
X478988Y229068D01*
X478227Y228307D01*
X477688Y227374D01*
X477410Y226334D01*
Y225257D01*
X477688Y224216D01*
X478227Y223284D01*
X478988Y222522D01*
X479921Y221984D01*
X480962Y221705D01*
X482038D01*
X483079Y221984D01*
X484012Y222522D01*
X484773Y223284D01*
X485312Y224216D01*
X485591Y225257D01*
Y226334D01*
X485312Y227374D01*
X484773Y228307D01*
X484012Y229068D01*
X483079Y229607D01*
X482038Y229886D01*
D02*
G37*
G36*
X382038Y229591D02*
X380961D01*
X379921Y229312D01*
X378988Y228773D01*
X378227Y228012D01*
X377688Y227079D01*
X377410Y226039D01*
Y224961D01*
X377688Y223921D01*
X378227Y222988D01*
X378988Y222227D01*
X379921Y221688D01*
X380961Y221410D01*
X382038D01*
X383079Y221688D01*
X384012Y222227D01*
X384773Y222988D01*
X385312Y223921D01*
X385591Y224961D01*
Y226039D01*
X385312Y227079D01*
X384773Y228012D01*
X384012Y228773D01*
X383079Y229312D01*
X382038Y229591D01*
D02*
G37*
G36*
X354471Y322701D02*
X353529D01*
X352620Y322457D01*
X351805Y321987D01*
X351139Y321321D01*
X350669Y320506D01*
X350425Y319597D01*
Y318655D01*
X350669Y317746D01*
X351139Y316931D01*
X351805Y316265D01*
X352620Y315795D01*
X353529Y315551D01*
X354471D01*
X355380Y315795D01*
X356195Y316265D01*
X356470Y316540D01*
X356546Y316589D01*
X356780Y316814D01*
X356990Y316992D01*
X357197Y317145D01*
X357400Y317273D01*
X357600Y317378D01*
X357798Y317462D01*
X357993Y317525D01*
X358188Y317570D01*
X358385Y317596D01*
X358388Y317597D01*
X361740D01*
X371971Y307366D01*
Y254500D01*
X372087Y253915D01*
X372419Y253419D01*
X376419Y249419D01*
X376915Y249087D01*
X377500Y248971D01*
X378479D01*
X378686Y248471D01*
X378227Y248012D01*
X377688Y247079D01*
X377410Y246039D01*
Y244962D01*
X377688Y243921D01*
X378227Y242988D01*
X378988Y242227D01*
X379921Y241688D01*
X380961Y241409D01*
X382038D01*
X383079Y241688D01*
X384012Y242227D01*
X384773Y242988D01*
X385312Y243921D01*
X385591Y244962D01*
Y246039D01*
X385312Y247079D01*
X384985Y247645D01*
X385385Y247952D01*
X386471Y246866D01*
Y241000D01*
X386587Y240415D01*
X386919Y239919D01*
X402419Y224419D01*
X402915Y224087D01*
X403500Y223971D01*
X407587D01*
Y221016D01*
X414035D01*
Y229984D01*
X407587D01*
Y227029D01*
X404134D01*
X389529Y241634D01*
Y247500D01*
X389413Y248085D01*
X389081Y248581D01*
X386081Y251581D01*
X385585Y251913D01*
X385000Y252029D01*
X384521D01*
X384314Y252529D01*
X384773Y252988D01*
X385312Y253921D01*
X385591Y254961D01*
Y256038D01*
X385312Y257079D01*
X384773Y258012D01*
X384012Y258773D01*
X383079Y259312D01*
X382038Y259591D01*
X380961D01*
X379921Y259312D01*
X378988Y258773D01*
X378227Y258012D01*
X377688Y257079D01*
X377410Y256038D01*
Y254961D01*
X377688Y253921D01*
X378227Y252988D01*
X378507Y252708D01*
X378322Y252186D01*
X378017Y252146D01*
X375029Y255134D01*
Y308000D01*
X374913Y308585D01*
X374581Y309081D01*
X363456Y320207D01*
X362959Y320539D01*
X362374Y320655D01*
X358388D01*
X358385Y320655D01*
X358188Y320682D01*
X357993Y320727D01*
X357798Y320790D01*
X357600Y320874D01*
X357401Y320979D01*
X357197Y321107D01*
X356990Y321260D01*
X356780Y321438D01*
X356546Y321663D01*
X356470Y321712D01*
X356195Y321987D01*
X355380Y322457D01*
X354471Y322701D01*
D02*
G37*
G36*
X482038Y219886D02*
X480962D01*
X479921Y219607D01*
X478988Y219069D01*
X478227Y218307D01*
X477688Y217374D01*
X477410Y216334D01*
Y215257D01*
X477688Y214216D01*
X478227Y213284D01*
X478988Y212522D01*
X479921Y211983D01*
X480962Y211705D01*
X482038D01*
X483079Y211983D01*
X484012Y212522D01*
X484773Y213284D01*
X485312Y214216D01*
X485591Y215257D01*
Y216334D01*
X485312Y217374D01*
X484773Y218307D01*
X484012Y219069D01*
X483079Y219607D01*
X482038Y219886D01*
D02*
G37*
G36*
X382038Y219590D02*
X380961D01*
X379921Y219312D01*
X378988Y218773D01*
X378227Y218012D01*
X377688Y217079D01*
X377410Y216038D01*
Y214962D01*
X377688Y213921D01*
X378227Y212988D01*
X378988Y212227D01*
X379921Y211688D01*
X380961Y211409D01*
X382038D01*
X383079Y211688D01*
X384012Y212227D01*
X384773Y212988D01*
X385312Y213921D01*
X385591Y214962D01*
Y216038D01*
X385312Y217079D01*
X384773Y218012D01*
X384012Y218773D01*
X383079Y219312D01*
X382038Y219590D01*
D02*
G37*
G36*
X446461Y227500D02*
X445539D01*
X444649Y227261D01*
X443851Y226801D01*
X443199Y226149D01*
X442738Y225351D01*
X442500Y224461D01*
Y223539D01*
X442738Y222649D01*
X443199Y221851D01*
X443466Y221584D01*
X443515Y221508D01*
X443730Y221285D01*
X443898Y221085D01*
X444043Y220888D01*
X444164Y220694D01*
X444264Y220503D01*
X444343Y220314D01*
X444403Y220126D01*
X444445Y219938D01*
X444471Y219748D01*
Y216248D01*
X434594D01*
Y212840D01*
X427193D01*
X426608Y212724D01*
X426112Y212392D01*
X423419Y209700D01*
X423087Y209203D01*
X422971Y208618D01*
Y207661D01*
X419957D01*
Y200543D01*
X429043D01*
Y207661D01*
X426413D01*
X426206Y208161D01*
X427826Y209782D01*
X434594D01*
Y206374D01*
X448406D01*
Y216248D01*
X447529D01*
Y219748D01*
X447555Y219938D01*
X447597Y220126D01*
X447657Y220314D01*
X447737Y220503D01*
X447836Y220694D01*
X447957Y220888D01*
X448102Y221085D01*
X448270Y221285D01*
X448485Y221508D01*
X448534Y221584D01*
X448801Y221851D01*
X449262Y222649D01*
X449500Y223539D01*
Y224461D01*
X449262Y225351D01*
X448801Y226149D01*
X448149Y226801D01*
X447351Y227261D01*
X446461Y227500D01*
D02*
G37*
G36*
X482038Y209886D02*
X480962D01*
X479921Y209607D01*
X478988Y209068D01*
X478227Y208307D01*
X477688Y207374D01*
X477410Y206334D01*
Y205257D01*
X477688Y204216D01*
X478227Y203284D01*
X478988Y202522D01*
X479921Y201983D01*
X480962Y201705D01*
X482038D01*
X483079Y201983D01*
X484012Y202522D01*
X484773Y203284D01*
X485312Y204216D01*
X485591Y205257D01*
Y206334D01*
X485312Y207374D01*
X484773Y208307D01*
X484012Y209068D01*
X483079Y209607D01*
X482038Y209886D01*
D02*
G37*
G36*
X382038Y209591D02*
X380961D01*
X379921Y209312D01*
X378988Y208773D01*
X378227Y208012D01*
X377688Y207079D01*
X377410Y206038D01*
Y204961D01*
X377688Y203921D01*
X378227Y202988D01*
X378988Y202227D01*
X379921Y201688D01*
X380961Y201409D01*
X382038D01*
X383079Y201688D01*
X384012Y202227D01*
X384773Y202988D01*
X385312Y203921D01*
X385591Y204961D01*
Y206038D01*
X385312Y207079D01*
X384773Y208012D01*
X384012Y208773D01*
X383079Y209312D01*
X382038Y209591D01*
D02*
G37*
G36*
X482038Y199886D02*
X480962D01*
X479921Y199607D01*
X478988Y199068D01*
X478227Y198307D01*
X477688Y197374D01*
X477410Y196334D01*
Y195257D01*
X477688Y194216D01*
X478227Y193284D01*
X478988Y192522D01*
X479921Y191983D01*
X480962Y191705D01*
X482038D01*
X483079Y191983D01*
X484012Y192522D01*
X484773Y193284D01*
X485312Y194216D01*
X485591Y195257D01*
Y196334D01*
X485312Y197374D01*
X484773Y198307D01*
X484012Y199068D01*
X483079Y199607D01*
X482038Y199886D01*
D02*
G37*
G36*
X382038Y199591D02*
X380961D01*
X379921Y199312D01*
X378988Y198773D01*
X378227Y198012D01*
X377688Y197079D01*
X377410Y196038D01*
Y194962D01*
X377688Y193921D01*
X378227Y192988D01*
X378988Y192227D01*
X379921Y191688D01*
X380961Y191409D01*
X382038D01*
X383079Y191688D01*
X384012Y192227D01*
X384773Y192988D01*
X385312Y193921D01*
X385591Y194962D01*
Y196038D01*
X385312Y197079D01*
X384773Y198012D01*
X384012Y198773D01*
X383079Y199312D01*
X382038Y199591D01*
D02*
G37*
G36*
X470104Y207237D02*
X454896D01*
Y200102D01*
X460971D01*
Y189210D01*
X460969Y189209D01*
X460826Y189130D01*
X460686Y189070D01*
X460547Y189025D01*
X460407Y188996D01*
X460264Y188980D01*
X460114Y188978D01*
X460011Y188986D01*
X459961Y189000D01*
X459039D01*
X458149Y188761D01*
X457790Y188554D01*
X457719Y188533D01*
X457656Y188501D01*
X457646Y188504D01*
X457594Y188530D01*
X457517Y188579D01*
X457442Y188638D01*
X457310Y188770D01*
X456814Y189102D01*
X456229Y189218D01*
X448406D01*
Y192626D01*
X434594D01*
Y183529D01*
X429134D01*
X426029Y186634D01*
Y188339D01*
X429043D01*
Y195457D01*
X419957D01*
Y188339D01*
X422971D01*
Y186000D01*
X423087Y185415D01*
X423419Y184919D01*
X427419Y180919D01*
X427915Y180587D01*
X428500Y180471D01*
X456000D01*
X456585Y180587D01*
X457081Y180919D01*
X457575Y181412D01*
X457727Y181528D01*
X457890Y181631D01*
X458066Y181722D01*
X458255Y181799D01*
X458461Y181864D01*
X458683Y181915D01*
X458925Y181953D01*
X459185Y181974D01*
X459495Y181981D01*
X459583Y182000D01*
X459961D01*
X460851Y182238D01*
X461649Y182699D01*
X462301Y183351D01*
X462761Y184149D01*
X463000Y185039D01*
Y185961D01*
X462986Y186011D01*
X462978Y186114D01*
X462980Y186264D01*
X462995Y186407D01*
X463025Y186547D01*
X463070Y186686D01*
X463130Y186826D01*
X463209Y186969D01*
X463308Y187117D01*
X463421Y187258D01*
X463581Y187419D01*
X463913Y187915D01*
X464029Y188500D01*
Y200102D01*
X470104D01*
Y207237D01*
D02*
G37*
G36*
X482038Y189886D02*
X480962D01*
X479921Y189607D01*
X478988Y189068D01*
X478227Y188307D01*
X477688Y187374D01*
X477410Y186334D01*
Y185257D01*
X477688Y184216D01*
X478227Y183284D01*
X478988Y182522D01*
X479921Y181983D01*
X480962Y181705D01*
X482038D01*
X483079Y181983D01*
X484012Y182522D01*
X484773Y183284D01*
X485312Y184216D01*
X485591Y185257D01*
Y186334D01*
X485312Y187374D01*
X484773Y188307D01*
X484012Y189068D01*
X483079Y189607D01*
X482038Y189886D01*
D02*
G37*
G36*
X382038Y189591D02*
X380961D01*
X379921Y189312D01*
X378988Y188773D01*
X378227Y188012D01*
X377688Y187079D01*
X377410Y186038D01*
Y184961D01*
X377688Y183921D01*
X378227Y182988D01*
X378988Y182227D01*
X379921Y181688D01*
X380961Y181409D01*
X382038D01*
X383079Y181688D01*
X384012Y182227D01*
X384773Y182988D01*
X385312Y183921D01*
X385591Y184961D01*
Y186038D01*
X385312Y187079D01*
X384773Y188012D01*
X384012Y188773D01*
X383079Y189312D01*
X382038Y189591D01*
D02*
G37*
G36*
X482038Y179886D02*
X480962D01*
X479921Y179607D01*
X478988Y179069D01*
X478227Y178307D01*
X477688Y177374D01*
X477410Y176334D01*
Y175257D01*
X477688Y174216D01*
X478227Y173284D01*
X478988Y172522D01*
X479921Y171984D01*
X480962Y171705D01*
X482038D01*
X483079Y171984D01*
X484012Y172522D01*
X484773Y173284D01*
X485312Y174216D01*
X485591Y175257D01*
Y176334D01*
X485312Y177374D01*
X484773Y178307D01*
X484012Y179069D01*
X483079Y179607D01*
X482038Y179886D01*
D02*
G37*
G36*
X382038Y179591D02*
X380961D01*
X379921Y179312D01*
X378988Y178773D01*
X378227Y178012D01*
X377688Y177079D01*
X377410Y176039D01*
Y174961D01*
X377688Y173921D01*
X378227Y172988D01*
X378988Y172227D01*
X379921Y171688D01*
X380961Y171409D01*
X382038D01*
X383079Y171688D01*
X384012Y172227D01*
X384773Y172988D01*
X385312Y173921D01*
X385591Y174961D01*
Y176039D01*
X385312Y177079D01*
X384773Y178012D01*
X384012Y178773D01*
X383079Y179312D01*
X382038Y179591D01*
D02*
G37*
G36*
X469038Y160091D02*
X469000D01*
Y156500D01*
X472590D01*
Y156538D01*
X472312Y157579D01*
X471773Y158512D01*
X471012Y159273D01*
X470079Y159812D01*
X469038Y160091D01*
D02*
G37*
G36*
X468000D02*
X467962D01*
X466921Y159812D01*
X465988Y159273D01*
X465227Y158512D01*
X464688Y157579D01*
X464409Y156538D01*
Y156500D01*
X468000D01*
Y160091D01*
D02*
G37*
G36*
X402591D02*
X399000D01*
Y156500D01*
X402591D01*
Y160091D01*
D02*
G37*
G36*
X398000D02*
X394409D01*
Y156500D01*
X398000D01*
Y160091D01*
D02*
G37*
G36*
X472590Y155500D02*
X469000D01*
Y151909D01*
X469038D01*
X470079Y152188D01*
X471012Y152727D01*
X471773Y153488D01*
X472312Y154421D01*
X472590Y155462D01*
Y155500D01*
D02*
G37*
G36*
X468000D02*
X464409D01*
Y155462D01*
X464688Y154421D01*
X465227Y153488D01*
X465988Y152727D01*
X466921Y152188D01*
X467962Y151909D01*
X468000D01*
Y155500D01*
D02*
G37*
G36*
X459038Y160091D02*
X457962D01*
X456921Y159812D01*
X455988Y159273D01*
X455227Y158512D01*
X454688Y157579D01*
X454410Y156538D01*
Y155462D01*
X454688Y154421D01*
X455227Y153488D01*
X455988Y152727D01*
X456921Y152188D01*
X457962Y151909D01*
X459038D01*
X460079Y152188D01*
X461012Y152727D01*
X461773Y153488D01*
X462312Y154421D01*
X462591Y155462D01*
Y156538D01*
X462312Y157579D01*
X461773Y158512D01*
X461012Y159273D01*
X460079Y159812D01*
X459038Y160091D01*
D02*
G37*
G36*
X449039D02*
X447962D01*
X446921Y159812D01*
X445988Y159273D01*
X445227Y158512D01*
X444688Y157579D01*
X444410Y156538D01*
Y155462D01*
X444688Y154421D01*
X445227Y153488D01*
X445988Y152727D01*
X446921Y152188D01*
X447962Y151909D01*
X449039D01*
X450079Y152188D01*
X451012Y152727D01*
X451773Y153488D01*
X452312Y154421D01*
X452591Y155462D01*
Y156538D01*
X452312Y157579D01*
X451773Y158512D01*
X451012Y159273D01*
X450079Y159812D01*
X449039Y160091D01*
D02*
G37*
G36*
X439039D02*
X437961D01*
X436921Y159812D01*
X435988Y159273D01*
X435227Y158512D01*
X434688Y157579D01*
X434410Y156538D01*
Y155462D01*
X434688Y154421D01*
X435227Y153488D01*
X435988Y152727D01*
X436921Y152188D01*
X437961Y151909D01*
X439039D01*
X440079Y152188D01*
X441012Y152727D01*
X441773Y153488D01*
X442312Y154421D01*
X442591Y155462D01*
Y156538D01*
X442312Y157579D01*
X441773Y158512D01*
X441012Y159273D01*
X440079Y159812D01*
X439039Y160091D01*
D02*
G37*
G36*
X429038D02*
X427961D01*
X426921Y159812D01*
X425988Y159273D01*
X425227Y158512D01*
X424688Y157579D01*
X424409Y156538D01*
Y155462D01*
X424688Y154421D01*
X425227Y153488D01*
X425988Y152727D01*
X426921Y152188D01*
X427961Y151909D01*
X429038D01*
X430079Y152188D01*
X431012Y152727D01*
X431773Y153488D01*
X432312Y154421D01*
X432590Y155462D01*
Y156538D01*
X432312Y157579D01*
X431773Y158512D01*
X431012Y159273D01*
X430079Y159812D01*
X429038Y160091D01*
D02*
G37*
G36*
X419038D02*
X417962D01*
X416921Y159812D01*
X415988Y159273D01*
X415227Y158512D01*
X414688Y157579D01*
X414409Y156538D01*
Y155462D01*
X414688Y154421D01*
X415227Y153488D01*
X415988Y152727D01*
X416921Y152188D01*
X417962Y151909D01*
X419038D01*
X420079Y152188D01*
X421012Y152727D01*
X421773Y153488D01*
X422312Y154421D01*
X422590Y155462D01*
Y156538D01*
X422312Y157579D01*
X421773Y158512D01*
X421012Y159273D01*
X420079Y159812D01*
X419038Y160091D01*
D02*
G37*
G36*
X409038D02*
X407962D01*
X406921Y159812D01*
X405988Y159273D01*
X405227Y158512D01*
X404688Y157579D01*
X404410Y156538D01*
Y155462D01*
X404688Y154421D01*
X405227Y153488D01*
X405988Y152727D01*
X406921Y152188D01*
X407962Y151909D01*
X409038D01*
X410079Y152188D01*
X411012Y152727D01*
X411773Y153488D01*
X412312Y154421D01*
X412591Y155462D01*
Y156538D01*
X412312Y157579D01*
X411773Y158512D01*
X411012Y159273D01*
X410079Y159812D01*
X409038Y160091D01*
D02*
G37*
G36*
X402591Y155500D02*
X399000D01*
Y151909D01*
X402591D01*
Y155500D01*
D02*
G37*
G36*
X398000D02*
X394409D01*
Y151909D01*
X398000D01*
Y155500D01*
D02*
G37*
G36*
X504189Y130500D02*
X502811D01*
X501458Y130231D01*
X500184Y129703D01*
X499038Y128937D01*
X498063Y127962D01*
X497297Y126816D01*
X496769Y125542D01*
X496500Y124189D01*
Y122811D01*
X496769Y121458D01*
X497297Y120184D01*
X498063Y119038D01*
X499038Y118063D01*
X500184Y117297D01*
X501458Y116769D01*
X502811Y116500D01*
X504189D01*
X505542Y116769D01*
X506816Y117297D01*
X507962Y118063D01*
X508937Y119038D01*
X509703Y120184D01*
X510231Y121458D01*
X510500Y122811D01*
Y124189D01*
X510231Y125542D01*
X509703Y126816D01*
X508937Y127962D01*
X507962Y128937D01*
X506816Y129703D01*
X505542Y130231D01*
X504189Y130500D01*
D02*
G37*
G36*
X382189D02*
X380811D01*
X379458Y130231D01*
X378184Y129703D01*
X377038Y128937D01*
X376063Y127962D01*
X375297Y126816D01*
X374769Y125542D01*
X374500Y124189D01*
Y122811D01*
X374769Y121458D01*
X375297Y120184D01*
X376063Y119038D01*
X377038Y118063D01*
X378184Y117297D01*
X379458Y116769D01*
X380811Y116500D01*
X382189D01*
X383542Y116769D01*
X384816Y117297D01*
X385962Y118063D01*
X386937Y119038D01*
X387703Y120184D01*
X388231Y121458D01*
X388500Y122811D01*
Y124189D01*
X388231Y125542D01*
X387703Y126816D01*
X386937Y127962D01*
X385962Y128937D01*
X384816Y129703D01*
X383542Y130231D01*
X382189Y130500D01*
D02*
G37*
%LPD*%
G36*
X465890Y422026D02*
X465881Y422107D01*
X465853Y422179D01*
X465806Y422243D01*
X465740Y422298D01*
X465656Y422345D01*
X465552Y422384D01*
X465430Y422414D01*
X465290Y422435D01*
X465130Y422448D01*
X464952Y422452D01*
Y423452D01*
X465130Y423456D01*
X465290Y423469D01*
X465430Y423490D01*
X465552Y423520D01*
X465656Y423559D01*
X465740Y423605D01*
X465806Y423661D01*
X465853Y423725D01*
X465881Y423797D01*
X465890Y423878D01*
Y422026D01*
D02*
G37*
G36*
X417905Y410112D02*
X417820Y410081D01*
X417745Y410031D01*
X417680Y409960D01*
X417625Y409869D01*
X417580Y409758D01*
X417545Y409626D01*
X417520Y409474D01*
X417505Y409302D01*
X417500Y409110D01*
X416500D01*
X416495Y409302D01*
X416480Y409474D01*
X416455Y409626D01*
X416420Y409758D01*
X416375Y409869D01*
X416320Y409960D01*
X416255Y410031D01*
X416180Y410081D01*
X416095Y410112D01*
X416000Y410122D01*
X418000D01*
X417905Y410112D01*
D02*
G37*
G36*
X437643Y360166D02*
X437565Y360222D01*
X437473Y360250D01*
X437367D01*
X437247Y360222D01*
X437112Y360166D01*
X436964Y360081D01*
X436801Y359968D01*
X436624Y359826D01*
X436229Y359458D01*
X435521Y360166D01*
X435719Y360371D01*
X436031Y360738D01*
X436144Y360901D01*
X436229Y361049D01*
X436285Y361184D01*
X436313Y361304D01*
Y361410D01*
X436285Y361502D01*
X436229Y361580D01*
X437643Y360166D01*
D02*
G37*
G36*
X431903Y353194D02*
X431918Y353022D01*
X431943Y352870D01*
X431978Y352738D01*
X432023Y352627D01*
X432078Y352536D01*
X432143Y352465D01*
X432218Y352414D01*
X432303Y352384D01*
X432398Y352374D01*
X430398D01*
X430493Y352384D01*
X430578Y352414D01*
X430653Y352465D01*
X430718Y352536D01*
X430773Y352627D01*
X430818Y352738D01*
X430853Y352870D01*
X430878Y353022D01*
X430893Y353194D01*
X430898Y353386D01*
X431898D01*
X431903Y353194D01*
D02*
G37*
G36*
X424805Y348831D02*
X424795Y348926D01*
X424765Y349011D01*
X424715Y349086D01*
X424645Y349151D01*
X424555Y349206D01*
X424445Y349251D01*
X424315Y349286D01*
X424165Y349311D01*
X423995Y349326D01*
X423805Y349331D01*
Y350331D01*
X423995Y350336D01*
X424165Y350351D01*
X424315Y350376D01*
X424445Y350411D01*
X424555Y350456D01*
X424645Y350511D01*
X424715Y350576D01*
X424765Y350651D01*
X424795Y350736D01*
X424805Y350831D01*
Y348831D01*
D02*
G37*
G36*
X413102Y350736D02*
X413132Y350651D01*
X413182Y350576D01*
X413252Y350511D01*
X413342Y350456D01*
X413452Y350411D01*
X413582Y350376D01*
X413732Y350351D01*
X413902Y350336D01*
X414092Y350331D01*
Y349331D01*
X413902Y349326D01*
X413732Y349311D01*
X413582Y349286D01*
X413452Y349251D01*
X413342Y349206D01*
X413252Y349151D01*
X413182Y349086D01*
X413132Y349011D01*
X413102Y348926D01*
X413092Y348831D01*
Y350831D01*
X413102Y350736D01*
D02*
G37*
G36*
X399920Y348831D02*
X399910Y348926D01*
X399879Y349011D01*
X399829Y349086D01*
X399758Y349151D01*
X399667Y349206D01*
X399555Y349251D01*
X399424Y349286D01*
X399272Y349311D01*
X399100Y349326D01*
X398908Y349331D01*
Y350331D01*
X399100Y350336D01*
X399272Y350351D01*
X399424Y350376D01*
X399555Y350411D01*
X399667Y350456D01*
X399758Y350511D01*
X399829Y350576D01*
X399879Y350651D01*
X399910Y350736D01*
X399920Y350831D01*
Y348831D01*
D02*
G37*
G36*
X357596Y337763D02*
X357399Y337547D01*
X357223Y337316D01*
X357067Y337069D01*
X356934Y336806D01*
X356821Y336527D01*
X356729Y336233D01*
X356659Y335923D01*
X356610Y335598D01*
X356582Y335257D01*
X356575Y334900D01*
X354026Y337449D01*
X354383Y337456D01*
X354724Y337484D01*
X355049Y337533D01*
X355359Y337603D01*
X355653Y337695D01*
X355932Y337808D01*
X356195Y337942D01*
X356442Y338097D01*
X356673Y338273D01*
X356889Y338470D01*
X357596Y337763D01*
D02*
G37*
G36*
X437367Y387966D02*
X437272Y387967D01*
X437188Y387944D01*
X437113Y387895D01*
X437049Y387823D01*
X436994Y387725D01*
X436949Y387603D01*
X436915Y387456D01*
X436890Y387285D01*
X436875Y387089D01*
X436870Y386868D01*
X435870Y386994D01*
X435865Y387218D01*
X435826Y387598D01*
X435791Y387755D01*
X435746Y387890D01*
X435692Y388003D01*
X435628Y388093D01*
X435554Y388162D01*
X435470Y388208D01*
X435376Y388233D01*
X437367Y387966D01*
D02*
G37*
G36*
X449505Y367642D02*
X449520Y367470D01*
X449545Y367318D01*
X449580Y367187D01*
X449625Y367075D01*
X449680Y366984D01*
X449745Y366914D01*
X449820Y366863D01*
X449905Y366833D01*
X450000Y366822D01*
X448000D01*
X448095Y366833D01*
X448180Y366863D01*
X448255Y366914D01*
X448320Y366984D01*
X448375Y367075D01*
X448420Y367187D01*
X448455Y367318D01*
X448480Y367470D01*
X448495Y367642D01*
X448500Y367834D01*
X449500D01*
X449505Y367642D01*
D02*
G37*
G36*
X450704Y361503D02*
X450677Y361412D01*
X450678Y361307D01*
X450708Y361187D01*
X450766Y361052D01*
X450851Y360904D01*
X450966Y360741D01*
X451109Y360563D01*
X451479Y360166D01*
X450772Y359458D01*
X450565Y359658D01*
X450196Y359971D01*
X450033Y360086D01*
X449885Y360172D01*
X449750Y360229D01*
X449630Y360259D01*
X449525Y360260D01*
X449434Y360233D01*
X449357Y360178D01*
X450760Y361580D01*
X450704Y361503D01*
D02*
G37*
G36*
X456505Y353194D02*
X456520Y353022D01*
X456545Y352870D01*
X456580Y352738D01*
X456625Y352627D01*
X456680Y352536D01*
X456745Y352465D01*
X456820Y352414D01*
X456905Y352384D01*
X457000Y352374D01*
X455000D01*
X455095Y352384D01*
X455180Y352414D01*
X455255Y352465D01*
X455320Y352536D01*
X455375Y352627D01*
X455420Y352738D01*
X455455Y352870D01*
X455480Y353022D01*
X455495Y353194D01*
X455500Y353386D01*
X456500D01*
X456505Y353194D01*
D02*
G37*
G36*
X484113Y347527D02*
X484423Y347238D01*
X484736Y346982D01*
X485054Y346761D01*
X485375Y346573D01*
X485701Y346420D01*
X486030Y346301D01*
X486364Y346216D01*
X486701Y346165D01*
X487043Y346148D01*
X486994Y345148D01*
X486664Y345131D01*
X486332Y345083D01*
X485997Y345002D01*
X485661Y344889D01*
X485323Y344743D01*
X484982Y344565D01*
X484640Y344355D01*
X484296Y344112D01*
X483949Y343836D01*
X483601Y343529D01*
X483808Y347851D01*
X484113Y347527D01*
D02*
G37*
G36*
X493692Y343444D02*
X493387Y343768D01*
X493077Y344058D01*
X492764Y344313D01*
X492446Y344534D01*
X492125Y344722D01*
X491799Y344875D01*
X491470Y344994D01*
X491136Y345079D01*
X490799Y345131D01*
X490457Y345148D01*
X490506Y346148D01*
X490836Y346164D01*
X491168Y346212D01*
X491503Y346293D01*
X491839Y346407D01*
X492177Y346552D01*
X492518Y346730D01*
X492860Y346941D01*
X493204Y347184D01*
X493551Y347459D01*
X493899Y347766D01*
X493692Y343444D01*
D02*
G37*
G36*
X497847Y342966D02*
X497565Y342639D01*
X497315Y342310D01*
X497099Y341980D01*
X496916Y341649D01*
X496766Y341317D01*
X496650Y340984D01*
X496566Y340649D01*
X496517Y340314D01*
X496500Y339978D01*
X495500D01*
X495483Y340314D01*
X495434Y340649D01*
X495350Y340984D01*
X495234Y341317D01*
X495084Y341649D01*
X494901Y341980D01*
X494685Y342310D01*
X494435Y342639D01*
X494153Y342966D01*
X493837Y343293D01*
X498163D01*
X497847Y342966D01*
D02*
G37*
G36*
X496505Y335694D02*
X496520Y335522D01*
X496545Y335370D01*
X496580Y335238D01*
X496625Y335127D01*
X496680Y335036D01*
X496745Y334965D01*
X496820Y334914D01*
X496905Y334884D01*
X497000Y334874D01*
X495000D01*
X495095Y334884D01*
X495180Y334914D01*
X495255Y334965D01*
X495320Y335036D01*
X495375Y335127D01*
X495420Y335238D01*
X495455Y335370D01*
X495480Y335522D01*
X495495Y335694D01*
X495500Y335886D01*
X496500D01*
X496505Y335694D01*
D02*
G37*
G36*
X451111Y325614D02*
X451033Y325671D01*
X450941Y325699D01*
X450835D01*
X450715Y325671D01*
X450581Y325614D01*
X450432Y325529D01*
X450269Y325416D01*
X450093Y325275D01*
X449697Y324907D01*
X448989Y325614D01*
X449188Y325819D01*
X449499Y326187D01*
X449612Y326349D01*
X449697Y326498D01*
X449753Y326632D01*
X449782Y326752D01*
Y326858D01*
X449753Y326950D01*
X449697Y327028D01*
X451111Y325614D01*
D02*
G37*
G36*
X432905Y325616D02*
X432820Y325586D01*
X432745Y325535D01*
X432680Y325464D01*
X432625Y325373D01*
X432580Y325262D01*
X432545Y325130D01*
X432520Y324978D01*
X432505Y324806D01*
X432500Y324614D01*
X431500D01*
X431495Y324806D01*
X431480Y324978D01*
X431455Y325130D01*
X431420Y325262D01*
X431375Y325373D01*
X431320Y325464D01*
X431255Y325535D01*
X431180Y325586D01*
X431095Y325616D01*
X431000Y325626D01*
X433000D01*
X432905Y325616D01*
D02*
G37*
G36*
X432513Y321164D02*
X432550Y320883D01*
X432613Y320605D01*
X432700Y320333D01*
X432812Y320064D01*
X432950Y319800D01*
X433112Y319540D01*
X433300Y319284D01*
X433512Y319033D01*
X433750Y318785D01*
X430250D01*
X430487Y319033D01*
X430700Y319284D01*
X430888Y319540D01*
X431050Y319800D01*
X431187Y320064D01*
X431300Y320333D01*
X431388Y320605D01*
X431450Y320883D01*
X431488Y321164D01*
X431500Y321449D01*
X432500D01*
X432513Y321164D01*
D02*
G37*
G36*
X434032Y318513D02*
X434284Y318300D01*
X434540Y318112D01*
X434800Y317950D01*
X435064Y317812D01*
X435333Y317700D01*
X435605Y317613D01*
X435883Y317550D01*
X436164Y317512D01*
X436449Y317500D01*
Y316500D01*
X436164Y316488D01*
X435883Y316450D01*
X435605Y316388D01*
X435333Y316300D01*
X435064Y316188D01*
X434800Y316050D01*
X434540Y315887D01*
X434284Y315700D01*
X434032Y315488D01*
X433785Y315250D01*
Y318750D01*
X434032Y318513D01*
D02*
G37*
G36*
X443405Y292910D02*
X443320Y292879D01*
X443245Y292829D01*
X443180Y292758D01*
X443125Y292667D01*
X443080Y292555D01*
X443045Y292424D01*
X443020Y292272D01*
X443005Y292100D01*
X443000Y291908D01*
X442000D01*
X441995Y292100D01*
X441980Y292272D01*
X441955Y292424D01*
X441920Y292555D01*
X441875Y292667D01*
X441820Y292758D01*
X441755Y292829D01*
X441680Y292879D01*
X441595Y292910D01*
X441500Y292920D01*
X443500D01*
X443405Y292910D01*
D02*
G37*
G36*
X443005Y283694D02*
X443020Y283522D01*
X443045Y283370D01*
X443080Y283238D01*
X443125Y283127D01*
X443180Y283036D01*
X443245Y282965D01*
X443320Y282914D01*
X443405Y282884D01*
X443500Y282874D01*
X441500D01*
X441595Y282884D01*
X441680Y282914D01*
X441755Y282965D01*
X441820Y283036D01*
X441875Y283127D01*
X441920Y283238D01*
X441955Y283370D01*
X441980Y283522D01*
X441995Y283694D01*
X442000Y283886D01*
X443000D01*
X443005Y283694D01*
D02*
G37*
G36*
X497905Y308116D02*
X497820Y308085D01*
X497745Y308035D01*
X497680Y307964D01*
X497625Y307873D01*
X497580Y307762D01*
X497545Y307630D01*
X497520Y307478D01*
X497505Y307306D01*
X497500Y307114D01*
X496500D01*
X496495Y307306D01*
X496480Y307478D01*
X496455Y307630D01*
X496420Y307762D01*
X496375Y307873D01*
X496320Y307964D01*
X496255Y308035D01*
X496180Y308085D01*
X496095Y308116D01*
X496000Y308126D01*
X498000D01*
X497905Y308116D01*
D02*
G37*
G36*
X497517Y273686D02*
X497567Y273351D01*
X497650Y273016D01*
X497766Y272683D01*
X497916Y272351D01*
X498099Y272020D01*
X498315Y271690D01*
X498565Y271361D01*
X498847Y271034D01*
X499163Y270707D01*
X494837D01*
X495153Y271034D01*
X495435Y271361D01*
X495685Y271690D01*
X495901Y272020D01*
X496084Y272351D01*
X496234Y272683D01*
X496350Y273016D01*
X496433Y273351D01*
X496483Y273686D01*
X496500Y274022D01*
X497500D01*
X497517Y273686D01*
D02*
G37*
G36*
X493933Y257500D02*
X493923Y257595D01*
X493893Y257680D01*
X493842Y257755D01*
X493772Y257820D01*
X493680Y257875D01*
X493569Y257920D01*
X493438Y257955D01*
X493286Y257980D01*
X493114Y257995D01*
X492921Y258000D01*
Y259000D01*
X493114Y259005D01*
X493286Y259020D01*
X493438Y259045D01*
X493569Y259080D01*
X493680Y259125D01*
X493772Y259180D01*
X493842Y259245D01*
X493893Y259320D01*
X493923Y259405D01*
X493933Y259500D01*
Y257500D01*
D02*
G37*
G36*
X467802Y259280D02*
X467832Y259195D01*
X467882Y259120D01*
X467953Y259055D01*
X468044Y259000D01*
X468156Y258955D01*
X468287Y258920D01*
X468439Y258895D01*
X468611Y258880D01*
X468803Y258875D01*
Y257875D01*
X468611Y257870D01*
X468439Y257855D01*
X468287Y257830D01*
X468156Y257795D01*
X468044Y257750D01*
X467953Y257695D01*
X467882Y257630D01*
X467832Y257555D01*
X467802Y257470D01*
X467791Y257375D01*
Y259375D01*
X467802Y259280D01*
D02*
G37*
G36*
X449092Y256114D02*
X449087Y256107D01*
X449081Y256087D01*
X449077Y256053D01*
X449069Y255945D01*
X449062Y255438D01*
X448062D01*
X448060Y255569D01*
X448034Y255877D01*
X448018Y255953D01*
X447999Y256015D01*
X447976Y256063D01*
X447949Y256098D01*
X447919Y256119D01*
X447886Y256126D01*
X449092Y256114D01*
D02*
G37*
G36*
X462405Y256116D02*
X462320Y256085D01*
X462245Y256035D01*
X462180Y255964D01*
X462125Y255873D01*
X462080Y255762D01*
X462045Y255630D01*
X462020Y255478D01*
X462005Y255306D01*
X462000Y255114D01*
X461000D01*
X460995Y255306D01*
X460980Y255478D01*
X460955Y255630D01*
X460920Y255762D01*
X460875Y255873D01*
X460820Y255964D01*
X460755Y256035D01*
X460680Y256085D01*
X460595Y256116D01*
X460500Y256126D01*
X462500D01*
X462405Y256116D01*
D02*
G37*
G36*
X462005Y248079D02*
X462020Y247907D01*
X462045Y247755D01*
X462080Y247624D01*
X462125Y247513D01*
X462180Y247421D01*
X462245Y247351D01*
X462320Y247300D01*
X462405Y247270D01*
X462500Y247259D01*
X460500D01*
X460595Y247270D01*
X460680Y247300D01*
X460755Y247351D01*
X460820Y247421D01*
X460875Y247513D01*
X460920Y247624D01*
X460955Y247755D01*
X460980Y247907D01*
X460995Y248079D01*
X461000Y248271D01*
X462000D01*
X462005Y248079D01*
D02*
G37*
G36*
X448553Y235659D02*
X448585Y235576D01*
X448637Y235502D01*
X448710Y235437D01*
X448804Y235383D01*
X448919Y235339D01*
X449055Y235304D01*
X449212Y235280D01*
X449389Y235265D01*
X449588Y235260D01*
Y234260D01*
X449389Y234255D01*
X449212Y234240D01*
X449055Y234215D01*
X448919Y234181D01*
X448804Y234137D01*
X448710Y234082D01*
X448637Y234018D01*
X448585Y233944D01*
X448553Y233860D01*
X448543Y233767D01*
Y235753D01*
X448553Y235659D01*
D02*
G37*
G36*
X458677Y233760D02*
X458667Y233855D01*
X458637Y233940D01*
X458587Y234015D01*
X458516Y234080D01*
X458425Y234135D01*
X458313Y234180D01*
X458182Y234215D01*
X458030Y234240D01*
X457858Y234255D01*
X457665Y234260D01*
Y235260D01*
X457858Y235265D01*
X458030Y235280D01*
X458182Y235305D01*
X458313Y235340D01*
X458425Y235385D01*
X458516Y235440D01*
X458587Y235505D01*
X458637Y235580D01*
X458667Y235665D01*
X458677Y235760D01*
Y233760D01*
D02*
G37*
G36*
X463405Y232718D02*
X463320Y232688D01*
X463245Y232639D01*
X463180Y232569D01*
X463125Y232478D01*
X463080Y232368D01*
X463045Y232239D01*
X463020Y232088D01*
X463005Y231919D01*
X463000Y231729D01*
X462000D01*
X461995Y231919D01*
X461980Y232088D01*
X461955Y232239D01*
X461920Y232368D01*
X461875Y232478D01*
X461820Y232569D01*
X461755Y232639D01*
X461680Y232688D01*
X461595Y232718D01*
X461500Y232729D01*
X463500D01*
X463405Y232718D01*
D02*
G37*
G36*
X463005Y228694D02*
X463020Y228522D01*
X463045Y228370D01*
X463080Y228238D01*
X463125Y228127D01*
X463180Y228036D01*
X463245Y227965D01*
X463320Y227915D01*
X463405Y227884D01*
X463500Y227874D01*
X461500D01*
X461595Y227884D01*
X461680Y227915D01*
X461755Y227965D01*
X461820Y228036D01*
X461875Y228127D01*
X461920Y228238D01*
X461955Y228370D01*
X461980Y228522D01*
X461995Y228694D01*
X462000Y228886D01*
X463000D01*
X463005Y228694D01*
D02*
G37*
G36*
X449013Y246467D02*
X448800Y246216D01*
X448612Y245960D01*
X448450Y245700D01*
X448313Y245436D01*
X448200Y245167D01*
X448112Y244895D01*
X448050Y244618D01*
X448012Y244336D01*
X448006Y244181D01*
X448020Y244009D01*
X448044Y243847D01*
X448079Y243707D01*
X448123Y243587D01*
X448178Y243489D01*
X448242Y243411D01*
X448316Y243355D01*
X448400Y243320D01*
X448493Y243305D01*
X446500Y243383D01*
X446595Y243390D01*
X446680Y243417D01*
X446755Y243466D01*
X446820Y243536D01*
X446875Y243626D01*
X446920Y243738D01*
X446955Y243871D01*
X446980Y244024D01*
X446994Y244188D01*
X446987Y244336D01*
X446950Y244618D01*
X446887Y244895D01*
X446800Y245167D01*
X446688Y245436D01*
X446550Y245700D01*
X446387Y245960D01*
X446200Y246216D01*
X445988Y246467D01*
X445750Y246715D01*
X449250D01*
X449013Y246467D01*
D02*
G37*
G36*
X435457Y237507D02*
X435447Y237600D01*
X435415Y237684D01*
X435363Y237758D01*
X435290Y237822D01*
X435196Y237877D01*
X435081Y237921D01*
X434945Y237956D01*
X434788Y237980D01*
X434611Y237995D01*
X434412Y238000D01*
Y239000D01*
X434611Y239005D01*
X434788Y239020D01*
X434945Y239044D01*
X435081Y239079D01*
X435196Y239123D01*
X435290Y239178D01*
X435363Y239242D01*
X435415Y239316D01*
X435447Y239400D01*
X435457Y239493D01*
Y237507D01*
D02*
G37*
G36*
X428029Y239405D02*
X428060Y239320D01*
X428110Y239245D01*
X428181Y239180D01*
X428272Y239125D01*
X428384Y239080D01*
X428515Y239045D01*
X428667Y239020D01*
X428839Y239005D01*
X429031Y239000D01*
Y238000D01*
X428839Y237995D01*
X428667Y237980D01*
X428515Y237955D01*
X428384Y237920D01*
X428272Y237875D01*
X428181Y237820D01*
X428110Y237755D01*
X428060Y237680D01*
X428029Y237595D01*
X428019Y237500D01*
Y239500D01*
X428029Y239405D01*
D02*
G37*
G36*
X420981Y237496D02*
X420971Y237591D01*
X420940Y237676D01*
X420890Y237751D01*
X420819Y237816D01*
X420728Y237871D01*
X420616Y237916D01*
X420485Y237951D01*
X420333Y237976D01*
X420161Y237991D01*
X419969Y237996D01*
Y238996D01*
X420161Y239001D01*
X420333Y239016D01*
X420485Y239041D01*
X420616Y239076D01*
X420728Y239121D01*
X420819Y239176D01*
X420890Y239241D01*
X420940Y239316D01*
X420971Y239401D01*
X420981Y239496D01*
Y237496D01*
D02*
G37*
G36*
X412029Y239401D02*
X412060Y239316D01*
X412110Y239241D01*
X412181Y239176D01*
X412272Y239121D01*
X412384Y239076D01*
X412515Y239041D01*
X412667Y239016D01*
X412839Y239001D01*
X413031Y238996D01*
Y237996D01*
X412839Y237991D01*
X412667Y237976D01*
X412515Y237951D01*
X412384Y237916D01*
X412272Y237871D01*
X412181Y237816D01*
X412110Y237751D01*
X412060Y237676D01*
X412029Y237591D01*
X412019Y237496D01*
Y239496D01*
X412029Y239401D01*
D02*
G37*
G36*
X427405Y236049D02*
X427320Y236019D01*
X427245Y235968D01*
X427180Y235897D01*
X427125Y235806D01*
X427080Y235695D01*
X427045Y235563D01*
X427020Y235412D01*
X427005Y235240D01*
X427000Y235047D01*
X426000D01*
X425995Y235240D01*
X425980Y235412D01*
X425955Y235563D01*
X425920Y235695D01*
X425875Y235806D01*
X425820Y235897D01*
X425755Y235968D01*
X425680Y236019D01*
X425595Y236049D01*
X425500Y236059D01*
X427500D01*
X427405Y236049D01*
D02*
G37*
G36*
X425108Y228972D02*
X424910Y228767D01*
X424599Y228399D01*
X424486Y228237D01*
X424401Y228088D01*
X424345Y227954D01*
X424317Y227834D01*
Y227728D01*
X424345Y227636D01*
X424401Y227558D01*
X422987Y228972D01*
X423065Y228916D01*
X423157Y228887D01*
X423263D01*
X423383Y228916D01*
X423518Y228972D01*
X423666Y229057D01*
X423829Y229170D01*
X424005Y229312D01*
X424401Y229679D01*
X425108Y228972D01*
D02*
G37*
G36*
X356096Y320681D02*
X356357Y320460D01*
X356622Y320264D01*
X356891Y320095D01*
X357164Y319952D01*
X357440Y319834D01*
X357721Y319743D01*
X358005Y319678D01*
X358294Y319639D01*
X358586Y319626D01*
Y318626D01*
X358294Y318613D01*
X358005Y318574D01*
X357721Y318509D01*
X357440Y318418D01*
X357164Y318300D01*
X356891Y318157D01*
X356622Y317988D01*
X356357Y317793D01*
X356096Y317571D01*
X355839Y317324D01*
Y320928D01*
X356096Y320681D01*
D02*
G37*
G36*
X408611Y224500D02*
X408601Y224595D01*
X408570Y224680D01*
X408520Y224755D01*
X408449Y224820D01*
X408358Y224875D01*
X408246Y224920D01*
X408115Y224955D01*
X407963Y224980D01*
X407791Y224995D01*
X407599Y225000D01*
Y226000D01*
X407791Y226005D01*
X407963Y226020D01*
X408115Y226045D01*
X408246Y226080D01*
X408358Y226125D01*
X408449Y226180D01*
X408520Y226245D01*
X408570Y226320D01*
X408601Y226405D01*
X408611Y226500D01*
Y224500D01*
D02*
G37*
G36*
X447512Y221968D02*
X447300Y221716D01*
X447113Y221460D01*
X446950Y221200D01*
X446812Y220936D01*
X446700Y220667D01*
X446613Y220395D01*
X446550Y220117D01*
X446513Y219836D01*
X446500Y219550D01*
X445500D01*
X445487Y219836D01*
X445450Y220117D01*
X445388Y220395D01*
X445300Y220667D01*
X445188Y220936D01*
X445050Y221200D01*
X444887Y221460D01*
X444700Y221716D01*
X444487Y221968D01*
X444250Y222215D01*
X447750D01*
X447512Y221968D01*
D02*
G37*
G36*
X446505Y216044D02*
X446520Y215872D01*
X446545Y215720D01*
X446580Y215588D01*
X446625Y215477D01*
X446680Y215386D01*
X446745Y215315D01*
X446820Y215265D01*
X446905Y215234D01*
X447000Y215224D01*
X445000D01*
X445095Y215234D01*
X445180Y215265D01*
X445255Y215315D01*
X445320Y215386D01*
X445375Y215477D01*
X445420Y215588D01*
X445455Y215720D01*
X445480Y215872D01*
X445495Y216044D01*
X445500Y216236D01*
X446500D01*
X446505Y216044D01*
D02*
G37*
G36*
X435618Y210311D02*
X435608Y210406D01*
X435578Y210491D01*
X435527Y210566D01*
X435457Y210631D01*
X435365Y210686D01*
X435254Y210731D01*
X435123Y210766D01*
X434971Y210791D01*
X434799Y210806D01*
X434607Y210811D01*
Y211811D01*
X434799Y211816D01*
X434971Y211831D01*
X435123Y211856D01*
X435254Y211891D01*
X435365Y211936D01*
X435457Y211991D01*
X435527Y212056D01*
X435578Y212131D01*
X435608Y212216D01*
X435618Y212311D01*
Y210311D01*
D02*
G37*
G36*
X425005Y207459D02*
X425020Y207289D01*
X425045Y207139D01*
X425080Y207009D01*
X425125Y206899D01*
X425180Y206809D01*
X425245Y206739D01*
X425320Y206689D01*
X425405Y206659D01*
X425500Y206649D01*
X423500D01*
X423595Y206659D01*
X423680Y206689D01*
X423755Y206739D01*
X423820Y206809D01*
X423875Y206899D01*
X423920Y207009D01*
X423955Y207139D01*
X423980Y207289D01*
X423995Y207459D01*
X424000Y207649D01*
X425000D01*
X425005Y207459D01*
D02*
G37*
G36*
X463405Y201116D02*
X463320Y201085D01*
X463245Y201035D01*
X463180Y200964D01*
X463125Y200873D01*
X463080Y200762D01*
X463045Y200630D01*
X463020Y200478D01*
X463005Y200306D01*
X463000Y200114D01*
X462000D01*
X461995Y200306D01*
X461980Y200478D01*
X461955Y200630D01*
X461920Y200762D01*
X461875Y200873D01*
X461820Y200964D01*
X461755Y201035D01*
X461680Y201085D01*
X461595Y201116D01*
X461500Y201126D01*
X463500D01*
X463405Y201116D01*
D02*
G37*
G36*
X425405Y189353D02*
X425320Y189322D01*
X425245Y189271D01*
X425180Y189201D01*
X425125Y189110D01*
X425080Y188998D01*
X425045Y188867D01*
X425020Y188715D01*
X425005Y188543D01*
X425000Y188351D01*
X424000D01*
X423995Y188543D01*
X423980Y188715D01*
X423955Y188867D01*
X423920Y188998D01*
X423875Y189110D01*
X423820Y189201D01*
X423755Y189271D01*
X423680Y189322D01*
X423595Y189353D01*
X423500Y189363D01*
X425500D01*
X425405Y189353D01*
D02*
G37*
G36*
X462853Y188146D02*
X462657Y187936D01*
X462485Y187720D01*
X462337Y187500D01*
X462214Y187275D01*
X462114Y187045D01*
X462039Y186810D01*
X461988Y186570D01*
X461961Y186326D01*
X461958Y186077D01*
X461979Y185823D01*
X459823Y187979D01*
X460077Y187958D01*
X460326Y187961D01*
X460570Y187988D01*
X460810Y188039D01*
X461045Y188114D01*
X461275Y188214D01*
X461500Y188338D01*
X461720Y188485D01*
X461936Y188657D01*
X462147Y188854D01*
X462853Y188146D01*
D02*
G37*
G36*
X447403Y188594D02*
X447434Y188509D01*
X447483Y188434D01*
X447553Y188369D01*
X447644Y188314D01*
X447753Y188269D01*
X447884Y188234D01*
X448034Y188209D01*
X448204Y188194D01*
X448393Y188189D01*
Y187189D01*
X448204Y187184D01*
X448034Y187169D01*
X447884Y187144D01*
X447753Y187109D01*
X447644Y187064D01*
X447553Y187009D01*
X447483Y186944D01*
X447434Y186869D01*
X447403Y186784D01*
X447394Y186689D01*
Y188689D01*
X447403Y188594D01*
D02*
G37*
G36*
X456755Y187882D02*
X456924Y187748D01*
X457092Y187641D01*
X457256Y187560D01*
X457418Y187505D01*
X457578Y187477D01*
X457735Y187475D01*
X457889Y187500D01*
X458041Y187551D01*
X458190Y187629D01*
X457056Y185419D01*
X459475Y183000D01*
X459132Y182993D01*
X458804Y182966D01*
X458491Y182917D01*
X458192Y182849D01*
X457908Y182759D01*
X457639Y182649D01*
X457384Y182518D01*
X457144Y182366D01*
X456918Y182193D01*
X456707Y182000D01*
X456000Y182707D01*
X456193Y182918D01*
X456366Y183144D01*
X456518Y183384D01*
X456648Y183639D01*
X456759Y183908D01*
X456848Y184192D01*
X456917Y184491D01*
X456966Y184804D01*
X456993Y185132D01*
X456998Y185388D01*
X456983Y185514D01*
X456940Y185707D01*
X456876Y185903D01*
X456793Y186100D01*
X456690Y186300D01*
X456567Y186503D01*
X456424Y186707D01*
X456261Y186915D01*
X455875Y187335D01*
X456582Y188042D01*
X456755Y187882D01*
D02*
G37*
D14*
X419000Y405500D02*
X447500D01*
X464952Y422952D01*
X417000Y407500D02*
X419000Y405500D01*
X464952Y422952D02*
X468983D01*
X470000Y423969D01*
X417000Y407500D02*
Y410870D01*
X416685Y411185D02*
X417000Y410870D01*
X449000Y361937D02*
Y373000D01*
X436370Y385130D02*
X448500Y373000D01*
X436370Y385130D02*
Y391500D01*
X448500Y373000D02*
X449000D01*
X486720Y260838D02*
X489057Y258500D01*
X478103Y260838D02*
X486720D01*
X475641Y258375D02*
X478103Y260838D01*
X489057Y258500D02*
X497000D01*
X461500Y258375D02*
X475641D01*
X424500Y186000D02*
X428500Y182000D01*
X456000D01*
X424500Y186000D02*
Y191898D01*
Y204102D02*
Y208618D01*
X497000Y268500D02*
Y309000D01*
X496500Y309500D02*
X497000Y309000D01*
X496500Y309500D02*
Y310669D01*
X442500Y280331D02*
Y298169D01*
X441169Y299500D02*
X442500Y298169D01*
X460118Y234882D02*
Y235583D01*
X456000Y245750D02*
Y248000D01*
Y239000D02*
Y245750D01*
X445996Y234760D02*
X460118D01*
Y234882D02*
X462000D01*
X459154Y236547D02*
X460118Y235583D01*
X456000Y239000D02*
X458453Y236547D01*
X448562Y255438D02*
X456000Y248000D01*
X458453Y236547D02*
X459154D01*
X446494Y258669D02*
X448562Y256602D01*
X442500Y258669D02*
X446494D01*
X448562Y255438D02*
Y256602D01*
X447500Y242902D02*
Y248500D01*
X445996Y242240D02*
X446839D01*
X447500Y242902D01*
X461500Y245618D02*
X462000Y245118D01*
X461500Y245618D02*
Y258375D01*
X427193Y211311D02*
X441500D01*
X424500Y208618D02*
X427193Y211311D01*
X441500D02*
X442563D01*
X446000Y214748D01*
Y224000D01*
X462500Y188500D02*
Y203669D01*
X459500Y185500D02*
X462500Y188500D01*
X456000Y182000D02*
X459500Y185500D01*
X456229Y187689D02*
X458418Y185500D01*
X441500Y187689D02*
X456229D01*
X458418Y185500D02*
X459500D01*
X441083Y317000D02*
X451958Y327875D01*
X432000Y317000D02*
X441083D01*
X451958Y327875D02*
X456000D01*
X432000Y317000D02*
Y327567D01*
X431398Y328169D02*
X432000Y327567D01*
X360035Y340910D02*
X383401D01*
X354000Y334874D02*
X360035Y340910D01*
X383401D02*
X392323Y349831D01*
X406500D01*
X403500Y225500D02*
X410811D01*
X388000Y241000D02*
Y247500D01*
Y241000D02*
X403500Y225500D01*
X385000Y250500D02*
X388000Y247500D01*
X377500Y250500D02*
X385000D01*
X373500Y254500D02*
X377500Y250500D01*
X373500Y254500D02*
Y308000D01*
X362374Y319126D02*
X373500Y308000D01*
X354000Y319126D02*
X362374D01*
X424500Y238496D02*
X424539D01*
X426500Y236535D01*
Y231071D02*
Y236535D01*
X422189Y225500D02*
Y226760D01*
X426500Y231071D01*
X408500Y238496D02*
X424500D01*
X424504Y238500D02*
X438004D01*
X424500Y238496D02*
X424504Y238500D01*
X462500Y225331D02*
Y234382D01*
X496000Y332831D02*
Y345500D01*
Y332831D02*
X496500Y332331D01*
X481648Y345648D02*
X495852D01*
X496000Y345500D01*
X481500Y345795D02*
X481648Y345648D01*
X406500Y349831D02*
X431398D01*
Y355335D02*
X438382Y362319D01*
Y363500D01*
X431398Y349831D02*
Y355335D01*
X449000Y361937D02*
X456000Y354937D01*
Y350125D02*
Y354937D01*
D16*
X496500Y310669D02*
D03*
Y332331D02*
D03*
X431398Y328169D02*
D03*
Y349831D02*
D03*
X462500Y203669D02*
D03*
Y225331D02*
D03*
X442500Y258669D02*
D03*
Y280331D02*
D03*
X406500Y349831D02*
D03*
Y328169D02*
D03*
D17*
X438382Y363500D02*
D03*
X448618D02*
D03*
D18*
X456000Y327875D02*
D03*
Y350125D02*
D03*
X461500Y258375D02*
D03*
Y280625D02*
D03*
D19*
X422189Y225500D02*
D03*
X410811D02*
D03*
D20*
X462000Y234882D02*
D03*
Y245118D02*
D03*
D21*
X445996Y234760D02*
D03*
Y242240D02*
D03*
X438004Y238500D02*
D03*
D22*
X441500Y211311D02*
D03*
Y187689D02*
D03*
D23*
X424500Y191898D02*
D03*
Y204102D02*
D03*
D24*
X441169Y299500D02*
D03*
X462831D02*
D03*
D25*
X470000Y395031D02*
D03*
Y423969D02*
D03*
D26*
X424500Y238496D02*
D03*
Y250504D02*
D03*
X408500Y238496D02*
D03*
Y250504D02*
D03*
D39*
X468500Y156000D02*
D03*
X458500D02*
D03*
X448500D02*
D03*
X438500D02*
D03*
X428500D02*
D03*
X418500D02*
D03*
X408500D02*
D03*
X381500Y355500D02*
D03*
Y345500D02*
D03*
Y335500D02*
D03*
Y325500D02*
D03*
Y315500D02*
D03*
Y305500D02*
D03*
Y295500D02*
D03*
Y285500D02*
D03*
Y275500D02*
D03*
Y265500D02*
D03*
Y255500D02*
D03*
Y245500D02*
D03*
Y235500D02*
D03*
Y225500D02*
D03*
Y215500D02*
D03*
Y205500D02*
D03*
Y195500D02*
D03*
Y185500D02*
D03*
Y175500D02*
D03*
X481500Y355795D02*
D03*
Y345795D02*
D03*
Y335795D02*
D03*
Y325795D02*
D03*
Y315795D02*
D03*
Y305795D02*
D03*
Y295795D02*
D03*
Y285795D02*
D03*
Y275795D02*
D03*
Y265795D02*
D03*
Y255795D02*
D03*
Y245795D02*
D03*
Y235795D02*
D03*
Y225795D02*
D03*
Y215795D02*
D03*
Y205795D02*
D03*
Y195795D02*
D03*
Y185795D02*
D03*
Y175795D02*
D03*
X497000Y268500D02*
D03*
X496000Y345500D02*
D03*
D40*
X398500Y156000D02*
D03*
D41*
X381500Y365500D02*
D03*
X481500Y365795D02*
D03*
X497000Y258500D02*
D03*
X496000Y355500D02*
D03*
D44*
X397315Y412685D02*
D03*
Y422528D02*
D03*
X417000Y393000D02*
D03*
X436685Y412685D02*
D03*
Y422528D02*
D03*
D45*
Y393000D02*
D03*
X397315D02*
D03*
D46*
X417000Y412685D02*
D03*
D47*
X354000Y327000D02*
D03*
Y319126D02*
D03*
Y334874D02*
D03*
D48*
Y307906D02*
D03*
Y346094D02*
D03*
D49*
X381500Y428500D02*
D03*
X503500D02*
D03*
Y123500D02*
D03*
X381500D02*
D03*
D50*
X447500Y248500D02*
D03*
X446000Y224000D02*
D03*
X459500Y185500D02*
D03*
X393500Y261500D02*
D03*
X432000Y317000D02*
D03*
M02*
