G04*
G04 #@! TF.GenerationSoftware,Altium Limited,Altium Designer,22.0.2 (36)*
G04*
G04 Layer_Color=8421504*
%FSLAX25Y25*%
%MOIN*%
G70*
G04*
G04 #@! TF.SameCoordinates,7C6212BA-1BE9-4310-A8C3-E6ACAF7CF704*
G04*
G04*
G04 #@! TF.FilePolarity,Positive*
G04*
G01*
G75*
%ADD16R,0.13209X0.05135*%
%ADD17R,0.04331X0.06693*%
%ADD18R,0.12631X0.04547*%
%ADD19R,0.04449X0.06969*%
%ADD20R,0.06693X0.04331*%
G04:AMPARAMS|DCode=21|XSize=51.97mil|YSize=23.23mil|CornerRadius=2.9mil|HoleSize=0mil|Usage=FLASHONLY|Rotation=180.000|XOffset=0mil|YOffset=0mil|HoleType=Round|Shape=RoundedRectangle|*
%AMROUNDEDRECTD21*
21,1,0.05197,0.01742,0,0,180.0*
21,1,0.04616,0.02323,0,0,180.0*
1,1,0.00581,-0.02308,0.00871*
1,1,0.00581,0.02308,0.00871*
1,1,0.00581,0.02308,-0.00871*
1,1,0.00581,-0.02308,-0.00871*
%
%ADD21ROUNDEDRECTD21*%
%ADD22R,0.11811X0.07874*%
%ADD23R,0.07087X0.05118*%
%ADD24R,0.05135X0.13209*%
%ADD25R,0.08268X0.16535*%
%ADD26R,0.07087X0.04921*%
D16*
X496500Y310669D02*
D03*
Y332331D02*
D03*
X431398Y328169D02*
D03*
Y349831D02*
D03*
X462500Y203669D02*
D03*
Y225331D02*
D03*
X442500Y258669D02*
D03*
Y280331D02*
D03*
X406500Y349831D02*
D03*
Y328169D02*
D03*
D17*
X438382Y363500D02*
D03*
X448618D02*
D03*
D18*
X456000Y327875D02*
D03*
Y350125D02*
D03*
X461500Y258375D02*
D03*
Y280625D02*
D03*
D19*
X422189Y225500D02*
D03*
X410811D02*
D03*
D20*
X462000Y234882D02*
D03*
Y245118D02*
D03*
D21*
X445996Y234760D02*
D03*
Y242240D02*
D03*
X438004Y238500D02*
D03*
D22*
X441500Y211311D02*
D03*
Y187689D02*
D03*
D23*
X424500Y191898D02*
D03*
Y204102D02*
D03*
D24*
X441169Y299500D02*
D03*
X462831D02*
D03*
D25*
X470000Y395031D02*
D03*
Y423969D02*
D03*
D26*
X424500Y238496D02*
D03*
Y250504D02*
D03*
X408500Y238496D02*
D03*
Y250504D02*
D03*
M02*
